<mxfile host="app.diagrams.net" modified="2023-03-31T01:42:28.997Z" agent="Mozilla/5.0 (Windows NT 10.0; Win64; x64) AppleWebKit/537.36 (KHTML, like Gecko) Chrome/111.0.0.0 Safari/537.36" etag="7h2oTMJMvdQ9BH_-kOqj" version="21.1.2" type="github" pages="2">
  <diagram name="lsf" id="BRIWeSCua2ZOkDrTRVlF">
    <mxGraphModel dx="1500" dy="877" grid="0" gridSize="10" guides="1" tooltips="1" connect="1" arrows="1" fold="1" page="1" pageScale="1" pageWidth="850" pageHeight="1100" math="0" shadow="0">
      <root>
        <mxCell id="0" />
        <mxCell id="1" parent="0" />
        <mxCell id="O1OOal9oUfB2STQtyPn--116" value="" style="rounded=1;whiteSpace=wrap;html=1;strokeWidth=2;" parent="1" vertex="1">
          <mxGeometry x="624" y="206" width="214" height="214" as="geometry" />
        </mxCell>
        <mxCell id="O1OOal9oUfB2STQtyPn--53" value="" style="rounded=1;whiteSpace=wrap;html=1;fillColor=#bac8d3;strokeColor=#23445d;strokeWidth=2;" parent="1" vertex="1">
          <mxGeometry x="294" y="209" width="79" height="128" as="geometry" />
        </mxCell>
        <mxCell id="O1OOal9oUfB2STQtyPn--1" value="" style="rounded=1;whiteSpace=wrap;html=1;strokeWidth=2;" parent="1" vertex="1">
          <mxGeometry x="94" y="178" width="161" height="277" as="geometry" />
        </mxCell>
        <mxCell id="O1OOal9oUfB2STQtyPn--2" value="KvStore" style="text;html=1;align=center;verticalAlign=middle;resizable=0;points=[];autosize=1;strokeColor=none;fillColor=none;strokeWidth=2;" parent="1" vertex="1">
          <mxGeometry x="30" y="240" width="61" height="26" as="geometry" />
        </mxCell>
        <mxCell id="O1OOal9oUfB2STQtyPn--4" value="Log directory" style="text;html=1;align=center;verticalAlign=middle;resizable=0;points=[];autosize=1;strokeColor=none;fillColor=none;strokeWidth=2;" parent="1" vertex="1">
          <mxGeometry x="694" y="178" width="87" height="26" as="geometry" />
        </mxCell>
        <mxCell id="O1OOal9oUfB2STQtyPn--5" value="readers" style="rounded=1;whiteSpace=wrap;html=1;fillColor=#bac8d3;strokeColor=#23445d;strokeWidth=2;" parent="1" vertex="1">
          <mxGeometry x="112" y="234" width="121" height="38" as="geometry" />
        </mxCell>
        <mxCell id="O1OOal9oUfB2STQtyPn--52" style="edgeStyle=orthogonalEdgeStyle;rounded=0;orthogonalLoop=1;jettySize=auto;html=1;exitX=0.5;exitY=0;exitDx=0;exitDy=0;entryX=0.48;entryY=-0.029;entryDx=0;entryDy=0;entryPerimeter=0;strokeWidth=1;" parent="1" source="O1OOal9oUfB2STQtyPn--6" target="O1OOal9oUfB2STQtyPn--4" edge="1">
          <mxGeometry relative="1" as="geometry" />
        </mxCell>
        <mxCell id="O1OOal9oUfB2STQtyPn--6" value="log path" style="rounded=1;whiteSpace=wrap;html=1;strokeWidth=2;" parent="1" vertex="1">
          <mxGeometry x="112" y="196" width="121" height="38" as="geometry" />
        </mxCell>
        <mxCell id="O1OOal9oUfB2STQtyPn--42" style="edgeStyle=orthogonalEdgeStyle;rounded=0;orthogonalLoop=1;jettySize=auto;html=1;entryX=1;entryY=0.5;entryDx=0;entryDy=0;exitX=0;exitY=0.5;exitDx=0;exitDy=0;strokeWidth=1;" parent="1" source="O1OOal9oUfB2STQtyPn--7" target="O1OOal9oUfB2STQtyPn--63" edge="1">
          <mxGeometry relative="1" as="geometry">
            <mxPoint x="447" y="476.02857142857135" as="targetPoint" />
            <Array as="points">
              <mxPoint x="58" y="291" />
              <mxPoint x="58" y="490" />
              <mxPoint x="854" y="490" />
              <mxPoint x="854" y="374" />
            </Array>
          </mxGeometry>
        </mxCell>
        <mxCell id="O1OOal9oUfB2STQtyPn--7" value="writer" style="rounded=1;whiteSpace=wrap;html=1;strokeWidth=2;" parent="1" vertex="1">
          <mxGeometry x="112" y="272" width="121" height="38" as="geometry" />
        </mxCell>
        <mxCell id="O1OOal9oUfB2STQtyPn--65" style="edgeStyle=orthogonalEdgeStyle;rounded=0;orthogonalLoop=1;jettySize=auto;html=1;entryX=0.5;entryY=1;entryDx=0;entryDy=0;strokeWidth=1;" parent="1" source="O1OOal9oUfB2STQtyPn--8" target="O1OOal9oUfB2STQtyPn--36" edge="1">
          <mxGeometry relative="1" as="geometry">
            <Array as="points">
              <mxPoint x="248" y="329" />
              <mxPoint x="248" y="344" />
              <mxPoint x="334" y="344" />
            </Array>
          </mxGeometry>
        </mxCell>
        <mxCell id="O1OOal9oUfB2STQtyPn--8" value="cur gen" style="rounded=1;whiteSpace=wrap;html=1;strokeWidth=2;" parent="1" vertex="1">
          <mxGeometry x="112" y="310" width="121" height="38" as="geometry" />
        </mxCell>
        <mxCell id="O1OOal9oUfB2STQtyPn--9" value="index" style="rounded=1;whiteSpace=wrap;html=1;fillColor=#b0e3e6;strokeColor=#0e8088;strokeWidth=2;" parent="1" vertex="1">
          <mxGeometry x="112" y="386" width="121" height="38" as="geometry" />
        </mxCell>
        <mxCell id="O1OOal9oUfB2STQtyPn--10" value="log file 1" style="rounded=1;whiteSpace=wrap;html=1;strokeWidth=2;" parent="1" vertex="1">
          <mxGeometry x="677" y="241" width="121" height="38" as="geometry" />
        </mxCell>
        <mxCell id="O1OOal9oUfB2STQtyPn--11" value="log file 2" style="rounded=1;whiteSpace=wrap;html=1;strokeWidth=2;" parent="1" vertex="1">
          <mxGeometry x="677" y="297" width="121" height="38" as="geometry" />
        </mxCell>
        <mxCell id="O1OOal9oUfB2STQtyPn--12" value="log file 3" style="rounded=1;whiteSpace=wrap;html=1;strokeWidth=2;" parent="1" vertex="1">
          <mxGeometry x="677" y="355" width="121" height="38" as="geometry" />
        </mxCell>
        <mxCell id="O1OOal9oUfB2STQtyPn--29" value="gen1" style="rounded=1;whiteSpace=wrap;html=1;strokeWidth=2;" parent="1" vertex="1">
          <mxGeometry x="306" y="222" width="55" height="34" as="geometry" />
        </mxCell>
        <mxCell id="O1OOal9oUfB2STQtyPn--31" style="edgeStyle=orthogonalEdgeStyle;rounded=0;orthogonalLoop=1;jettySize=auto;html=1;exitX=1;exitY=0.5;exitDx=0;exitDy=0;strokeColor=#7EA6E0;dashed=1;strokeWidth=2;startArrow=none;" parent="1" source="O1OOal9oUfB2STQtyPn--108" target="O1OOal9oUfB2STQtyPn--58" edge="1">
          <mxGeometry relative="1" as="geometry">
            <mxPoint x="416" y="239" as="sourcePoint" />
            <mxPoint x="565" y="249" as="targetPoint" />
          </mxGeometry>
        </mxCell>
        <mxCell id="O1OOal9oUfB2STQtyPn--33" value="gen2" style="rounded=1;whiteSpace=wrap;html=1;strokeWidth=2;" parent="1" vertex="1">
          <mxGeometry x="306" y="256" width="55" height="34" as="geometry" />
        </mxCell>
        <mxCell id="O1OOal9oUfB2STQtyPn--35" style="edgeStyle=orthogonalEdgeStyle;rounded=0;orthogonalLoop=1;jettySize=auto;html=1;entryX=0;entryY=0.5;entryDx=0;entryDy=0;exitX=1;exitY=0.5;exitDx=0;exitDy=0;strokeWidth=1;" parent="1" source="O1OOal9oUfB2STQtyPn--33" target="O1OOal9oUfB2STQtyPn--60" edge="1">
          <mxGeometry relative="1" as="geometry">
            <mxPoint x="416" y="273" as="sourcePoint" />
          </mxGeometry>
        </mxCell>
        <mxCell id="O1OOal9oUfB2STQtyPn--36" value="gen3" style="rounded=1;whiteSpace=wrap;html=1;strokeWidth=2;" parent="1" vertex="1">
          <mxGeometry x="306" y="290" width="55" height="34" as="geometry" />
        </mxCell>
        <mxCell id="O1OOal9oUfB2STQtyPn--38" style="edgeStyle=orthogonalEdgeStyle;rounded=0;orthogonalLoop=1;jettySize=auto;html=1;strokeWidth=1;" parent="1" source="O1OOal9oUfB2STQtyPn--36" target="O1OOal9oUfB2STQtyPn--61" edge="1">
          <mxGeometry relative="1" as="geometry">
            <mxPoint x="416" y="307" as="sourcePoint" />
            <Array as="points">
              <mxPoint x="487" y="307" />
              <mxPoint x="487" y="372" />
            </Array>
          </mxGeometry>
        </mxCell>
        <mxCell id="O1OOal9oUfB2STQtyPn--54" value="" style="endArrow=none;dashed=1;html=1;dashPattern=1 3;strokeWidth=2;rounded=0;entryX=0.017;entryY=0.076;entryDx=0;entryDy=0;entryPerimeter=0;exitX=1;exitY=0;exitDx=0;exitDy=0;" parent="1" source="O1OOal9oUfB2STQtyPn--5" target="O1OOal9oUfB2STQtyPn--53" edge="1">
          <mxGeometry width="50" height="50" relative="1" as="geometry">
            <mxPoint x="233.5" y="279" as="sourcePoint" />
            <mxPoint x="283.5" y="229" as="targetPoint" />
          </mxGeometry>
        </mxCell>
        <mxCell id="O1OOal9oUfB2STQtyPn--55" value="" style="endArrow=none;dashed=1;html=1;dashPattern=1 3;strokeWidth=2;rounded=0;exitX=1;exitY=1;exitDx=0;exitDy=0;" parent="1" source="O1OOal9oUfB2STQtyPn--5" edge="1">
          <mxGeometry width="50" height="50" relative="1" as="geometry">
            <mxPoint x="359" y="385" as="sourcePoint" />
            <mxPoint x="297" y="333" as="targetPoint" />
          </mxGeometry>
        </mxCell>
        <mxCell id="O1OOal9oUfB2STQtyPn--58" value="reader1" style="rounded=1;whiteSpace=wrap;html=1;strokeWidth=2;" parent="1" vertex="1">
          <mxGeometry x="640" y="247" width="50" height="26" as="geometry" />
        </mxCell>
        <mxCell id="O1OOal9oUfB2STQtyPn--60" value="reader2" style="rounded=1;whiteSpace=wrap;html=1;strokeWidth=2;" parent="1" vertex="1">
          <mxGeometry x="640" y="303" width="50" height="26" as="geometry" />
        </mxCell>
        <mxCell id="O1OOal9oUfB2STQtyPn--61" value="reader3" style="rounded=1;whiteSpace=wrap;html=1;strokeWidth=2;" parent="1" vertex="1">
          <mxGeometry x="640" y="361" width="50" height="26" as="geometry" />
        </mxCell>
        <mxCell id="O1OOal9oUfB2STQtyPn--63" value="writer" style="rounded=1;whiteSpace=wrap;html=1;strokeWidth=2;" parent="1" vertex="1">
          <mxGeometry x="773" y="361" width="50" height="26" as="geometry" />
        </mxCell>
        <mxCell id="O1OOal9oUfB2STQtyPn--90" value="" style="shape=table;startSize=0;container=1;collapsible=1;childLayout=tableLayout;fixedRows=1;rowLines=1;fontStyle=0;align=center;resizeLast=1;collapsible=0;whiteSpace=wrap;html=1;fillColor=#b0e3e6;strokeColor=#0e8088;strokeWidth=2;" parent="1" vertex="1">
          <mxGeometry x="92" y="517" width="180" height="60" as="geometry" />
        </mxCell>
        <mxCell id="O1OOal9oUfB2STQtyPn--91" value="" style="shape=tableRow;horizontal=0;startSize=0;swimlaneHead=0;swimlaneBody=0;collapsible=0;dropTarget=0;points=[[0,0.5],[1,0.5]];portConstraint=eastwest;top=0;left=0;right=0;bottom=0;fillColor=#b0e3e6;strokeColor=#0e8088;strokeWidth=2;" parent="O1OOal9oUfB2STQtyPn--90" vertex="1">
          <mxGeometry width="180" height="30" as="geometry" />
        </mxCell>
        <mxCell id="O1OOal9oUfB2STQtyPn--92" value="key1" style="shape=partialRectangle;connectable=0;top=1;left=1;bottom=1;right=1;editable=1;overflow=hidden;fillColor=#b0e3e6;strokeColor=#0e8088;strokeWidth=2;" parent="O1OOal9oUfB2STQtyPn--91" vertex="1">
          <mxGeometry width="30" height="30" as="geometry">
            <mxRectangle width="30" height="30" as="alternateBounds" />
          </mxGeometry>
        </mxCell>
        <mxCell id="O1OOal9oUfB2STQtyPn--93" value="CommandPos1" style="shape=partialRectangle;connectable=0;top=1;left=1;bottom=1;right=1;align=left;spacingLeft=6;overflow=hidden;fillColor=#d0cee2;strokeColor=#56517e;strokeWidth=2;" parent="O1OOal9oUfB2STQtyPn--91" vertex="1">
          <mxGeometry x="30" width="150" height="30" as="geometry">
            <mxRectangle width="150" height="30" as="alternateBounds" />
          </mxGeometry>
        </mxCell>
        <mxCell id="O1OOal9oUfB2STQtyPn--94" value="" style="shape=tableRow;horizontal=0;startSize=0;swimlaneHead=0;swimlaneBody=0;collapsible=0;dropTarget=0;points=[[0,0.5],[1,0.5]];portConstraint=eastwest;top=0;left=0;right=0;bottom=0;fillColor=#b0e3e6;strokeColor=#0e8088;strokeWidth=2;" parent="O1OOal9oUfB2STQtyPn--90" vertex="1">
          <mxGeometry y="30" width="180" height="30" as="geometry" />
        </mxCell>
        <mxCell id="O1OOal9oUfB2STQtyPn--95" value="key2" style="shape=partialRectangle;connectable=0;top=1;left=1;bottom=1;right=1;editable=1;overflow=hidden;fillColor=#b0e3e6;strokeColor=#0e8088;strokeWidth=2;" parent="O1OOal9oUfB2STQtyPn--94" vertex="1">
          <mxGeometry width="30" height="30" as="geometry">
            <mxRectangle width="30" height="30" as="alternateBounds" />
          </mxGeometry>
        </mxCell>
        <mxCell id="O1OOal9oUfB2STQtyPn--96" value="CommandPos2" style="shape=partialRectangle;connectable=0;top=1;left=1;bottom=1;right=1;align=left;spacingLeft=6;overflow=hidden;fillColor=#d0cee2;strokeColor=#56517e;strokeWidth=2;" parent="O1OOal9oUfB2STQtyPn--94" vertex="1">
          <mxGeometry x="30" width="150" height="30" as="geometry">
            <mxRectangle width="150" height="30" as="alternateBounds" />
          </mxGeometry>
        </mxCell>
        <mxCell id="O1OOal9oUfB2STQtyPn--98" value="" style="endArrow=none;dashed=1;html=1;dashPattern=1 3;strokeWidth=2;rounded=0;exitX=1.019;exitY=0.067;exitDx=0;exitDy=0;exitPerimeter=0;entryX=0.093;entryY=0.01;entryDx=0;entryDy=0;entryPerimeter=0;" parent="1" source="O1OOal9oUfB2STQtyPn--91" target="O1OOal9oUfB2STQtyPn--101" edge="1">
          <mxGeometry width="50" height="50" relative="1" as="geometry">
            <mxPoint x="264.5" y="548" as="sourcePoint" />
            <mxPoint x="328" y="516" as="targetPoint" />
          </mxGeometry>
        </mxCell>
        <mxCell id="O1OOal9oUfB2STQtyPn--101" value="" style="rounded=1;whiteSpace=wrap;html=1;fillColor=#d0cee2;strokeColor=#56517e;strokeWidth=2;" parent="1" vertex="1">
          <mxGeometry x="330" y="508" width="79" height="128" as="geometry" />
        </mxCell>
        <mxCell id="O1OOal9oUfB2STQtyPn--105" style="edgeStyle=orthogonalEdgeStyle;rounded=0;orthogonalLoop=1;jettySize=auto;html=1;entryX=0;entryY=0.5;entryDx=0;entryDy=0;dashed=1;strokeColor=#7EA6E0;strokeWidth=2;" parent="1" source="O1OOal9oUfB2STQtyPn--102" target="O1OOal9oUfB2STQtyPn--53" edge="1">
          <mxGeometry relative="1" as="geometry">
            <mxPoint x="437" y="449" as="targetPoint" />
            <Array as="points">
              <mxPoint x="370" y="429" />
              <mxPoint x="273" y="429" />
              <mxPoint x="273" y="273" />
            </Array>
          </mxGeometry>
        </mxCell>
        <mxCell id="O1OOal9oUfB2STQtyPn--102" value="gen" style="rounded=1;whiteSpace=wrap;html=1;strokeWidth=2;" parent="1" vertex="1">
          <mxGeometry x="342" y="521" width="55" height="34" as="geometry" />
        </mxCell>
        <mxCell id="O1OOal9oUfB2STQtyPn--103" value="pos" style="rounded=1;whiteSpace=wrap;html=1;strokeWidth=2;" parent="1" vertex="1">
          <mxGeometry x="342" y="555" width="55" height="34" as="geometry" />
        </mxCell>
        <mxCell id="O1OOal9oUfB2STQtyPn--104" value="len" style="rounded=1;whiteSpace=wrap;html=1;strokeWidth=2;" parent="1" vertex="1">
          <mxGeometry x="342" y="589" width="55" height="34" as="geometry" />
        </mxCell>
        <mxCell id="O1OOal9oUfB2STQtyPn--109" value="" style="edgeStyle=orthogonalEdgeStyle;rounded=0;orthogonalLoop=1;jettySize=auto;html=1;exitX=1;exitY=0.5;exitDx=0;exitDy=0;strokeColor=#7EA6E0;dashed=1;strokeWidth=2;endArrow=none;" parent="1" source="O1OOal9oUfB2STQtyPn--29" target="O1OOal9oUfB2STQtyPn--108" edge="1">
          <mxGeometry relative="1" as="geometry">
            <mxPoint x="361" y="239" as="sourcePoint" />
            <mxPoint x="640" y="260" as="targetPoint" />
            <Array as="points" />
          </mxGeometry>
        </mxCell>
        <mxCell id="O1OOal9oUfB2STQtyPn--108" value="Hi, reader1. &lt;br&gt;I have (pos, len), &lt;br&gt;read the value" style="ellipse;shape=cloud;whiteSpace=wrap;html=1;labelBackgroundColor=default;endArrow=classic;fontSize=11;rounded=0;strokeColor=#7EA6E0;dashed=1;strokeWidth=2;" parent="1" vertex="1">
          <mxGeometry x="421" y="177" width="138" height="76" as="geometry" />
        </mxCell>
        <mxCell id="O1OOal9oUfB2STQtyPn--110" style="edgeStyle=orthogonalEdgeStyle;rounded=0;orthogonalLoop=1;jettySize=auto;html=1;strokeColor=#7EA6E0;dashed=1;strokeWidth=2;startArrow=none;entryX=1;entryY=0.5;entryDx=0;entryDy=0;exitX=0.25;exitY=1;exitDx=0;exitDy=0;" parent="1" source="O1OOal9oUfB2STQtyPn--58" target="O1OOal9oUfB2STQtyPn--101" edge="1">
          <mxGeometry relative="1" as="geometry">
            <mxPoint x="481" y="569" as="sourcePoint" />
            <mxPoint x="650" y="270" as="targetPoint" />
            <Array as="points">
              <mxPoint x="653" y="288" />
              <mxPoint x="609" y="288" />
              <mxPoint x="609" y="572" />
            </Array>
          </mxGeometry>
        </mxCell>
        <mxCell id="O1OOal9oUfB2STQtyPn--112" value="This is the &lt;br&gt;value for key1" style="ellipse;shape=cloud;whiteSpace=wrap;html=1;labelBackgroundColor=default;endArrow=classic;fontSize=11;rounded=0;strokeColor=#7EA6E0;dashed=1;strokeWidth=2;" parent="1" vertex="1">
          <mxGeometry x="452" y="537" width="138" height="76" as="geometry" />
        </mxCell>
        <mxCell id="O1OOal9oUfB2STQtyPn--113" value="" style="endArrow=none;dashed=1;html=1;dashPattern=1 3;strokeWidth=2;rounded=0;exitX=0.006;exitY=-0.233;exitDx=0;exitDy=0;exitPerimeter=0;" parent="1" source="O1OOal9oUfB2STQtyPn--91" edge="1">
          <mxGeometry width="50" height="50" relative="1" as="geometry">
            <mxPoint x="54" y="463" as="sourcePoint" />
            <mxPoint x="111" y="420" as="targetPoint" />
          </mxGeometry>
        </mxCell>
        <mxCell id="O1OOal9oUfB2STQtyPn--114" value="" style="endArrow=none;dashed=1;html=1;dashPattern=1 3;strokeWidth=2;rounded=0;exitX=0.996;exitY=-0.133;exitDx=0;exitDy=0;exitPerimeter=0;entryX=1;entryY=1;entryDx=0;entryDy=0;" parent="1" source="O1OOal9oUfB2STQtyPn--91" target="O1OOal9oUfB2STQtyPn--9" edge="1">
          <mxGeometry width="50" height="50" relative="1" as="geometry">
            <mxPoint x="99" y="521" as="sourcePoint" />
            <mxPoint x="127.5" y="441" as="targetPoint" />
          </mxGeometry>
        </mxCell>
        <mxCell id="O1OOal9oUfB2STQtyPn--115" value="" style="endArrow=none;dashed=1;html=1;dashPattern=1 3;strokeWidth=2;rounded=0;entryX=0.051;entryY=0.948;entryDx=0;entryDy=0;entryPerimeter=0;" parent="1" target="O1OOal9oUfB2STQtyPn--101" edge="1">
          <mxGeometry width="50" height="50" relative="1" as="geometry">
            <mxPoint x="272" y="546" as="sourcePoint" />
            <mxPoint x="340" y="518" as="targetPoint" />
          </mxGeometry>
        </mxCell>
        <mxCell id="O1OOal9oUfB2STQtyPn--117" value="compacted" style="rounded=1;whiteSpace=wrap;html=1;strokeWidth=2;" parent="1" vertex="1">
          <mxGeometry x="112" y="348" width="121" height="38" as="geometry" />
        </mxCell>
      </root>
    </mxGraphModel>
  </diagram>
  <diagram id="fWI3yJWULBrDUySu_E3n" name="Page-2">
    <mxGraphModel dx="1500" dy="819" grid="1" gridSize="10" guides="1" tooltips="1" connect="1" arrows="1" fold="1" page="1" pageScale="1" pageWidth="850" pageHeight="1100" math="0" shadow="0">
      <root>
        <mxCell id="0" />
        <mxCell id="1" parent="0" />
        <mxCell id="gQ4Pl1D-QI35R4eoKrXc-1" value="" style="rounded=1;whiteSpace=wrap;html=1;strokeWidth=2;fillColor=#f4f1de;strokeColor=none;fontFamily=Courier New;fontColor=#FFFFFF;shadow=0;glass=0;comic=0;gradientColor=none;" vertex="1" parent="1">
          <mxGeometry x="160" y="110" width="570" height="410" as="geometry" />
        </mxCell>
        <mxCell id="gQ4Pl1D-QI35R4eoKrXc-17" value="" style="rounded=1;whiteSpace=wrap;html=1;strokeWidth=2;fontFamily=Courier New;fillColor=#77aac2;strokeColor=none;fontColor=#FFFFFF;shadow=1;glass=0;comic=0;gradientColor=none;fontStyle=1;" vertex="1" parent="1">
          <mxGeometry x="180" y="180" width="360" height="290" as="geometry" />
        </mxCell>
        <mxCell id="gQ4Pl1D-QI35R4eoKrXc-2" value="bucket3" style="rounded=1;whiteSpace=wrap;html=1;strokeWidth=2;fontFamily=Courier New;fillColor=#81b29a;strokeColor=none;fontColor=#FFFFFF;shadow=1;glass=0;comic=0;gradientColor=none;fontStyle=1;" vertex="1" parent="1">
          <mxGeometry x="300" y="240" width="120" height="50" as="geometry" />
        </mxCell>
        <mxCell id="gQ4Pl1D-QI35R4eoKrXc-3" value="bucket2" style="rounded=1;whiteSpace=wrap;html=1;strokeWidth=2;fontFamily=Courier New;fillColor=#81b29a;strokeColor=none;fontColor=#FFFFFF;shadow=1;glass=0;comic=0;gradientColor=none;fontStyle=1;" vertex="1" parent="1">
          <mxGeometry x="300" y="290" width="120" height="50" as="geometry" />
        </mxCell>
        <mxCell id="gQ4Pl1D-QI35R4eoKrXc-4" value="bucket1" style="rounded=1;whiteSpace=wrap;html=1;strokeWidth=2;fontFamily=Courier New;fillColor=#81b29a;strokeColor=none;fontColor=#FFFFFF;shadow=1;glass=0;comic=0;gradientColor=none;fontStyle=1;" vertex="1" parent="1">
          <mxGeometry x="300" y="340" width="120" height="50" as="geometry" />
        </mxCell>
        <mxCell id="gQ4Pl1D-QI35R4eoKrXc-5" value="bucket0" style="rounded=1;whiteSpace=wrap;html=1;strokeWidth=2;fontFamily=Courier New;fillColor=#81b29a;strokeColor=none;fontColor=#FFFFFF;shadow=1;glass=0;comic=0;gradientColor=none;fontStyle=1;" vertex="1" parent="1">
          <mxGeometry x="300" y="390" width="120" height="50" as="geometry" />
        </mxCell>
        <mxCell id="gQ4Pl1D-QI35R4eoKrXc-6" value="" style="endArrow=none;html=1;rounded=0;entryX=1;entryY=1;entryDx=0;entryDy=0;strokeWidth=3;" edge="1" parent="1">
          <mxGeometry width="50" height="50" relative="1" as="geometry">
            <mxPoint x="191" y="441" as="sourcePoint" />
            <mxPoint x="420" y="441" as="targetPoint" />
          </mxGeometry>
        </mxCell>
        <mxCell id="gQ4Pl1D-QI35R4eoKrXc-7" value="" style="endArrow=none;html=1;rounded=0;entryX=1;entryY=0;entryDx=0;entryDy=0;strokeWidth=3;" edge="1" parent="1" target="gQ4Pl1D-QI35R4eoKrXc-2">
          <mxGeometry width="50" height="50" relative="1" as="geometry">
            <mxPoint x="190" y="240" as="sourcePoint" />
            <mxPoint x="300" y="240" as="targetPoint" />
          </mxGeometry>
        </mxCell>
        <mxCell id="gQ4Pl1D-QI35R4eoKrXc-8" value="peak bandwidth" style="text;html=1;align=center;verticalAlign=middle;resizable=0;points=[];autosize=1;strokeColor=none;fillColor=none;strokeWidth=2;fontFamily=Courier New;fontColor=#FFFFFF;rounded=1;shadow=0;glass=0;comic=0;fontSize=15;" vertex="1" parent="1">
          <mxGeometry x="240" y="210" width="150" height="30" as="geometry" />
        </mxCell>
        <mxCell id="gQ4Pl1D-QI35R4eoKrXc-10" value="&lt;font style=&quot;font-size: 16px;&quot;&gt;0&lt;/font&gt;" style="text;html=1;align=center;verticalAlign=middle;resizable=0;points=[];autosize=1;strokeColor=none;fillColor=none;strokeWidth=2;fontFamily=Courier New;fontColor=#FFFFFF;rounded=1;shadow=0;glass=0;comic=0;" vertex="1" parent="1">
          <mxGeometry x="290" y="442" width="30" height="30" as="geometry" />
        </mxCell>
        <mxCell id="gQ4Pl1D-QI35R4eoKrXc-15" style="edgeStyle=orthogonalEdgeStyle;rounded=1;orthogonalLoop=1;jettySize=auto;html=1;exitX=0.5;exitY=0;exitDx=0;exitDy=0;strokeColor=#696773;strokeWidth=2;dashed=1;" edge="1" parent="1" source="gQ4Pl1D-QI35R4eoKrXc-11" target="gQ4Pl1D-QI35R4eoKrXc-14">
          <mxGeometry relative="1" as="geometry" />
        </mxCell>
        <mxCell id="gQ4Pl1D-QI35R4eoKrXc-11" value="&lt;font style=&quot;font-size: 20px;&quot;&gt;&lt;b&gt;SPP&lt;/b&gt;&lt;/font&gt;" style="rounded=1;whiteSpace=wrap;html=1;strokeWidth=2;fillColor=#696773;strokeColor=none;fontFamily=Courier New;fontColor=#FFFFFF;shadow=1;glass=0;comic=0;gradientColor=none;" vertex="1" parent="1">
          <mxGeometry x="870" y="366" width="160" height="90" as="geometry" />
        </mxCell>
        <mxCell id="gQ4Pl1D-QI35R4eoKrXc-13" value="&lt;font style=&quot;font-size: 20px;&quot; color=&quot;#000000&quot;&gt;current BW bucket&lt;/font&gt;" style="text;html=1;align=center;verticalAlign=middle;resizable=0;points=[];autosize=1;strokeColor=none;fillColor=none;fontFamily=Courier New;fontColor=#FFFFFF;rounded=1;shadow=0;glass=0;comic=0;" vertex="1" parent="1">
          <mxGeometry x="585" y="415" width="230" height="40" as="geometry" />
        </mxCell>
        <mxCell id="gQ4Pl1D-QI35R4eoKrXc-14" value="&lt;font style=&quot;font-size: 20px;&quot;&gt;Lookahead Confidence&lt;/font&gt;" style="rounded=1;whiteSpace=wrap;html=1;fontFamily=Courier New;fillColor=#e07a5f;strokeColor=none;fontColor=#FFFFFF;shadow=1;glass=0;comic=0;gradientColor=none;fontStyle=1;" vertex="1" parent="1">
          <mxGeometry x="870" y="240" width="160" height="70" as="geometry" />
        </mxCell>
        <mxCell id="gQ4Pl1D-QI35R4eoKrXc-16" value="adjust" style="text;html=1;align=center;verticalAlign=middle;resizable=0;points=[];autosize=1;strokeColor=none;fillColor=none;" vertex="1" parent="1">
          <mxGeometry x="460" y="665" width="60" height="30" as="geometry" />
        </mxCell>
        <mxCell id="gQ4Pl1D-QI35R4eoKrXc-18" value="&lt;font style=&quot;font-size: 20px;&quot;&gt;&lt;b&gt;measure &lt;br&gt;bandwidth&lt;/b&gt;&lt;/font&gt;" style="text;html=1;align=center;verticalAlign=middle;resizable=0;points=[];autosize=1;strokeColor=none;fillColor=none;fontFamily=Courier New;fontColor=#FFFFFF;rounded=1;shadow=0;glass=0;comic=0;" vertex="1" parent="1">
          <mxGeometry x="417" y="195" width="130" height="60" as="geometry" />
        </mxCell>
        <mxCell id="gQ4Pl1D-QI35R4eoKrXc-19" value="" style="shape=image;verticalLabelPosition=bottom;labelBackgroundColor=default;verticalAlign=top;aspect=fixed;imageAspect=0;image=data:image/png,iVBORw0KGgoAAAANSUhEUgAAAgAAAAIACAYAAAD0eNT6AAAABHNCSVQICAgIfAhkiAAAAAlwSFlzAAAOxAAADsQBlSsOGwAAABl0RVh0U29mdHdhcmUAd3d3Lmlua3NjYXBlLm9yZ5vuPBoAACAASURBVHic7N13fBR1/sfx124SIIQAAUIJvXcEEQWkY6EonbODep69nOeBnv7sZwH7qYcVFTyxUxQRpSlIld5bQoBQEkpISE92f38MQZCQOrOzu/N+Ph7z4B7Jznc+Zm/3+57vfOc7LqwTAfQALgRaAq2AaCDq1O/KWXjsYJANpAHHgURgG7AD+B34DUi3rzQRkaDTFRgFXAbEAFUwvnu3Aj8A04DDtlUXAGoBDwKLMTowrzZLtizgF+B+jFAlIiKl0xKYQ9HfuyeBZ9HJ6zl6AbOAHOzvHJ22ZQMzgEuLfJdERORMg4BkSvaduwTjZNfx+gC/Yn8nqM3YFmJcdhERkcKNovQnrTuAur4v2T/UBqYAHuzv9LSdvXlOvTdKqCIiBStL5+/oEDAKY2Ka3R2dtsK3o8DQ87yHIiJOZUbn77gQUB54G/s7Nm3F3zzAa0BYAe+niIjTmNn5OyYEVALmYn+Hpq102zwg8px3VUTEOazo/PO3oA0B0Rj3ntvdiWkr27YCqI6IiPNY2fnnb0EXAiJR5x9M20qM0RwREafwReefvwVNCCgPzMf+TkubudscNCdARJzBl51//hYUIUAT/oJ3exkRkeBmR+efvwV0CBiF/Z2UNus2DzAMEZHgZGfnn78FZAiog+7zd8J2BD1HQESCjz90/vlbwIWA/2H/H02bb7YPEREJHv7U+edvARMC+mD/H0ub7zYP0B0RkcDnj51//hYQIUAP9nHe9jMiIoHNnzv//M2vQ0Av7P8DabNn06OERSRQBULnn7/5bQiYhf1/HG32bN8gIhJ4Aqnzz9/8LgTUBLKx/w+jzZ4tC6iBiEjgCMTOP3/zixAQeurfG7BwdbhyYW6G9WnMsD6NubB1NPVqRhARrsXoCpOWkcP+xDTWbE1ixqI4ZiyKIzvHY9XhygF/Af5r1QFEREw0CpjGH31YoGkOLAT6Agl2FeE69e9ioIcVBxjRrwkv/b0bTepWtqJ5x9i9P4Vxry9l+sI4qw4xH7jMqsZFRExyJfA9gdv5n2kL0A1IsePgLiACOIZxFmgat9vFi/d1ZdyYjmY263gTP1nLv95agcfjNbvpDKAakGl2wyIiJmmK8YC6qnYXYqLvgCF2HDgE6AeMNbvhCfd3U+dvgUs71iG8fAjzVuw3u+kwYAGwx+yGRURM8gHQye4iTNYSWIMxL8Cn3EBnsxsd0a+JOn8LjR/biWF9GlvR9EVWNCoiYoJ2wHC7i7DIk3Yc1I2RPkxTLszNxAe6mdmkFOCVf3SnXJjb7GZbmN2giIhJRvLHvLVg0xlo5OuDujH5S39Yn8Y0racJf1ZrUrcyQ3qbPgpgahgUETFRL7sLsJjP//vcGE//M83wvk3MbE4KYcFlgNpmNygiYpJ6dhdgMZ+vC+AGIs1ssHNrPWHWVy5qY/rfWkM3IuKvKthdgMUq+vqAbqCSmQ3WqeHz/wbHqhsdYXaTpoZBERETHba7AIsd8vUB3Zh8/3+lilrhz1cs+FuXN7tBERGTbLa7AItt8vUBTZ9GLiIiYoHZdhdgoRPAUl8fVAFAREQCwffAXruLsMi7GA828ikFABERCQSZ2LRgjsWOARPtOLACgIiIBIqPgall2H8nsNycUk77DMgt5b55wPXAUfPKKT4FABERCSS3AzNLsd9qoA9w0NRq4GtgNHCyhPtlA7cBc02up9gUAEREJJBkAiOAx4H0Yrw+D+Mae0/ggEU1zQAuBdYV8/U7MB7E97FF9RSLAoCIiAQaD/BvoDnG9fPtBbxmP0bH3x64E+OR51bagLGm/7XADwUcLxuYB/wVaAv8ZnE9RQq1uwAREZFSOgA8fGqrjrG0vRtIxIaFdTCCyRentvKn6qkOJAMJGKMXfkMBQEREgsFRbJpMdx5ZwJ5Tm1/SJQAREREHUgAQERFxIAUAERERB1IAEBERcSAFABEREQdSABAREXEgBQAREREHUgAQERFxIAUAERERB1IAEBERcSAFABEREQdSABAREXEgBQAREREHUgAQERFxIAUAERF71QEeAuYB+4FsjOfZrwVeAi62rzQJZqF2FyAi4lAVgCeB+4GKf/pd9KmtI/BPYDbwd2CXLwuU4KYRABER36sDLAIe4dzOvyCDgZXAlRbWJA6jACAi4lv1gcXAJSXcLwpjJOA60ysSR1IAEBHxnfrAQqBpKfcPAaaiECAmUAAQEfGNsnb++RQCxBQKACIi1jOr88+nECBlprsAfGh7fDK/b0ki8Vg62Tkeu8sREd8wu/PPlx8CAKaZ3LY4gAKAxfI8Xj6atY1XP13P1rjjdpcjIr5lVeefTyFASk0BwEJxCSmMGDeXdduP2F2KiPie1Z1/PoUAKRUFAIts2HmU/nfO4khypt2liIjv+arzz6cQICWmSYAWSDqewZAH56jzF3EmX3f++TQxUEpEAcAC499YTvzBVLvLEBHfs6vzz6cQIMWmAGCy7fHJTJ293e4yRMT37O788ykESLEoAJhs2o87yfN47S5DRHzLXzr/fAoBUiQFAJP9tHyf3SWIiG/5W+efTyFACqUAYLK4BF37F3EQf+388ykEyHkpAJjsWIpm/os4hL93/vkUAqRACgAmq16lgt0liIj1AqXzz6cQIOdQADBZo5hIu0sQEWsFWuefTyFAzqIAYLIB3RvYXYKIWCdQO/98CgFymgKAya65ohkhbpfdZYiI+aKAnwnczj9fCPAJ0N/uQsReCgAma9mwKmOvbml3GSJiLhfGGvvB8uEOA74AGtpdiNhHAcACL97XVXMBRILLKOBKu4swWXXgBbuLEPsoAFggOiqcWa8NJDoq3O5SRMQcj9tdgEWuIXhGNaSEFAAs0r5ZdVZOGcmFraLtLkVEyqYp0N7uIiziBobZXYTYQwHAQo1iIlk5dSSTn+xL26bV7C5HREqnn90FWKy33QWIPULtLiDYhbhd3DKkFbcMacWufSdYtTmRQ0fTOXwsw5T2J3y81pR2ROS86tpdgMXq2V2A2EMBwIea1a9Cs/pVTG1TAUDEcsE+maei3QWIPXQJQESkcIftLsBiB+0uQOyhACAiUrhNdhdgsc12FyD2UAAQESncL0AwP+d7tt0FiD0UAERECpcFfGR3ERbZA8y1uwixhwKAiEjRngNO2F2EBR4Dsu0uQuyhACAiUrRE4EbAU8r9c4DPzCsHgKXA7jLsPxnza5IAogAgIlI83wN3YHTmJZEKjARmmFxPAtAHWFeKfb8B7ja1Ggk4CgAiIsX3AXA5sKuYr18DdAO+s6ie/cClwIcUb3QiDfgXMBpjboM4mAKAiEjJ/AK0AW4HFnDuiEA6xmjBaOAirL/NLh24DbgAeB84UMBrtgAvAs1O/eu1uCYJAFoJUESk5HIwOtv3MVYKrAtUAY5gLKxjx8S6TRihxAXUOrXlnqrnmA31iJ9TABARKZsMin9JwBe8wKFTm8h56RKAiIiIAykAiIiIOJACgIiIiAMpAIiIiDiQAoCIiIgDKQCIiIg4kAKAiIiIAykAiIiIOJACgIiIiAMpAIiIiDiQAoCIiIgDKQCIiIg4kAKAiIiIAykAiIiIOJACgIiIiAMpAIiIiDiQAoCIiIgDKQCIiIg4kAKAiIiIAykAiIiIOJACgIiIiAMpAIiIiDiQAoCIiIgDKQCIiIg4kAKAiIiIAykAiIiIOJACgIiIiAMpAIiIiDiQAoCIiIgDhdpdgB2yczxMXxjLzF/2sGZrEvsT00jLyLG7LBEREZ9xXAD4Zn4s499YRmxCit2liIiI2MYxASDP4+XhN5bxyqfr7S5FRETEdo6ZA6DOX0RE5A+OCADfzI9V5y8iInKGoA8A2TkeHv7PMrvLEBER8StBHwCmL4xl935N+BMREQC8ft6ezwR9AJixKM7uEkRExH8cM7m9Iya35zNBHwBWb02yuwQREfEfCX7ens8EfQA4eCTd7hJERMR/LDKxrXggYIeZgz4AiIiInGEJcNiktr4xqR1bBH0AiImOsLsEERHxH7nAcya0cxJ42YR2bBP0AaBz62i7SxAREf/yLrC6jG08ARw0oRbbBH0AGNansd0liIiIf8kGhgEHSrn/FOA188qxR9AHgOF9G9OsfhW7yxAREf+yH7gYWFXC/f4D3Gp+Ob4X9AEgLNTNhPu72l2GiIj4nwSgJ/BPil4fYCXQB3gAyLO2LN9wxNMAR/Rrwj9v6sjLU9fZXYqIiPiXLOAV4C2gH9AfqAtUwbhbYBswG9hkV4FWcUQAAJhwf1dcLnhpikKAiIicIwuYc2pzhKC/BJDP7XYx8YFuTH9lgOYEiIiI4zlmBCDfsD6NGdyjITMWxTFzURyrtyaxPzGNk+k5dpcmIiLiM44LAGBMDBx9WVNGX9bU7lLKzNV5kt0liIhIAHLMJQARERH5gwKAiIiIAykAiIiIOJACgIiIiAMpAIiIiDiQAoCIiIgDKQCIiIg4kAKAiIiIAykAiIiIOJACgIiIiAMpAIiIiDiQAoCIiIgDKQCIiIg4kAKAiIiIAykAiIiIOJACgIiIiAMpAIiIiDiQAoCIiIgDKQCIiIg4kAKAiIiIAykAiIiIOJACgIiIiAMpAIiIiDiQAoCIiIgDKQCIiIg4kAKAiIiIAykAiIiIOJACgIiIiAMpAIiIiDiQAoCIiIgDKQCIiIg4kAKAiIiIAykAiIiIOJACgIiIiAMpAIiIiDiQAoCIiIgDKQCIiIg4kAKAiIiIAykAiIiIOJACgIiIb3j9vD1xmFC7C3CS7fHJ/L4licRj6WTneOwuR0R866jJ7R0xuT1xGAUAi+V5vHw0axuvfrqerXHH7S5HROxzwOT2EkxuTxxGAcBCcQkpjBg3l3XbFdRFhB3AfqCeSe0tNKkdcSjNAbDIhp1HuXjMN+r8RSSfF5hhUlsJwAqT2hKHUgCwQNLxDIY8OIcjyZl2lyIi/uVFIN2Edp4BNJFIykQBwALj31hO/MFUu8sQEf+TADxbxjaWA5NNqEUcTgHAZNvjk5k6e7vdZYiI/5oATCvlvvuAEUCueeWIUykAmGzajzvJ8+j2XBE5Ly9wE0YQKIm1QA/goOkViSMpAJjsp+X77C5BRPxfHvAI0B/4vYjXHgH+DnQF9lpclziIbgM0WVyCrv2LSLEtALoAHYBBQCugFpCMccvgPIzb/bLtKlCClwKAyY6laOa/iJTYhlObiM/oEoDJqlepYHcJIiIiRVIAMFmjmEi7SxARESmSAoDJBnRvYHcJIiIiRVIAMNk1VzQjxO2yuwwREZFCKQCYrGXDqoy9uqXdZYiIiBRKAcACL97XVXMBRETErykAWCA6KpxZrw0kOirc7lJEREQKpABgkfbNqrNyykgubBVtdykiIiLnUACwUKOYSFZOHcnkJ/vStmk1u8sRERE5zYXxYArTeFffZWZzQWXXvhOs2pzIoaPpHD6WYUqbEz5ea0o7p+Sh1SFFRBxBASDAuTpPMrM5BQAREYfQJQAREREHUgAQERFxIAUAERERB1IAEBERcSAFABEREQdyAyfNaqxyRDmzmhIRERELuYEDZjUWE13RrKZERETEQm5gtVmNXdSmpllNiYiIiIXcwAyzGhvau5FZTYmIiIiF3MB0YFdZG2pStzJDejcue0UiIiJiOTeQAzxc1oZe/Ud3yoXppgIREZFAkN9jfwu8XNpGHr65E0P76OxfREQkUJx5yv4w8FJJGxg/thPP33OJeRWJiIiI5c588psHGA8sxQgCzQrbsVn9Krz892468xcREQlABT36dQYwGxgGDAU6A/UqVQyrVK9mBJ1bRzOsT2OG9mlMWKiu+YuIiAQiV3Ff6F19l9fKQqR0XJ0nmdlcHgWHQhERCTI6hRcREXEgBQAREREH0nCvSMk0B1oBtYAsYD+wChMfqiXFEgl0AeoC5YDDwBYg1s6iHMgFdAQaAdHACWAv8DvGGjPiO3WB9kA9jEn9icBy4Mj5dlAAEClaOeBu4DagbQG/zwDmAs9hfPGJdboCjwKXAxUK+P0G4H3gXdQBWSkK49bxGzA6nD87hrHK7LNAvA/rchoX8BfgPqA7587r82KEgInALIxgcNbOxaJJgP5JkwAt1xmYhnHmXxQv8CFwL8bogJinAjAJGEvxvre2AdcC660syqFGAe8A1Yvx2gzgSUqxxowUKQb4HOhZzNfPA27EGC0DNAdApDADgEUUr/MHo2O6DWM0oKpFNTlRFPAzcDPFP2lpBfyKMVIg5nkQ+ILidf4A4Rhnn+8BIVYV5UCtMNbsKW7nD3AZxghlo/wfKACIFGwQxpoYlUqxb2/gR6CyqRU5U1WMzr9HKfatjDHsqRBgjvHAq5Su3/gbMLmU+8rZWgILgYal2Lce8ANQBfRmiBTkCuAboHwZ2rgEY0Gt0gQIMVTGCFKdy9BGBYwg18eMghzsQWBCGdsYgzE3o9iXnuUczYEFQO0ytNEaeAoUAET+bCgwk4InmJVUD+AnoJoJbTlNNDAfI0iVVUWMMDbIhLac6DGMM38z3AZ8jOYalUZ74BeMa/9ldQ/QUAFA5A9jga8xp/PP1w3jQ1vHxDaDXX2M6/cXmdhmRYyRgOtMbDPYuYBXgH+b3O4YjBE2Mz9nwc7s75Ew4FoFABHji+5p4COsOTNpB6zAuF9aCtcF47alVha0HQb8D+M2Qg1DF64ixmS/f1jU/hCM69hlGcp2imswRsOiTG53gAKAOF0E8CXwBNZ2CvWBJcAIC48R6K7FvCHO83FhrNcwFWOGupyrHsYIzGiLj9MVWAl0svg4gcqNcWIyDWv+v9pcAUCcrA3GF9AoHx0vAuMSw8sYZ6NiKA/8B+u+6ApyA8ZIQ0sfHS9QDADWULaJlyVRH/gNuN1HxwsUNTDmrVh5YhKlACBO9VeMzr+Nj4/rAh7COMNq4uNj+6MWGCMj99lw7A4YyziPseHY/qYc8AJGpxPt42OHY9wd8BlaPwOMO1bWYoQxK6UoAIjT1MX4kvsA44zcLl0xlq29B2dej3Zj3Fq2DnMn+5VUJPAJxgRBp16P7oQRhB7B3jvDrgM2Yn3H568iMEbCFlDw8spm26UAIE4RgrGe/yb853awCOAtjMlQ7WyuxZc6Ypz1v4r/XIcfivH/jb/hnNujI4AXMSaodrC5lnz5C9V8gvHALacYjHFCcB++OyFY5JT/o4uz9cAY7n8b/xxi7I1x3fUVzJ/p60+qY5zh/I5xW5O/qY6xZO0yzFl/wF+5MGaWb8N4oI+/zUdxYVyW2Qbcj3F5Ilg1wxh9+h7fXhLMA6YqAEgw64axLv9i4EKbaylKGMYtV3EYM3+DKQhUx5h5H4dxhuPva8JfjDFBcDbGbYnBwoVxF8o6jIfI+GKYuSyqAm8AO4E7CK4g0BTjtuOtGKNPvvYlsEMBQM4UgjH81tvuQsqoG8YSsksxlvUNJFUwZv7mBwF/HLEorjM7/kcxrrcHkkEYI0ffE9hBwAUMx5hY9g3+M9xfXA0wnj64g8APAk0wnomwDePhVnasiJgAPAB6HHDAM/lxwGdahjFcO53AeLRtCMZ1tHsJroe/nMCYIf0esNvmWoqrOcYX9e0EXqdfmDkYczZ+5E/PVfdTFTHWVrgfuMDmWswUD7yJsaTwUXtLKbauGHOQrsXeSy5pGN+Py0ABIOBZGADyHcGYkDMFY5KKv2kJXA/cgnFPcbDyYDwVbwrGswrS7C3nHJEYQ5ljgf4E950NezCGbz8DdtlbyjlcGJ3N9RjPfg/kEaSiZGKsq/Epxkp5ufaWc47awF+AW/GPAJYOXIUx6RhQAAh4PggAZ9qO8YGbgTFpzY6zoFCM4djLgGH4/7V9K6QB32E86nYucMymOmpg3LI1BOOLxV9m9PvSKuBbjPkCG22qIRS4FOOSxWigsU112CkR4334HuM2ugyb6miE8T4MB/riP/NdMjE+pz+f+UMFgADn4wBwpqMYqXshxm1Em4AcC47jwlgXvj9Gp9+HU8+yFsCYzbsSYwndxRjzHpItOlY1oDvQE2OeyEX4zxecP9iL8Xn4FeM2x52AFd+bYRjX8XsCvTA6mmA+0y+pDIz3YPGpf3/HukBQD+Muo54Y70Nri45TFmkYkz9/+vMvFAACnI0B4M8yMS4RbMGYrLMT2A8cxEjnhX0Ay2OcTdbESNBNMG6P6YDxCMxguo7sC3uA9RjvReypLQEjtB0pZD8XxsS9GhhfbI0x3ou2GEOYDSyrODilYIwKbMC4VBCL8d4kYrwXhc2ticB4L+rwx/vQHON9aEtgT4TztTyM76QNGLPu4zDei4NAEsb7dD6h/PGZaIjxPjTFWLej46mf+7PjGHOjlhX0y/MFgDCM4dUhGCm/fkR4WET9WhF0aVuTIb0aMbRPY8JCA/MmguwcD9MXxjLzlz2s2ZrE/sQ00jKsOHmVM6RjfOFlYyTSchhfcmFAJRvrcpo8jC88L3+MFFTF+C6ognMWwfEHqRjXrdMwPhcVMcJwBZx5OcUu+d9JuRjvSQhQGeMzEcgjKweBKynk0lRBAWA4MBHjDOy8mjeowsQHujGsT2Bdbvpmfizj31hGbEJhoU9ERCRgrcOYlLu3sBedef3OjbEs5H8wrvUV6tiJLL74aRcZWXn071IXl8u/J/3mebyMf30ZD77yG8dTA+GuNvFXLpeLy0bfS052JinHDttdjqM1aNGRi/qOZM/W3+0uxdHKlQ9n8JhHOLh3O1kZ/naDirN07jOCg3u2NqPwy33A2QFgAjC+pAf7bf0hMrPzuPwS/15Uavzry3jl0/V2lyEBLiIyirv+/TlXXvsgPQbfTPKRA+zdsc7ushyp95DbuPeFr7mw11AaNL+AjSvmkpOdaXdZjlOrfnPGvTGXrldcR7crbyBu6yqOHoq3uyzHcbndDL31ccaM/y8zP3z6sWLtc+rf4Ri3UJTa9FcG+O3lgG/mxzJq/Fy7y5AA17hNF+557ktq1Gl01s+XzP6YKS/dQ3Zmuj2FOUz58AjGjp9E94E3nfXzpIRY3np0NPHb19hUmfN06T+aWx/9gPCIyqd/lpeXy7fvPs4PUyfg9WruuC9UjqrJ7U9Npd0lxsKnN3ct3pC8C2MS1haKuOZflOYNqrD5q2v9bmJgdo6H1iOn6Zq/lMllo+/l2vtfJjSsfIG/3797I289OppD8dt9XJmzxDRqzb0vfE1M4zYF/j4nO5PPXn+Qhd++4+PKnCU0rBzX3v8yl42+77yvWf/bbN57egxpKXYtU+EMrTr15s5nP6NqjZjTPytuAHBjTBQoU+cPsHPvCWYuiitrM6abvjBWnb+UWpXqtbnvxW+48aE3z9v5A9Rr2p6nPlpF7yG3+f18mEDkcrvpO+JOnvho5Xk7f4CwchUYO34Sdz/3BZWjavqwQueo17Q9j733W6GdP8AFlw7mmSlraNvlMh9V5izlyodz7QOv8PDbC87q/EvChbGM4g1mFHTT4BZMeaa/GU2Z5rpHf+bzuf62Wqf4O5fLRbcBN3L931+jUpXqJdp3x/olfPziHRyI22JRdc5Sq35zbn7kXVp37lui/dJTk5n+/pPM+/otvJ5AWLrfv5UrH86gm8Zz1dhHCQ0r2TIEq+Z/xdSX7yXleKJF1TlL03Zdue3xj6jTsFWBvy/JJYDtQAszimrZsCrbvr3OjKZM03LENHbEW7UwmgSjmEatufmRd2nRsWep28jNyeL7T17g+09eJDdHd52URli5Clx9y2MMunF8iTucM21bs4iPX7yDQ3t3mFids7Tp0p+xD79DrXqlHyxOTT7CF2/+k99+mKK5AaUUERnFiDuepe+IO3G7z78IZ0kCQComLcRSqWIYqYtvM6Mp01Tu+QGp6VrkR4oWVq4CV439F4PHPFKmDudMB+O38fGLd7B97a+mtOcUrTv3ZezD71C7gSnnJuRkZ/Ldx8/zw9QJ5OZkm9KmE0RWrcG1979C94E3mXZpa+vvC/h4wp0c3rfTlPacwOVy0WPwzYy+58ViXdoqSQBIwaSlVitHlOPEr381oynTKABIUUJCw+gx+GaG3vo41WqZ/0BBr9fLuiXf8e27j7Nvlz8+UNF/NGzRiRF3PMsFlw62pP0jB/cwc/KzLP1hCnl5/vbwOP8RHlGZK697kCuv+8dZM/zNkpuTza/ffch3Hz3H8aQE09sPJq0v6sfou1+gSZuLi71PSQLANoxHqpaZLgFIIHG7Q+h65fUMu+1JatZtavnxvB4PKxd8xYz3n+Jg/DbLjxdI6jZpy/C/PU3nPiN8Mony0N4dzPjwaVb8/LnmB5yhfHgEl42+j0E3jiOicpHrwZVZTnYmC76ZxOwpL2p+wJ80atWZUXc9f/rWvpIoSQCYAtxU1AuLY+xVLfn46X5mNGWa6x+bx7QfNdQkf3C5XFzUbxTD//Y0MY18//AujyePpXM+ZebkZ0hKiPX58f1JrXrNGHrbk3S74npcbt/fQrx/9yamv/8Ea36Z4ejr0mHlKtB3+B1cNfZfVK5Wy+fHz8w4ybwv32TO/152/G2DLS7oweAxj9Ch+6BSh+GSBIBRwFelOsqffD3xSkb2b2JGU6b58ufdXPPIOU9BFAeKqFyNnoNvpu+IO6lVv7nd5ZCXl8u6xd+x4NtJbFk1zzEdkMvtpt3FV9Bv5F1ccOngQicz+cqh+O0smP4OS2Z/THqqc0YMa9RpRN8Rd9Lr6luJrBptdzlkZaSxbO7/WPDtJEetsOl2h3DBpYMZeOM4WlzQo8ztlSQAhGI8Lajg+wmKqUXDqmz+6hpCQ/xrIaCcXA9tRn3Orn0n7C5FbNKoVWf6DLudblfeQPnwCLvLKdDh/bv4deYH/Prdh6QmF7mEd0AKr1SFSy67hiuueaDQe/ntlJOdybrF3zH389fZtXGp3eVYwuV206ZzP/oMu50L+wwnJCTU7pIKtGfbahbNeI+lP34atKtsVqlemx6DxtJ3xJ3nrDBaFiUJAGA8+nd6NTfz3QAAIABJREFUaQ/mcsGMVwYypHej0jZhqW8XxDJynJYCLorL5aJqjZigmJRTtUYdLuw1jJ5X3ULjNl3sLqfYsrMyWDnvC5b/NI1taxYF/Iz10LBytO7cl0suv45LLr+GsHIV7C6p2HZvXsGS7z9iza8zOXH0kN3llFmdhq24qO8Iel39V6Lr+tdIbWFSk5NYMvsTVs3/iritqwJ+pKxCeCU69hpCtyuup13XKy0JYCUNAFDKhwEBPHJzJ164r2tpdvWZca8v4+WpzhlSKg2X283k33LZs201axfPYt2S7wJqGK52gxZ07j2cC3sPo0mbi225pmym9NRkNiz9gdW/zmDj0jlkZpy0u6RiqVAxkg7dBtK5z3A6dBtIeKUqdpdUJl6Ph92bl7P6lxmsWTSdw/sDY2Exl8tF49Zd6NzH+Eycb9GYQHI8KYE1v85kzaLpbFv7C3m5gXGHV0RkFO26XsmFvYbSqecQylWoaOnxShMA3MALlCAEuFwwfmwnnr/nEtxu/17+1OPx8siby3lpSuB0aL7mcrv5aGneWT87eiietYtnsXH5XGI3r/Cr4elKVarTtF1XWlzQg049h/jtsLIZcrIz2bxyHptWzGXXxmXs27neb25jCwkNo0HzC2jarhsdug2gTZf+hS6bHOj2797E2sWz2LnhN3ZvXEZa6nG7SzqtWq36NGvXjVad+9Cp5xCiouvaXZJl0lKPs/632WxZNZ9dm5ZxeO8OvxkdCAkNo3HrLrTs1IsLug+iWYfuPp3rUpoAkG8o8BJQ6CypFg2r8tID3fx22P98ZiyKY9zryzQnoAAFBYA/S0zYze5Ny4ndvJLYzSuI37HWJ8PUISGh1GnUmuYdutO0XTeatetKrQYtHLvufnZmOrFbV7F74zJ2bVzG7s0rSDl22CfHrlK9Nk3bXkKz9t1p1r4bjVp1tvyMxl95vV4Oxm9j96blxvuwaRkH4rbi8RT+OTJDWLkKNGzZiabtup5+L4K5wy9KWsqxU+/BcnZtWkbcllVkpFn/HBiX203NmCY0aNGR+s0voHmHS2na9hJbPxNlCQBgPCFwKDAE6ALUq1QxrFK9mhFc3K4WQ3o1YmifRn434a+4cnI9zFgUx8xFcazemsT+xDROarGgYgWAP8vLzeHo4b0kHYjjyME9HDkQR9KpLeV4IplpqeTmZBX5QaxQMZKIylFEVo0mOqYx0XWbEB3ThJp1mxBdtwnVazUgJDSsDP91wS/j5AkSD8SSlGBs+f/76KG9pKUeJz31eJFhLTSsHBUjo4iIjKJGnYZExzQ59V4Y70nNmCYBP6RvtbzcHI4cij/nfUg6EMfJE0dISzlOZnpqke1EREZRsXIUVarV/uPvf+pzEV23CVHRdR0bgIsr5Xjiue9DQizHkxJIP5lMWsrxIsNaufLhVKpag0pVqlOlWi2iatY767sppnEbKoSbspiuacoaAM7hXX2Xf4ytyFlcnSeZ11YpAkBJZGWkkZuTRXpqMu6QECqcWmGsQsVIv52JHGyyMtLIzc3Gk5dLZprRCVWIiMQdEkpoaDm/vUsi2OTl5Z4OARknT+D1eAgJ++PvHxEZZWd5jpKRloLHk0dOViY5WRlnfzeFVwrIE4/iBgB964rPlA+PoHx4hE9WGJOClQ+PoDxGJ+MP9307VUhI6OlOXp29vU4vdWzKgviBJTDH8EVERKRMFABEREQcSAFARETEgRQAREREHEgBQERExIEUAERERBxIAUBERMSBFABEREQcSAFARETEgRQAREREHEgBQERExIEUAERERBxIAUBERMSBFABEREQcSAFARETEgRQAREREHEgBQERExIEUAERERBxIAUBERMSBFABEREQcSAFARETEgRQAREREHEgBQERExIFCz/PzcsBwYChwIVCvUo8PqFczggtbRzOsT2OG9WlMuTDlBxERkUBUUAAYCUwEmpz5w7SMHLbHJ7M9PplpP+6kab3KTHygGyP6NSmgCREREfFnZ57ChwAvA1/zp86/ILv3pzBy3FzGvb4Mj8drVX0iIiJigTMDwATgoZI28PLUdfzrrRXmVSQiIiKWyw8AIylF559v4idrmbEozpyKRERExHJujAl/E8ra0D9eXUp2jqfsFYmIiIjl3Biz/ZuWtaG4hBRm/qJRABERkUDgBoaZ1dhMXQYQEREJCG6gs1mN/b4lyaymRERExEJuoI5ZjSUkpZnVlIiIiFjIDVQyq7GT6TlmNSUiIiIW0lq+IiIiDqQAICIi4kAKACIiIg6kACAiIuJACgAiIiIOVNDjgMUi2+OT+X1LEonH0rVssoiI2EoBwGJ5Hi8fzdrGq5+uZ2vccbvLERERARQALBWXkMKIcXNZt/2I3aWIiIicRQHAIht2HqX/nbM4kpxpdykiIiLn0CRACyQdz2DIg3PU+YuIiN9SALDA+DeWE38w1e4yREREzksBwGTb45OZOnu73WWIiIgUSgHAZNN+3Emex2t3GSIiIoVSADDZT8v32V2CiIhIkRQATBaXoGv/IiLi/xQATHYsRTP/RUTE/ykAmKx6lQp2lyAiIlIkBQCTNYqJtLsEERGRIikAmGxA9wZ2lyAiIlIkBQCTXXNFM0LcLrvLEBERKZQCgMlaNqzK2Ktb2l2GiIhIoRQALPDifV01F0BERPyaAoAFoqPCmfXaQKKjwu0uRUREpEAKABZp36w6K6eM5MJW0XaXIiIicg4FAAs1iolk5dSRTH6yL22bVrO7HBERkdNC7S4g2IW4XdwypBW3DGnFrn0nWLU5kUNH0zl8LMOU9id8vNaUdkRExFkUAHyoWf0qNKtfxdQ2FQBERKQ0dAlARETEgRQAREREHEgBQERExIEUAERERBxIAUBERMSBFABEREQcSAFARETEgRQAREREHEgBQERExIEUAERERBxIAUBERMSBFABEREQcSAFARETEgRQAREREHEgBQERExIEUAERERBxIAUBERMSBFABEREQcKNTuAkQCRV5uDtvWLOLAnq2kHDtMaFh5qtWsR4uOPalVv7nd5TnKob072Ll+CccS95Obk0XlarWo27gtLTv1IiQ0zO7yHCMzPZXNK+dx5OAeUo4dpmJkVarXakCbLv2pXK2W3eU5htfrZfem5ezbuZ5jifsAngGSgKXAOiCvoP0UAESKkJZyjJmTn2XJ7I9JT00u8DX1m3VgyK2P06XfKB9X5xxer5dVC75i1uR/s3/3xgJfExEZRc+rbuHqW/+PiMgoH1foHIkJu/nmnf9jzS8zyMnOPOf3LrebVhf2YdSdz9G0XVcbKnSG3Jwsfv7iP/z81ZscO7zvzF89fsb/TgBeAd4F0s98kQvwmlmQd/VdZjYnRXB1nmReW243Hy0tMCg61oalP/DuUzeRlnKsWK9v06U/9zz3JRGVq1lcmbOcPHGUtx8dzdbVC4v1+kpVqnPH0/+jfdcrLa7MeeZOe42v/vsvcnOyinyty+Wiz/A7uPGhNwkJ0fmmmRJiN/Ofh4dzeN/O4u6yBRh96l9AcwBEzmvxd5N5Y9zQYnf+AFtWzee523tw9NBeCytzlqOH4vn37ZcWu/MHIzC8/tBVLJn9sXWFOYzX6+Wz1x9k2hv/KFbnn7/Pwm/f4fWHriI7M73oHaRYdm74jefv6FmSzh+gDbAc6JT/AwUAkQL8OutDJj9/G3l5uSXe98CerUy4px/HkxIsqMxZjh3ex4v39ONQ/PYS75uXl8uHz/1VIcAEXq+X/736AD99/nqp9t+4fC6vjxtCdlaGyZU5z66Ny3jl7wNJSz1emt0jgdlADCgAiJxjyexP+OjF2/F6S391LDFhNxPu7c+Jo4dMrMxZjiclMOHe/iQlxJa6Da/Hw+TnbmPZ3P+ZWJmzeL1ePv/PQ8z76s0ytbNl1XzefHhEgXMGpHh2b17BKw8OJDM9tSzN1AEmgAKAyFnmf/02Hz53K16Pp8xtHYrfzvN39CTpQJwJlTlLYsLu0gxxFsjjyeP9p8eycPq7JlTmLB5PHlMm3sXcaa+Z0t7G5T/y6oODytqBOdLW1Qt56b7LyTh5wozmbgDaKACInDJr8rNMffleUzr/fIf37+K523uwf/cm09oMdvt2rue523uYGpzyO7LvP3nBtDaDXW5OFu88fr3pwWnr6oVMuLc/qclJprYbzNb8MsPs4OQCrlUAEMfLzcnig2dv5tv3nrCk/eQjB3ju9kvZsGyOJe0Hk3VLvuO5O3pacunE6/Xy9aRHmfz8beTmZJvefjBJOZ7IxHsvY+X8Ly1pP27LKp75a1cSYjdb0n4wmfPpS7z5r5FWXDq5TAFAHO3E0UNMuKc/S2Z/YulxMtJSeP2hq/lx2qtlmlsQrLxeL7OnTuCN8cMsHx7+ddaHvHT/5aQcT7T0OIFq3871PHPrJexYv8TS4yQlxPLvv3Vn3ZLvLT1OoMrJzuSDZ2/hi7fGmzoqeYamCgDiWFt/X8ATYzqxc8NvPjmex5PH5288xFv/GnXeBYWcKC31OP8ZP4yv3n7Eqi+6c2xf+ytP3NSJ7Wt/9cnxAsUvsz7g2du6ceTgHp8cLyMthTfGDeGrtx8p1R03werwvp08e1s3q+9gqaSFgAKcFgIqubzcHGZOfpbvP34ej8ee/97ouk2446mpNGvf3Zbj+4sd6xbz7lM3cfRQvC3HDwkJZcitj3PVzY86eqGatNTjTH35XpbP/cy2Gpp3uJTbn5xCdN0mttXgD5bOmcrUl+8lIy3F6kMdUgAIcAoAJbN/9yY+ePZm9mxbbXcpuFwueg/9G9c98CrlwyPsLsensrMymPnB08z538u2hbAz1W/Wgdue+JiGLToV/eIgs3H5j3z0/N84lrjf7lIoVz6cobc9yaAbxuFyO2uAOuXYYT6ZeBerF0331SHnKwAEOAWA4snMOMmsyc8yd9pr5OXm2F3OWWrVb86ND73pmGVr1/82m09fvb9M9/dbITSsPANveIirb36MchUq2l2O5Y4nJfD5Gw+xYt4XdpdyjhYde3LTP9+ifrMOdpdiOY8nj4XT3+Xbd/6vtIv7lNb/KQAEOAWAwnk9Hpb/PI2v3n7EL85wCtO5zwhG3/0CtRu0sLsUSxyM38aXbz3M2sWz7C6lUNVrN+Av907k4n6jg/IsNDsznXlfvcWsj/7t1/fjh4SE0n/UPVx9y2NEVo22uxxLbFv7C9Ne/wfx29f4+tBZQFMFgABndgCY/FsuLpfLtDbt4vV4WDn/S2Z++AwH9my1u5xic7tD6Hrl9Qy99fGgecTwofjtzJz8LCt+/twvhvuLq26Ttgz96xN06TsqKIJAdmY6C6e/y+ypE0g5dtjucoqtfHgE/Ufdw8Ab/hk0QWD72l+Z8cFTJXq+hcn+C9yjABDgzAwAALXqNaP/6HvpN+JOQsPKm9q2L3g9HtYvnc237z3B3h3r7C6n1FxuNxf1HcnI25+ldsOWdpdTKkkH4pg95UUWfzc5oGd4xzRuw+CbHqbbgBtwu0PsLqfEcnOyWDL7E2Z88DTJRw7YXU6plQ+PoNfVf+Wqsf+iSvXadpdTKrs2LuX7T16w+9bHnUBnIFUBIMCZHQDyVa/dgH4j7qLH4JsD4sOWnprM0h8/ZcE3/w2oM/6ihISE0rnPCPqOuJNWF/bx+9EZr9fL1t8XsHD6O6xeND2gzviLEtO4Df1H3k33gTcRHlHZ7nKKdOzwPn6Z9QGLZrwXVM+kqBBeiUsHjaHviDup17S93eUUKTcnm9WLvmXBt5P84bbTRKA3sA2M5QAVAAKYVQEgX0hoGB17XE2PwWNpd8kVhJWrYOnxSiIvL5ctq+az4udprJz/VdA/brROw1Z0H3gTXS+/1u9ulUpM2M3yn6axdM5UDu3dYXc5lqoQXoku/UfT9YrraH1RP78aFcjKSGPt4lks/+kzNiydE1QBrCDNO1xKtwE30KXfaCKr1rC7nLPEbVnF8p+nsezH//nLolNHgH7AxvwfKAAEOKsDwJnCIyrTscfVXNh7GG0u6kdE5Wo+O3a+zIyTbFk5j/VLf2DtrzP95YPlUy6XiyZtLqZjz6u5oPtg6je/wOcjA16vl7071hrvw+JZxG1Z5dPj+4vK1WpxYa+hdOg+iLZdLrPlds7EhN1sXjmPLavmsWHZHLIy0nxeg91CQkJp06U/F1x6FRd0H2RLQM7MOMm21YvYsmoe63+bzeH9u3xeQyGOA/2BtWf+UAEgwPkyAJzJ7Q6hUavOtO7clyZtL6Fx64uoVqu+6cdJTU5iz7bV7Fi3mO1rfyV2yypyc7JMP04gq1qjDi079qJFx54069Cduo3bEhpWztRj5OZkkRC7mZ0bfmP7usXsWLc4qIaVzRAaVp6m7S6hZcdeNL+gB41adbbkrPTooXh2b15xutPX0ybPVat+c1p07EmrTr1p2vYSatZvZvpITWZ6Knt3rGPr6oVsXjWP3ZuW+90txqckAgP4U+cPCgABz64AUJDKUTWJadyG2g1aUKt+c6rVrEeVGnWoXDWaSlVrEBIaRrny4YSVq4DHk0dGWgqevFxOnjhKavIRUo8nkXQwjqSEWBL372Lfrg0kHzlo939WwAkJDSOmUWtiGrehZt0mRMc0IapmXSpVqUHlqGgqRFQmJCSUChUjAWM5Vo8nj8y0FFKOJ5GanMTxpASSEmJJSoglIW4zB+O3++uXm1+Liq5LvabtqVW/GdExTYiOaUylqjWIrFqDSlVq4A4JITyiMm53CLk5WWRlppObnUVq8hFOphzlxJGDHDm4h8SEWA7v3cG+XRt8fa94UChXoSL1mrSjTqNWRMc0oWbdJlStEWO8D1VrUK5CRcLCyp9e/yH/b3wy+cjp76ejh+KN76YDsezftZGkA7GB8FyPeOAKoMDrco4MANk5HqYvjGXmL3tYszWJ/YlppGXoy01ERILGFuBK4LwLoDhu8etv5scy/o1lxCZYvs6yiIiIHeYC1wAnCntR4K9uUUx5Hi//fG0po8bPVecvZRIaVp5r7nuJ9l0H2F2K47XvOoBr7nspINesCCaRVWtwy6PvE9O4jd2lON4V1zwAMJgiOn9w0CWAf762lFc+XW93GRLgatRpxD3PfUnjNl3wejx898nzzHj/qaC/3crfuN0hDL/9aa4a8y9cbjdxW1bx9mN/8dljbOUPzTtcyl3//pxqNeuRlZHGJxPvYumcqXaX5Tjlyodz0z/foufVt3Jz1+LdFuSIAPDN/FhGjZ9rdxkS4Dr1HMJtT3xMRGTUWT/f+vsC3nnyBs2K95Eq1Wtz5zOf0bpz37N+npZyjPefuZl1S76zqTJncblcDLj+IUbd9TwhoWFn/e6Xme/z6Sv3k5OdaVN1zlK7YUvuee7L0w9PUgA4JTvHQ+uR0zTsL6UWEhLKqLtfYMD1D533fvvkIwd55/Hr2Lb2Fx9X5yytO/flzmc+O+/qlF6vlzmfvsQ37zwW0MsP+7uIyChue+JjOvUcct7X7N2xjrcfHe1v98MHne4DbmTMw5OoEF7p9M8UAE754qddXPuvn+0uQwJUvabtuOXRD2ja9pIiX+vx5PHD1InMmvws2VkZPqjOOcpVqMjQvz7BwBv+Waz7uXdtXMZHL/yNhNjNPqjOWdp3vZKxD79DjTqNinxtxskTfPHWeH6Z+X4g3DIXUCpH1WTM+P9yUd+R5/xOAeCU6x+bx7Qfd9pdhgSYcuXDufqW/2PQjePOGd4syuH9u5gy4S42r5pnUXXO0vbiy7n54XdKvLpbbk42P3w6ke8+ek5D0SaoHFWT6//+Gl2vvL7E++5Yv4SPX7g9qJ7TYacu/UczZtzb5306ogLAKS2Gf8bOvUVOhhQ5rWWnXtz8yLvUadiqTO2smv8VU166h9TkJJMqc5aIytUYffcL9B76tzItdZyYsJtPJtzF5pUaCSwNl8tFtwE3ct0Dr5ZpZcO83Bx+nPYqM95/SoGslKLrNuGGB9+gY4+rCn2dAsAplXt+QGq6FvmRolWOqslf7p3IpYPGmLa2fmryEb5485/8NmcqXo/HlDaDncvtpsegsVxz30tUqlLdlDa9Xi+//fAJX7w5XoGsBGIatWbMw5No1am3aW0eit/OJxPvYuvqhaa1GezKlQ9n0E0PM3jMw8V6IJsCwCmRPT/gpAKAFKJCxUj6j7ybq25+1LLHvCbEbmbGh0/z+4KvdS20EG27XMZf7ptIwxadLGk/KyONeV+/xQ9TJmhJ3UJUr92Aq29+jJ5X30pIiDXrxW1eNY+vJz3q2AdJFYfL7eaiviP5yz0TiI5pXOz9FABOaTliGjvik+0uQ/xQhYqRXHHt3xlw3T+oGFnVJ8eM27KKb997nI3LdVvqmTp0G8jw25+hceuLfHK8tNTj/Pi/V/j5izfIzDjpk2MGgmo163H1zY/Ra8hfSzz3pTS8Xi9rF89i+ntPsG/XBsuPFyhcLhedeg1l1J3PlWpxJQWAUzQJUP6sQngl+o68i0E3jrftGeI71i3m2/eeYNuaRbYc31+0vqgfI25/huYdLrXl+KnJScyeMoGF099x5GN081WpXpvBYx6h7/A7ijXEbDavx8PKBV8x84OnHT1RMCQklIsvu4bBYx6mXtP2pW5HAeCUL3/ezTWP/GR3GeIHYhq1pt/Iu7h04BjCK1WxuxwA9u1cz4JvJ7Hsx/855ky0QsVIug24gf4j7y7Tl5yZ0lOT+W3OFBZ8M4mD8dvsLsdnWnbqRb+Rd9O593DTHyFdGl6vly2/z2fBN5NYt3iWY9ZyCK9UhUsHjuHK6x4s0VD/+SgAnJKT66HNqM/ZtU93AjiR2x1Ch+4DufyaB2hzUX/TJveZLTM9leU/TWP+128H7VBo7YYt6XnVLfQZdvs5qyn6kz3bVvPTF2+w4ufPg/IRyBUqRtL1iuvoP+qe0yvH+aPkIwdPhbL/cvTQXrvLsUSjVp3pM+x2ul55/VkL+ZSVAsAZvl0Qy8hxuuZaHM07XMquTcsCesa6y+2mSZuL6dx7ON0H3kjVGjF2l1Qi29b+woqfprF28SySjxy0u5wyqVojhk69htD18uto2amX3eWUSPKRA/w2ZyprFk0ndsvKgJ68GRpWntad+3JRv5Fcctk1VKgYaXdJxZaXm8O6Jd+xct6XbFg2h4y0wF7VNTqmMV2vuI5LLr+Oek3bWXIMBYA/Gff6Ml6eus7uMvyay+Xio2UeUo4nsn7J96xd8h2bVvxEdma63aUVKTSsHK0u7EPn3sPp1GtIwHX6BfF6POzevII1v85g9aLpHN4XGHNZajdoQefew7mw9zCatLkYlzvwHzqafOQAa36dyZpfZrB19cKAGBmoUDGSC7oP4sLew+jQfZBld7j4Um5OFlt+X8CaX2aw5teZpBw7bHdJxVK/WQc6dB9Ep55DaNquq+UjkQoAf+LxeHnkzeW8NEUh4HzyA8CZsrMy2LJqPptWzGX35hXs3bHOL778QkJCqdesA807dKd5h0vp0G2g31zXt0pC7GY2rpjLrg1L2b1pOceTEuwuCTBmjjdt15Vm7bvTvuuVQf9I2PTUZDYu/5Ed65ewa+My9u/a4BfXqstVqEjj1hfRrF03Wl7YmzYX9QvqxyR7PR52bVrGllXz2b1pObs3LfebWzur1axHi069aNWpN+27DqB67QY+Pb4CwHnMWBTHuNeXaU5AAQoKAH+Wk51J/PY1xG5eye7NK4jdspKjB+MtfRyu2x1CtVr1qd+sA83ad6Np+240bnUR5cMjLDtmIDh2eB87Ny5l98Zl7N68gkN7d5CWcszSY0ZUrkadhi1p0vYSmrXvRrN23ahWq76lx/R3WRlpxG37/XQw27tzPccT91v6mQgNK0+NmEY0atWZZu260rRdNxq06GjZPfuBwOv1cjB+G7s3LWfXhqXEbl1F4v5dlt/dUTmqJvWbX0CD5hfQoEVHmrXvbspEvrJQAChETq6HGYvimLkojtVbk9ifmKbFgiheAChIXm4Oxw7vI+lAHEkH4zhyII6kg3tIPZZIRloKOdmZZGacJCv9JDnZmaev4VWMrIoLF+UrViIiMoqIyCgqVa1BdN0m1IxpQnRdY6tRu6FP7kkOBumpySQdiCUxIZakhFiSDsRy9NBe0lKPk5Z6nPSU4+Tl5pCTnXn6gUXlKlQkLKw8IaFhVKwcdfq9qF67AdGn3oeadZsQHdPEZ+slBLrcnGyOHoo33ocD+e9FHCeTj5x+L7LST+LFS3qqsU6J2x1yepg+vFIVIiKjqFg5iirVa5/1eagZ04So6LpBcWnFF1KOHT7rfUhMiOV4UgLpJ5NJTzHeC6/HQ1ZmGrk52QCnJ6mGlQ+nYmRVIqvWoFKV6lSOqkm1WvWNz0VMY2rWa3re9fjtpADgEK7Ok8xrq5QBQERE/EdxA4AipIiIiAMpAIiIiDiQAoCIiIgDKQCIiIg4kAKAiIiIAykAiIiIOJACgIiIiAMpAIiIiDiQAoCIiIgDKQCIiIg4kAKAiIiIAykAiIiIOJACgIiIiAMpAIiIiDiQAoCIiIgDKQCIiIg4kAKAiIiIAykAiIiIOJACgIiIiAMpAIiIiDiQAoCIiIgDKQCIiIg4kAKAiIiIAykAiIiIOJACgIiIiAMpAIiIiDiQAoCIiIgDKQCIiIg4kAKAiIiIAykAiIiIOJACgIiIiAMpAIiIiDiQAoCIiIgDKQCIiIg4kAKAiIiIAykAiIiIOJACgIiIiAMpAIiIiDiQAoCIiIgDKQCIiIg4UKjdBTjJ9vhkft+SROKxdLJzPHaXIyIiDqYAYLE8j5ePZm3j1U/XszXuuN3liIiIAAoAlopLSGHEuLms237E7lJERETOogBgkQ07j9L/zlkcSc60uxQREZFzaBKgBZKOZzDkwTnq/EVExG8pAFhg/BvLiT+YancZIiIi56UAYLLt8clMnb3d7jJEREQKpQBgsmk/7iTP47W7DBERkUIpAJjsp+X77C5BREToLDG3AAAUUklEQVSkSAoAJotL0LV/ERHxfwoAJjuWopn/IiLi/xQATFa9SgW7SxARESmSAoDJGsVE2l2CiIhIkRQATDagewO7SxARESmSAoDJrrmiGSFul91liIiIFEoBwGQtG1Zl7NUt7S5DRESkUAoAFnjxvq6aCyAiIn5NAcAC0VHhzHptINFR4XaXIiIiUiAFAIu0b1adlVNGcmGraLtLEREROYcCgIUaxUSycupIJj/Zl7ZNq9ldjoiIyGmhdhcQ7ELcLm4Z0opbhrRi174TrNqcyKGj6Rw+lmFK+xM+XmtKOyIi4iwKAD7UrH4VmtWvYmqbCgAiIlIaugQgIiLiQAoAIiIiDqQAICIi4kAKACIiIg6kACAiIuJACgAiIiIOpAAgIiLiQAoAIiIiDqQAICIi4kAKACIiIg6kACAiIuJACgAiIiIOpAAgIiLiQAoAIiIiDqQAICIi4kAKACIiIg6kACAiIuJACgAiIiIOFGp3ASKBIuXYYdYu+Y6E2M2kHE8kLKw81WrVp8UFPWh1YR9CQsPsLtER8nJz2Lp6ITvWL+F44n5ycrKoUq0WdRu3pWPPq6kcVdPuEh3j8L6drFvyPUkH4kg5dpiIKtWoVrMe7S65kkatOuNyuewu0REy01NZt/g79u5az7HD+wCmAEeBJcBC4FhB+7kAr5mFeFffZWZzUgRX50nmteVy8dEyj2ntBYtDe3fw5dsPs3bxLLyegv8+lapUZ/BND3P5NfcTGlbexxU6Q25OFj99/gazp04gLaXA7zPc7hA69RrKX+6dQK16zXxcoXPsWLeYL94az+5Ny8/7mpp1mzLyzn9z8WXXKAhYJDX5CNPfe4LF339ETnbm+V6WDnwAPA8cPvMXCgABTgHAWotmvMfUl+8lLzenWK+PadyGB1/5nuiYxhZX5ixJCbG8+o/BHIzfVqzXh4aVY8y4/9JryF8trsxZPJ48pr3+D37+8j/F3qdDt4Hc/dwXVKgYaWFlzrNtzSLefGTkecNwAQ4BNwAL8n+gOQAi5zHjg6f4+MU7it35AxyI28K//9adfTvXW1iZs+zdsY5n/9a92J0/QG5ONpOfv42ZHz5jYWXOkpuTzX8fu6ZEnT/AhmVzeP7OXqQcT7SoMuf5feE3vPzAgJJ0/gC1gR+BK/J/oAAgUoAZHzzFjA+eLtW+J44eYuJ9l5MQu9nkqpxn/+6NvHT/5aQcO1z0iwsw/f0nmTX5WZOrcp683BwmPX4tvy/8plT7792xjpfuu5yTJ46aXJnzrF40nUmPX0duTlZpdg8DvgZagAKAyDlmTX621J1/vtTkJCbedxkH9mw1qSrn2b97ExPvvYzU5CNlaufb955g9pQXTarKefJyc3jnyRtYvWh6mdrZ9//tnXlYVEfWh99uEEFAEQENigsiUeMaN9wSNXHPTNSYiTp5HM0Yo1/WMU+iyTfjlziZ0bhlU2McE0OM0ahxS3BFcYmgEBfcAWVTENmh2aGb748CIQ4CDbf73u6+7/P8/kGoOlXlvbfq1KlTNy+x4o0xxq5aVapx4dQ+vvzHNKO8kjXgCnwK6gRAReU+5eXl/LjmXXZtWCxJeTkZKSyd9wRx13+TpDxb4tbVsyyd/6RkbuMd695j55fvU14uaciT1VNSXMjnCycTcXSHJOUlRJ1n6fwnyU5PlqQ8WyLs0BbWvDeVstISKYobDwxUJwAqKoBeX8Y3/57Dge9XSFquLjudj18dxbWIo5KWa81cOXuYFa89LflK8ZfApXy3fD56fZmk5Vor+bosVr45lsjTQZKWe+fWFf41dxj3bsdIWq41c2T752z4cGZjV/4PMk2dAKjYPPm6LFa9NY5TP39jkvKLCnSsemscwTvWmKR8a+L4ng188vYzFBXmmaT8kN1fsfpvEyjQZZukfGvh3p2b/OvloURfPGWS8tOS41jy1wB1YlwHBoOeHWsXsWX1mw89gtwIhqkTABWbJjnuGkteGmTyF5FeX8b3q17n+1VvSD2LtwrKSosJXD7f6FMXDeFq+BH+OWcwKQlRJq3HUrl85iBLZg80efxKfm4mq/42nqM715q0HktFl53OqjfHEbT5Y1NV4adOAFRsltADm/nwpYFmdUUG7/iCj14eQlpSrNnqVDoZKYksnT+CkF3rzVbn3YQbfDCrP2GHtpitTqVjMOjZs/EDVi+YSL4uyyx16stK2bzyNb5YNEX1ylQj9lo4H84ewNWIYFNW00RNBGThqImAjKdAl833q98g9MBm2Wxwdm3JzHfXMWj0NNlsUAJhh7aweeVrsr78hz8zmxlvfYKTSwvZbJCbtKRY/vPPWSZz+deH1j5deHlxIH49B8tmg9zo9WUEBS5l79dLzBGrkqQBigEHqUrMPTUH12ZqTnRzoCsopfnwjZKV59DUiQ0nCiQrT4lcCt3PpqVzyUpLktsUAAaMmsrMd9fh6uYptylmJScjhcDl8zl/Yo/cpgDg3tqHl97fSI9BY+r+ZSuivLycYz+tY/vahRQX5sttDlqtHWNnLGDK3CU0cXCU2xyzcufWZf6zZBYJUefNVWWQBkgHWklVYtSu6fh3cJOqOJVaiErIpuuUrZKV5+bxCJ/+Yp3HczJT77Dts7cJP7pdblP+C+fm7kyd/29GPPsyGq1178oZDHpCdq3np6/+rjiXr0ajYdCY6Ux7fQVuHt5ym2NyEqIvsHnFq9y8HCa3Kf9F63Z+/Pntz+k1eLzcppicosI89n69hMPbPjV3fNACO2A+INkXe3CvNvT0k2w+oVILB0MT2R0SJ1l57q3b89TUVyUrTwkUFeg4sGUl6/8+nYToC3KbUyOlxYVEnv6FS6H7ad3Oz2rvEbhy9jDr/vcFTv78TW0Xl8jKnVuXObF3Ixqtlg7+fbFvIplzVDFkpSWxY+0iApfNI+Neotzm1Eh+biZhh7aQGH2Rdp17WuUNj3p9GaEHNrNm0XNcDjtoiij/2tABszVAGBAgVal/Gt2ZH5fZlhtNLp5feJidwbckK8+7YzcWbwrH0clFsjLloqgwj6M71nDwh1WNziRnbvz7DGfynA/o1n+U3KZIwtXwI+zZ+CExl07LbYpRuLp5MuHFdxj13P/Q1MlZbnMaTXZ6MkHffczxPRsUOwGrCY1Wy4CRU3n2r4tp6/uY3OY0GoNBT9jBLezb9JGcuRCWAP+nAQKBmVKV2sRey7Wd0/Dzsd2AGnMQm5RLt+e2UlIq7azRybk5o6bMZ/yL7+DSwvI8OcWF+ZzYt5Gg75aRk5EitzmNokuvoUycuZA+w/4gtykNIjryV3ZvWMz1cyFym9IoXN08eGrqq4ydvgAn5+Zym2M0uVmpHPphNUe2f05JcaHc5jQYjVZL7yETmDx3CR38+8ptjtGUGwz8FvITP234h9xHUM8Cw4FSDfAe4p5gyZg8shO7Vo6TskiVapSXw6S3D7DvRLzJ6nB0ciFg7AxGTn6FDo8+brJ6pCIlMZrjezbwa9C3VnfhiG/3gYycMo9BT7+Ag2Mzuc2pleLCfM4e2UbI7vVWlwLZ1c2DYRNnMWLyK7Ru5ye3OXVy83IYIbvXEx683aJW/HWh0WrpGTCOUVPm0WvIBLRaO7lNqpXcrFRO/bKJ43s2KOH4bzQwArgLoEFcDXhI6lo+fiOAd/9iebM0S2DZtxd474szZquvU/cBDBn3IgNGTVVUcFReTgYRx3Zy9vBWoi6etPo8781c3Rgw6nkCxkyna98nFRMwaDDouXHuOGeObCXi2E4K83LkNsmkaDQauj4+goAx0+k/8jmcm7vLbdJ90u/Gc/bINsIObeHOrStym2Ny3Fv7MHjMDALGTMenS2+5zblPSXEhkaeDOHP4ByJPB0mVv7+xxAJPAncqf6ABmgFZSHgUEECr1bD0tUHqJEBCystheeAF3l97FoPB/B87jVZLl15D6Tv8j/QYOJp2fr3QaDRmteHe7RgiTwcRGbqfG+eP22xWPTePR+g9ZCK9hkzgsUGjzR63UVSg42r4ESJD9xN5Osjit1sain0TB7o+PoLeQyfSe+hEvNp2Nmv9pSVFxESe5mpEMNcigom/cc7qJ8IPo02HR+kz9Bl6D5mAf5/h2Nmb9zh6SkIUV8KPcC0imGu/HaOoQGfW+usgAfHxT6j+w8q390nEnoDkTBrRiRVvDVZjAhpJTGIO73wWxt7j0kX9N5YWrdrQ9fER+HYfSKfuA+jg31fSYKmS4kKSbl0h/sY5oiN/JerCCTJT79T9hzaGnZ09Hbv2w7/PcPx6DqF9l954eHeSbHJWXl5OenIciTEXibkUSvTFUyREnVcv1amBVm3a82ifJ+jSexgdu/ajre9jODR1kqz8Al02iTcjib1ylqsRwcRE/mrR+/qmoqmTM517BODfezidewTQvktvWrRqI1n5en0Zd+NvkBh9gevnQrgaEUzmvduSlS8x0QhPf8KD/1D5hniTivuBTUETey3PjujEpBGd6NfNk3ZezrioyYJqJa+glNv38jh3PY29J+LZezyO0jJlZ+nTaLW4e/nQpr0/bdr74+7Vjhat2uDq5olrS0+0Wjscm7liZ2cPQEF+DoayMvJyM9Blp5OXnU5qUizpd+NIuR1D6u2bGAx6mVtlmTg5N8e7U3c82/ri5e1LS8+2NHf3wrlFKxydXHBo6nQ/0UpJcSGlJUUUFeaRl51OblYqWalJpCXHkpYUS3L8dQrzc2VukWWi1drh5eNHG58ueHr74tnWF5cWrXB188CleSu09vY0cxaLI0O5gcK8HPRlpeJ5yMkgJzOF9OQ4UpNiuXc7hvS78bK2x5Jp3tIL747d8PDuhFdb8Uw4V4xFEwdHHJ1c7nsNigrz0JeVUqDLRpedhi47nYyUBFKTYklLjiU57jplpcUyt6heXADGATXeq105AfBC7AuoX2UVFRUVFRXL5zgwCXhoUE5lFFEqcMAMBqmoqKioqKiYlq+BsdTy8YeqCQDACpOao6JiPWQCU4Gv5DZEha8QY5EptyE2TjTwNGDae7VV6kIPLADmAEYfPTiOuB1QlSpVNess0IEq/gzkKcAuW5Ouou8r6QiEK8AuW9Q2wLViHOwQWeb0CrDL1pSKCPZrME8ABgU0RJUqJeozaj4u2x24qgD7bEVXgG41jIMD8IUC7LMVFQEPuzxkLOKDJLeNtqITQNuHjIVRfKeAxqhSpSTlINzMteEMbFaArdauwIq+ro0/AbkKsNWaFQv0r2Mc2gGnFWCrNasM+Aiwr2Ms6k1rxH6a3A1TpUoJOggYcz3fdCBFAXZbm+4CLxgxDr7AYQXYbW0yAOuB+iZ2aYJIN1+gANutTdeAQfUcB6OYjLoVoMq2dQ+YQcNwBzaiPkNSyABsAFoaNQJVvIjqipZKV4GhxnX/ffyAIwpogzWoDBG072jUCBjJZwpoqCpV5pYBsQ3mQeMZhhob0BjFAFLcieyGOC2gTsgaphJgGdDU2I6vgedRJ2SNUQQwwOhebwAOqC40Vbaly4h82VLSFPgA9aSAMcoDFiPNB6c6IxEBhHK3z5J0GPBvSGfXggfwDWIlK3f7LEUpwCyqkveZhWZAqEQNUKVKqYoD5iKOMJkKD8QqSt0LfbiKESv1RxrYx/VBi1iFRimgvUpWKPBUA/u4vnRFeNvUI4MPVx7ivdG8gX3caDxQz9dagy4jInfltkNJigdeQsII2nrggwiiKpGoDdagYuBLJDrGVE/sEclSEiRshzUoHJE73pz0AX6WwHZrUgHwCdJsRTYaF+AQ8neKqoYpqGIM7RHJUy4pwCY5FY84vyzpFdhG4gtsQpyllrs/5FIRImWpMacspKYp8DrqROA34FnM7GJ+gABESnpbjtXIQhzr82pkX0qOA+LGQFseHEuTARHM+eAKVwM8g5jU2Yr7TY94ufwB07r6jcULWITYhpC7j8ylWGAh4ClB/0mFHeIDeBDbeSYKEXkVTHKUrBF0AVZhW8fRoxApfGVz9deXSdjWwFiq0hAfu7rwBZZivWfX04HlQOd69IWcaBGTsv1Y5wdIj/BETeT3d5AoET/EMat05O83U+gW8A4KcS/XghMwGxH5LnefmULFwA5ErIWcnhejaY2YOareAOXJAHxbMUbG4AD8EZHNLkcB7WiMcoCtiIxwJj0rayI6IVbIZ7DsZ0wPhFW0RU43f0NxRCQf2oblPxNJiDiLp1H+BKwm+iGC4W4gf1829pkIQQQdu0vaQzIwHNEYuTtVlVAIYh+tsTgi3KGBQLIC2lUf3UVEkI9D+uNjcuINzEccx7KEwMFixNbSvArbrYWmwHhEUiJL8ZZFIT6aAVjmR/9hdENkFwzHMibI+cA+4BXMG+haJ1K5HYYiXEoTEKkfVcxHKcK1uhyx2jIFPYHRiNVDAA3PyiYldxHtDUXkG698GVgzbojEOEMQ49AP+T0cRYgAsjOIsThGHXeQWwFaxL75UKrGwpRHF+tLNGIcziBudr0uqzXmoR3imQhAjEUP5I/xKUZsW5xEXNJzEvGcKA6p9x08gWnAFGAw1rUSUxLFiId8J/AjYr/fXGgQe6QDKtQLEbTjY6L6DAj3ZSwQSdWHJsFE9VkSDkBfxMsvAJGwxRcxUTAF2YhxqP6hOY+YhNo6HRHvvMGIZ8IXsdozxcq7FPH/P5aqyVcYImbB1nEBBiLGoT/i3eSLiCcwBfmInPwXEe+ni8A5FPrBfxBTBh44IWbI/REvpq6IfWk3xCDJeQTLEihBJIHIRrgcoxCpUcMRH8BC+UyrEWfEw+aHWA15Am0QY96MKq+BK1WnEgoQk5kCxPGXLMRLLLaa4hF9oVJ/3BEvvUr5VPysZYXsENHGlSulMkCH2J+sHIdM4Da/H4tMs7XAOmiKmBhUH4tWVI1Ds4rfaVbtb3IR46CjaixS+P043Kn4HZX68wi/HwdvxDPhRtW7qbpnMx/x3ikDMhDvpQzEYisRcWonFjE2Fsv/A1mDxRj0RiqIAAAAAElFTkSuQmCC;" vertex="1" parent="1">
          <mxGeometry x="200" y="342" width="100" height="100" as="geometry" />
        </mxCell>
        <mxCell id="gQ4Pl1D-QI35R4eoKrXc-23" style="edgeStyle=orthogonalEdgeStyle;rounded=1;orthogonalLoop=1;jettySize=auto;html=1;fontSize=11;strokeColor=#696773;strokeWidth=2;dashed=1;" edge="1" parent="1" target="gQ4Pl1D-QI35R4eoKrXc-11">
          <mxGeometry relative="1" as="geometry">
            <mxPoint x="540" y="410" as="sourcePoint" />
            <Array as="points">
              <mxPoint x="610" y="410" />
            </Array>
          </mxGeometry>
        </mxCell>
        <mxCell id="gQ4Pl1D-QI35R4eoKrXc-21" value="" style="shape=image;verticalLabelPosition=bottom;labelBackgroundColor=default;verticalAlign=top;aspect=fixed;imageAspect=0;image=data:image/png,iVBORw0KGgoAAAANSUhEUgAAAgAAAAIACAYAAAD0eNT6AAAABHNCSVQICAgIfAhkiAAAAAlwSFlzAAAOxAAADsQBlSsOGwAAABl0RVh0U29mdHdhcmUAd3d3Lmlua3NjYXBlLm9yZ5vuPBoAACAASURBVHic7N13eBRV28Dh3+ymbDY9gRQgld6LIr33UBSU3kSwCzYUUBB7L68VReyCCFKkN+kgIL0LBJLQSwqQkL77/jGooKTNzO7MJue+rv18v2TnzMNmdubMmXOeBwRBEARBEARBEARBEARBEARBEARBEARBEARBEARBEARBEARBEARBEARBEARBEARBEARBEARBEARBEARBEARBEARBEARBEARBEARBEARBEARBEARBEARBEARBEARBEARBEARBEARBEARBEARBEARBEARBEARBEARBEARBEARBEARBEARBEARBEARBEARBEARBEARBEARBEARBEARBEARBEARBEARBEARBEARBEARBEARBEARBEARBEARBEARBEARBEARBEARBEARBEARBEARBEARBEARBEARBEARBEARBEARBEARBEARBEARBEARBEARBEARBEARBEARBEARBEARBEASdSXoHIAiC4AJ8gRpAVaAK4Hf9Z95ABnAZSAWOXX8dBjJ1iVQQBEEQBMVMQFvgXeAPIA+wl+CVDWwEXgPaAW5OjV4QBEEQhBKJBt4BTlGyC35RrxRgBjAQCHTWP0YQBEEQhMLVAH4EctH2wn+rVy6wGngK+ZGCIAiCIAhOFgC8iTxk7+gLf0GveOBDoCPg7th/riD8Q0wCFITSxRuoBdQFagLhQEUgFAgCPG54bw5w5frrApCAfDE6DuwGTjgraJ3EAV8jfzZGkQwsBRYCy5EnFwqCIAjCf5QH+gKfAgcBG9rdmV4EFgMTgdsoPTcM7sh33Fp+Vo545QCrgMeBWId8EoIgCIJLCQMeBdYD+TjvgnQW+ArohDxL3hX5AyvR/+Ku5HUA+XFFC8Cs9QcjCIIgGJMJ6IY8PFzSJWmOeCUBrwIxjvxHaywM2If+n50WrwvAl0B3wFPLD0kQBEEwBivwGPAn+l90bvXKA34CGjjqA9BIILAH/T8vR7yuAD8DA5ATFAmCIAguLAB4HvlOT+8LTHFfi5EnHxqNBfgd/T8fZ7yygCXA/RhrcqMgCIJQhPLAi8hpZfW+mCh55QPfIw+3G8VX6P+56PW32I58PFVX+yEKgiAIjhEFfAxcQ/8Lhxavy8h3oXqvHLgf/T8Lo7x2I3cG6qv5QAVBEARtVEZekpaF/hcIR7xWAJGafVolEwlcLUaMZfGVwD/Jh0SdAkEQBCdqBMzGucv49HqlAb20+dhKZKHCeMva6xwwFeiKyERYpug9PCcIZU1rYALyybYssSNXxpuMnIDH0eKQJyVqyuJppl7VIG6rVY6ocJ+/f34hJYtdhy+x63AyaVdztN6tM6UC84FfkJMQufQ/Riic6AAIguNJyGv4JwAtdY5Fb0uA/kC6g/ezDWisVWPN64fyUN+a9O0Ug8Wz4Bw8djtsP3iRheuSWLQ+iV2Hk7UKQQ9pwK/InYGVyPUShFJEdAAEwXFMwD3IF36jr5N3pq3Id+gpDmq/O7BIi4aqRvrzxaSWtGscrmj7k+cyWLwhiQXrkljzxxmysvO1CEsPl4EFyJ2BFchzVgQXJzoAgqA9D2AIMA6opnMsRnUA6AKcdkDbS5BHXFR5fHAd3hhzO16e2syRy8jMY+WW0yxaL48OnE/O1KRdHVxBnl/xC7AM0RlwWaIDIAja8QSGIxfPidA5FldwDPmRyHkN26wIJKIyV/6LDzVi8kONtImoAAfiU5m98gSL1iex89Al7HaH7s5RMoHfkCe0zsXxj3YEDYkOgCCo549cnOcJ5EQ+uqsaUYnGtatTp3IMNaMjCQsOomJIOXy8vP5+T1ZODlcyrnHqwkXiT53hz8ST/HHwMDsPHyUj02k3dduADmh34RgPvKGmgTfGNGb8fc5dKp94Np1F65NYuC6JtdvPkp3jko8K0pEnXv6CPApzTd9whKKIDoAgKBeCfNF/BLkToBsPdzc6Nbmdezq0puMdt1EpRHk/JC8/n817D7Bk01bmrF7PsZOOGKW/yXKgJ5CrQVubgWZKN+7SvBJLP+2KpOOZMf1aLss3n2LR+pMs3pDExVSXHGG/htwZmI08H8Nln3eUZqIDIAglFwmMBUYBXkW816FiK4bzWL/eDO/RhSA/X83bt9vtbNqzn2m/LuGn5b+Rk5un+T6u+xYYobKNAOAiChPbBPl7cmDOPYSV0/VPehObzc6WfRf4dU0i81YncjTpst4hKXEVeTXBTOTVBGJpoUGIDoAgFF915Il9Q9A5YcrtNaszYcQg7mrTEpPJOV/j0xcv8f702Xw2+1eychxyDh8JfK1i+97Iz6EVeW5UA1577HYVu3csuySx+3Qq81cnsGBZArv3X9I7JCVSgDnIFSTXIyfCEnQiOgCCULSGyEv57kZe2qebtrc1YMK9g+jcVL8LVcLZc4z/+Et+XrlG66avAXcgrxBQ4jXgOSUberibOLFkABXKWxXu2rHyPSRyvSXsN5yxk06ns3B5AguWnWDzH+fIz3e5WYRngVnIIwNbkZNFCU4kOgCCULBWyBd+1UvK1JAkie4tmjJhxCCa16utZyg3Wbp5Gw+89h6nLlzUstkDyJ0AJRPI5gF3Kdlp7/bRzH2/o5JNHS7XSyLPq/BT9aXkLBatTGDh8gTWbDztivkGEpA7Aj8Be/UNpewQHQBBuJmEnKb3OXTO2mc2mejbsS0T7h1EvaqxeoZSoLSr6dz38tvMW7tRy2Y/RJ5cWVKHUVj29v2xTXlySB0lmzpUrrdEnmfJTtPpGbmsWHuSBcsSWLY6iSuul5r4IHJnYCZwVOdYSjXRARAEmQl5iH8C8pC/bjzc3RjWvQvjhg2gSkRFPUMpFrvdzpvf/cTEKV9hs2kyipsH3A7sKeF2aShcjbHx2560aBCqZFOHybVK5FnUnaJzcm2s23SaX5clsGhFAhcuudxk/B3IowKzgJM6x1LqiA6AUNa580/WPkV3j1rx9rJw/13deXpIP1XL+PTy0/LVDH/xTXLzNFkpsBG5cFJxexRm5GWEis5paRuH4e/joWRTh8jzlJ/5a8lms7Nlx/nr8wYSOJF0RdP2HcwGbEIeFfgZcOkiC0YhOgBCWWVFnnU+Fv3q1QMQ4OvDY/3u4vEBd1MuQNd0Aqot3byN3s9MIjtHiyX9DAe+L+Z7A5Ar2Slybeu9mqX8Vctmhmx/x8813b3/EvMWH2fekhMcO+FSywuzkJMNTUHO+yAoJDoAQlnjj5y45wnkRD66CQ0K5MlB9/DwPXfi523M2edKzF61jgHPv6zF44AzQGWKl2veB3m9uSKZW0cUWuXPaSTI9pWwuTn31Lz3QDLzlsidgSPxaU7dt0rrkOfriI6AAqIDIJQVIcDjyCl7db3Njg4PY+zQftzXqxtenp56huIwn86ez2Nvf6RFUw8BXxTjfWbkuQOKnF012BAJgPIsErlWfU/LBw6nMHfxceYtPs7hYy7TGZgHjMYxxaVKLdEBEEq7SOBp5Kx9ut5m14yJYtywAQzq2gF3N2MMNzvSg6+/z9R5qqvyxiPPzSjOurZrKMzMuPTTrnRtUUnJptqRIMvfhF3XTBM3O3QklbmLjzN38XEOHVH8hMVZ0pC/62qSSZUpogMglFbVkAvDDEYuz6ub22pW47kRg52atc/ppL//z98ys7Noeu+j7D16XG3rg5BnghflEFBDyQ5eH92YCSOdWwDo34xw91+Yw8fSmLvoOPOWHOfA4RS9wynMj8ADiPoDRTLu0SYIyhgma1+bRvWZcO8gujRrrGcY2jFJYDaD2Q3MEkjm6z8zUVD1nMPHTtCw10CyslWtRd+BvCywKEtQmLSpce3ybJt+p5JNNZMVYKy7/8IciU+THxMsOcG+g4ackL8DuBPxSKBQogMglBYtkScDdUXH41qSJOJaNGHCvYNoUd94iWWKTwJ3M7i5yS/z9Yu9Ai98MIVXPvlSbUC1kRPEFOY94CmlO9j1c28aVA9WurkqNneJbF/XPB0fO3GZeUtOMHfRcfYcMFR9gnigPZCkdyBG5ZpHnCD846+sfa30DMJsMnFPhzZMGDGI+lUr6xmKMhL/XOzdr/9XI5lZ2dTqcjcJp86oaeZ14Pki3nM38vIwRUbcWY2vX2qtdHNVtEj6YwRH4tOYvSCeXxbE86cxVhMkAG0QnYBbcv0jTiiLTEAf5KH+RnoG4uHuxtC4zowbPoCqETpPIispkwTu7tdfbgUO42th5qLlDHx8gpomEoBYCk8MFAqcU7oDk0li/dc9dMkImO1vwmaAVYha2nsgmVkLjvHLgniSTqfrGco+oAUqlomWVqIDILgSN+SsfePROWuf1eLJ/Xf1YOxQF8vaZzaDx/WLvpsJZ50C8vNt1Ozch6MJqm7EWiJngyvMDlR0CmtXDmT7jLucmxNAgsxAF3n4r4DdDlt3nmf2gnjmLjrO+YtK6jyptgToiZxRULiulPU5hVJKAvoi1xEfCZTTKxBfq5WH7u7JrDcm07djG/y8vfUKpfhMJvDwAG8rWC3y3b7JeRd/OQQJi6cHC1evV9PMaaCoGsRBgOKyfhdTs9h3LJW+nWKctmLDZob8UjD8XxBJgkoVfOjSLoIx99elfatK+Hi7c+LkFa5lapI2ujiqAhmIhEE3Kb1HnVAaSEAv4BWgrp6BhAYF8sTAe3ikr4tk7ZMk+U7fw0OezGeAr3p2Tg7hTTuTellxDvqNFD3XIxa5gpyqW+p7e1Vj2outMDuhE5DvIZHjo//fx9lycm2sWneS2QviWbQigYxrDu8MZCOXmhblhq8re0ed4Co6Aa8if2F1ExUeytgh/Rl5pytk7ZPAzQyeHvLF34HP9JV64PlX+XLmXKWb5wCByAl/CrMQ6KF0J39p1zicH19vR4Xyju3wOaLwj6u5lpnHklWJzF4Qz4o1J8nOKU7eJ0W2AU0pfpGpUq1sH3WCEdVFrgffTs8gakRHMm74AAZ37Wj8rH0mk3zBt3heH9o3rrVbt9Nu0ANqmugI/FbEe9oX4z3FUj7QwjtPNWFQt8q4uznmszV6AiBnu3I1h1+XJTB7wTHWbDxNfr7m1+ohwHStG3VF4qgTjMIbmIxcpMddryAa1ajKcyMG07ttK+Nn7XN3A09P8HDDVb7KNpuNkMYdSE5TXH1uEvLIUFE2Is/81kRkmA9PDa3D0B5VCfLXdiRIdAAKlnDyKh9O3cv3P/9JZpZmjwiSkOcEqMpOVRqIo04wgl7AR0CUXgG0bliPCSMG0bWZrk8civbXs32Lpzyj3wX1efhp5q0oai5fgX4AhhXjfU2A39H4HOfhbqJzs0oM6BrLnW2j8LGq76uKRwBFu3ApkwfHrmP5as2W8w9DPpbKNNc8gwilRSTwHfAicj13p/ora9/XLzzL5PuHUyWiorNDKD6zCaxe8kx+Dw/DD/UX5tylZJatVzwZOwuYVoz3nUYuJaxpgv98m50jiZeZ+1sC//vxAHuPpuBmloip4IubwkcEdhPke4oOQGG8re70v7MKvj7urNt8RotS09EUr8pkqSaOOkEPEjAGeA156N+pTCaJe9rLWfsaVKvi7N2XjNkMXp7g7lFqvq1bd++n6d3FuYm/pVTkpX7FEYicBMbhPTt/Hw/uahfFgK6V6di0Am7m4ncG7GaJLP9S8sd1gp/mHuX+p9Zq0Qm4HTlvRJkljjrB2UKR7/q7OHvHHu5uDOnWiXHDB1It0shZ+yT5+b6Xp6YpeY0i9fIVghq1VdNEeaC4Sec7ActwYmGocgEW+naOYUCXyrRsGFqsuSSZgSZxNi6Bz77Zz9jJqpf0v4WcVKzMEoec4ExxwDdAiDN3arV4Muqu7owd0o+IUKfuuoQk8HTt5/vFFdK4AxdTFNeXrwMcKMH7JyDXEnC6SqHe9Oscy4CusTSuXXDGyGxfCZu7OB2XRP/7V7BweYKaJuIBgw8BOpY44gRn8ETubY/Bicecv483j/a9iycG3k35QKdPMSg+SZJn81s8FVfcczVN+gxj2579SjdvCmwt4TbfAsOV7lALlSP8GNAlloHdKlO7cuBNvxMrAUru9NkMbuswmyvpqibzRwOJ2kTkekr3bYZgBLWQh2DvxEkX/5CgAJ6/bwgzXp1IXIsmeHtZnLHbkjNJYLGAj7dhE/c4yqzFKzh+UnGp9p+B4yXcZjHysVhL6U7VSr2SzYad5/hs1iHmrDpB2pUcKpS3EuTviWSTyPOUxC1ZCfj5epCdk8+GLWfVNPMH8jyRMkkcboIj9UZeauOUiX6RYSGMHdKfUXfFGTtrn8kk3+17epbZb6DKpYC9gfkKtnNDPh4HKN2xIzSqWY57OsZwV+9Yoqv46x2OSzl9NoMazWeoSRb0EfC4hiG5lNI3w0gwignICVscPvkqKjyUSSOHMqx7Z2Nn7TNJ4GUBj7J74f+Lt9VLzeY+CrfLAwYDJ5Anfxnir7Dz0CV2HrrEcx//Qb3awfSOi6VP91iqxorOQFEqhnvTqU0Ey5TnB6isZTyuxsBnS8FFeQJfAkMdvaOw4CCeGzGYB/v0xMPdwIeydP3C7+lRpob5C5Obqyqrm5qNbcBzwC7gK8BXTSBa23sgmb0HknnpnT+oUzNI7gz0iKV6ZQPPYdFZ62YV1HQAYrWMxdUY+KwpuKAQYB7Q3JE7CfLz5dlhAxjdvw9Wi4GH+sWFv0DXsrLUbK5q4+tmIxeGmQp01qA9ze0/lML+Qym88t52alUPondcDH16xFKzamDRG5ch9esEq9m8glZxuCLRARC0UhdYgDyr1iE83N14enA/xg0fiL+P0/MHFZ+E/HzfyyIu/AVITlVcCwDkuu5aSAS6IheHeQUdU1EX5eCfKRz8M4XXPthBzaqB9O4eQ5/usdSqXtycSKWXyg6RQWcIO4c4OwlaaA4sARz20LJNo/pMGf8ENWMMe46WL/aW68v5xIW/UFGt4kg6c07p5g2B3RqGA/KjqweBZwAjZ4m6SfXKAfTuLs8ZqFOzbHYGLiVnEdnwezVNmJEfDZU54iwlqNUWuf660olZhSofGMA7Yx5kWPfOSEa+qHp4gNXi0jn6nSU7JwefOi3Iy1dc870icEbDkG7kBvQEHkIuPewyf9Cqsf70jould/cY6tcup3c4TnPxUiZRjRTX9clHrj6qec1hV2DgM6rgAjojP/O3at2wJEmMvDOOt0Y/QJCfoeZp3UwygY8XuOtWwdjl7D74Jw17DlS6eQ7y8aa491ACFYF+wCDkvPEuI6qSLz27RNOrazTNbg/DbC69p/qjxy9Tv+3PSjdPAVRNInBlYg6AoFRP5IlUms/CCwsO4rsXx9O5qcHPue7u4GMVw/0ltPvQn2o2P4FzLv4gVxT84PqrKjDw+quGk/avWOKpq3zy1T4++Wof5YIt9OgUTc8u0bRrWRGLZ+nK/7Zr30U1m6uajOLqXGZ4SzCUe4A5OODi371lU/b+NM34F3+rF/h6i4u/Auu37VSz+VGt4lCw35eBmkAj4F3gik6xlMil5Cy+nXmYu0csI6rh9wx9ZBWzfj3GlauqUugaxo49qjoACRqF4ZLECIBQUn2BGWh87Fg8PHh7zIM81u8uYz/rl0zgay2VVfqcZc2W7Wo213rynxK7kIsR3a93ICV1NT2XOYuOM2fRcTzcTbRpUZE7u0bTo3M0IeVUJWfShd0Oq9adUtPEQa1icUUGPtMKBtQWOa+/pnf+tWKi+Om1SdSravCcHGYz+PqUmYI9jqDy+T8oTwOstTjk+gKlgskk0aRR6N/zBmKj/PQOqVhWrT9FryFL1DTxKPCZRuG4HHEbIxRXPeQTr6YX/56tmjH91efxtWo+j1Bb4nm/JmYvXaW2iW1axKGBPnoHoCWbzc7v28/x+/ZzPPfaFurUDKJXl2h6dYmhXm3jzpH7aOpetU1s1CIOVyXOZkJxRAKbkWdFa2bskH68NfpBTEa/o7Z4gpeX+LaolJ9vI6ZNd06ePa+0iUPoWM3vBm7AWaBMrLWLjvClR+do4jpF0eKOMNzdjDF1bNGKBPqNWqGmifNAOGV0CSCIU5pQtCDkXnJNrRr0cHdjyvgnua9XN62adBwvi/wSVFv423p6PfCEmiY+AUZrFI4a7YHflG5cIyaAxDPpZGarqoegC38/Dzq1iaB7pyg6t40gMECfVNxnz1/jji6/kJyiKiv0dOQskGWW6AAIhfECVgIttGqwXIA/c95+idYN62nVpGNIgNUq5/EXNNF20P2s27pDTRNdgeUahaPGp8AjSjfeO7sPsZX8WLwhiV9WnmDJxpNkZLpeZ8DNzUTzxmF06xBJXMcop1UvvHI1hzuHLWXrDsUjSX+5Ezl9eZklOgBCYWYC/bVqLDIshFWfvUvVCKNnWpXk5/0eIrmPVtZt3UHbQaomzacBociJgPRkAk4hDx2XWNVIf44s6HvTz65l5bF040lmrzzB4g0nSb+Wq0GYzlc11p/unaLo1iGK5o0dk3zoUnIWvYYuYff+S2qbOg9EAK75YWtEdACEgjwO/E+rxmIrhvPblPeIDg/TqkkHERd/rdntdlr0HcHvu1RN2PoOuFebiFRpgYqJY+Pvq88bYxoX+PvM7DyWbTrFLytPsGh9ElcyXPP6FBjgSZd2EcR1lB8V+PmqH0n7bcMpRo/fQMLJqxpEyFvAeC0acmWiAyDcSgtgDXKObNWqR0Xw25T3qFje6HOmxMXfEX6cv4ShT09U20w7YK36aFR7D3hK6cbbpt9J49rli/XerOx8Vvx+il9WnWDB2iQup+s9+KGMu5uJlk3CiesURVzHSGIiS7bEMD7hCm99tJPpc45g12a6XjYQgzyRs0wTHQDh30KBHWg0479O5RhWffYuoUEGr2EuAT4+4C5Wxmop7cpVanW5m7MXVA3ZHgOqof9sbQk4jsKS15FhPiQsHaBoJWl2Tj4rt5zml5UnWLAuidQr2UpCMISaVQOJ6xhF25YVaFC7HMFBN0+ytdvh6PE0/th9gRm/HGXt5tNaXfj/MgUVczhKE9EBEG5kBlYgz3JWrWH1qqz45G3KBThncpAqvt6ioI8DPPj8q0ydOVdtM08h5+PX222A4jSGTwyuwwfPNFUdRE6ujd+2nuaXVSeYvyaRlMuu2xkAqBju/XcWQrsdjidc4YrjRjsuI3cmLzhqB65EdACEG72BRs/FqkRUZNO0jwkJCtCiOcfyscrlfAVNbdy+m9YDRmJXd/t2GTkPxa3y7vsiV3LzR16bb7r+vwEsyKtYQD7P2ZEnEGbc0K4NyAIyr78uUfiksNeBCQr/HWz4pgctG2o7ByYv38ba7WeZ91siv65N5PSFjKI3KtuM0pk0BNEBEP7SDTm1qepjIjQokE1ffUzlShXUR+VoVitYxMVfa9k5OTTsOZBDx06obeow8rP/8siJd4JveDniD5cCXLz+uoR8p3jh+v9+HPnZcYmFlfPi9IpBDk16ZbfDtv0XmLc6kXmrEziSWKYL3d3KZqA1zqsmaXiiAyCAfNe0H1C9Ps/H6sXazz/gtprV1EflaCLJj8O89NEXvPjhF3qHYRgP96vJZ89plk6jWA7EpzJ/jdwZ2HFQ9bI5V3cZuB15PolwnegACABfAfepbcTdzY2F779Gl2YFL3MyDIunXNJX0Nzh+AQa9BhAdo5rzlp3hJVfdKNjE00zaZdI4tl05q9OYP6aRDbsPEe+Te/5lE5lQ076s0jvQIxGdACELsBSVB4LkiTx7eRxDOveWZuoHMnDA3y8EIe/tmw2G3sPH+XRyW+yeecevcMxFD9vd+6oE0Kz+iE0qRtC07ohBOuURvdSWhYL1iYxb3UCq7aeJiu71I+IPw28r3cQRiTOgGWbH/LQf4Tahp4a3Jf3nnhYfUSO5u4uz/gXVMvPt7H70J+s37aTtVu3s+GPXaRevtVcPeHfJAlqxgTQrnEF2jUOp+3tFXTpEKRfy2XpplPMW53Akg0nXTbXQCFeAV7QOwijEh2Asm0qoCo/K0CrhnX57bP3cHcz+Bp6NzP4+oiSvioknTnH4jUbWLpuE+u37eTy1XS9QyoVTCaJulUC6dSsInEtI2nZMNTpVfcSz6YT3W2mU/fpQHZgIvLKDaEA4kxYdnVCLqyi6hgICw5i549fEF7OuDXDATCbwU9c/EsqP9/Glt17WbxmI4vXbGDv4aN6h1Qm+Hm707FpReJaRtCjdSShwY6fr/L57EM8/Nomh+/HCbKAh5DTRwuFEGfDskkC9gB11TTiZjaz6rN3adOovjZROYokyRd/s1nvSFxCbl4eKzduYdbilSxavZ7kNLGcTE9mk0SLhqHc3SGG3u2jiQhzzCOsTg8uZdXW0w5p24lOAH2Rs5kKRRAdgLKpHbBabSNvj3mQZ4ZqVizQcXxFit+i5OfbWLt1Oz8vXsHcZb+Ji75BSRLcUSeEgV1j6d+lMmHltBkZSE7LJqzDdPLybZq0pwM78BlyoiZNqgWVBaIDUDa9DExS00CXZo1Z+uGbSEYfUvf2Ak99Zlu7gu37DvLtnAX8svQ3zl9K1jscoQTMJolOzSoyOK4KvdtH4+2lvJP7za9HuG/yejXhLANikdPsOtsGYCywTYd9uzSDn70FB1G17t/P28q+mV8TGRaiYUgO4OkpdwCEm6RevsL0X5cybdY89hw6onc4ggZ8rO707xLLqN7VaVqv5N/LnmNWsGh9ktLd5wHhyNkSqwI9rr9aoVFF0QKsBt5FXsYsKCA6AGXT58CDSjf+4rmneKB3Dw3DcQCx3O8mdrudddt2MO3n+cxZtoqs7FK33Eu4rm7VIEb1rs7QHlUI9Ct69OtKRi4h7X4kO0dxPoDVQIdb/NwfOc9ID+RU41rUAz8N/IQ8wW+/Bu2VaaIDUDY9gcKCGB3vuI0Vn7xt7KF/MeP/bxnXMvlh/mI+/HYGh+MT9A5HcCKrxY0h3aswemBt6lQpuBz3T0vjGTRhjZpdPYr8/L0wZqAh8vyjZkA95EcGhX1J7ciT+nYAW4GVwD70iS5HEAAAIABJREFULwtdaogzZNkUA8RTwr+/r9XK3pnTiA7XtqKZpkwmedKf2blrqI3m1LnzfPL9z3z58zxSxIS+Mq9DkwqMHlibnq0j/1OQ6J6xvzFnleKiTTbkRGJnFGzrCVQEwgArckXHPCAduQDTKeQKjoKDiA5A2fUTMKAkG0wZ/yQP3d3TQeFopIzP+P9j7wHe/+pH5iz7jdy8PL3DcSh3NxNBgRaCAj2xeJoxmST8feUCgZ6eZrws8nEgSXKlPJvdzpUr8vUkKzufzKw87HZISc0iJS2b9IzCKgGXDtWj/XlmeD2G9qiKh7uJa1l5hLT7kYxMxcfKJqClhiEKTiQ6AGVXOLAFudZ6kYbGdeL7lxSXQneOMlzad+P23bzyyZes2PC73qGo5ulhJirCl8hKPkRV8iU60pfwUG+CAzwJCrQQHGShXLAFPx9t/9bZOfmkpGaTkprFpZQsklOzuHAxk6TTV0k8mU7iqasknrpKckqWpvvVQ8UQb54cUofygRaGT1qnpimRZ9+FiQ5A2VYd+PX6fws0qGsHvpr0DBYPA19cPd3Bu+xN+lu7dTsvf/Qla7b8oXcoJRYWYqVOzSDq1gymVvVAYqP8iI7wIyzEaujpG1fTc0k6dZWEk1c5fCyVfQdT2H84haPxaeTmuew6eiXsyM/xE3SOQ1DIwF8zwRkeGjo0JNLfcuazWfPNpy5cvOl3TevW4omBd9O/Uzudoismswn8fMvUpL9Vm7by8sdT2fDHLr1DKZIkQfXKAdzRKJQ6NYOoUzOYujWCCA6y6B2apnJybRw+ksr+P1M4cDiFHXsusmPPBTKuldpHMTuA2/UOQlCu7JwxhVuy7934A9k5Q/Ly8zl++izxp85gtXhSuVIFKoWU1zu8oknIF/8ykuZ354HDjHvrQ1Zt2qp3KAWyeJq5rX55mt0eRtPbQ2l6WyhBgaXrYl9ceXk29hxIZsuO82zedo4tO85x9vw1vcPSynPAG3oHISgnOgBlmP3AGh+ypFRsNtedNedtBU8DP5rQSMKpM0x8/zN+WrgMm81Yw8xms0TjBiF0bhdBuxYVaVivPB7uZXsVRmESTl5lw5azrFx7kt82nCI1LVvvkJSqAfypdxCCcqIDUIbZ9278luyc4XrHoZiHB/hY9Y7CoVLSLvP21O/48NsZhkreUz7IQqtmFejWMZK4DlEE6lDLvjTIz7ez92AyqzeeYsnKJLbuPI/N5hLL3Pchr+UXXJjoAJRRdrvdxM51Gdhsrjk2W8qT/eTn2/h8xi9M+uAzUi9f0TscAKpF+3N3j1h6xsVQv3a50vrR6+ripUyWrk5izqLjrN142siTCl8GJusdhKCO+AqXUfa9GyeRnfOy3nEoI4G/b6lN9rN930Eenfwm2/bon+k0MsyHXp2i6d0rlqZ3hImLvhOlXc5m8apE5i46zqp1p4zWGaiHPAoguDDxdS6j7LvXJ5ObF6R3HIp4e8vL/kqZiympjHvrQ76dsxC7Xb9h4LByXgyOq0LfHpWp3zgEe9mYX2loFy9lMn/pCWbOO8bv28/pHU4ecCewRO9ABHVEB6AMsu/7vQ9ZmXP0jkMRiydYS1eFP7vdzuczfuH59z7VbbjfZJLo3Kwi9/epQVynKPA1iwu/QR06mso3Mw4zY+5RUlJ1TUo0A3gSOW2v4IJEB6AMsu/ecIjc3Bp6x1FiZjP4+1CaDtvjJ09z/4SXWf27Pol8wstZGdazKg/eU4PIGF9yvSTs5tLz+ZZm2Tn5LF6ZyNfTD7Fm02l0GjRKA8YBXyKK9Lgc8U0vY+wHN0WRkZ2gdxwlJknypL9Sst4/P9/Gh9/OYNIHn3Et0/l3cW1uC+fJoXXo0ToSycNErlXChReDlnnHTlzm828P8P2sP/WqabAKucT4cT12LigjOgBljH3fxgVk5Ri8os8tWL3k4f9S4FjiSUaOf4n123Y6db8mk0RcywieG9WAZvVCsJsgz0siz1OcBkqLK+k5/DDrCP/7Yg+nz2Y4e/eZwATgI8RogEsQ3/wyxG5f48Yu0zXy811rBp27O/i6fp5/m83Gu9N+4IUPppCd47w1/b7e7oy8qzqPD65NdAVfkCDPUyLXSxJngFIqJ9fGzHlH+ejLfRz8M8XZu18MjATOO3vHQsmIr38ZYt+74RWycyfqHUeJmEzykj8XX3925vxFho2dxG+btzltnwG+Hjw1tC6jB9Ym4HqZ3HwPyLWasJfOFZTCv9jtsGJNEq9+sIMdey4WvYF2LgL3IxcbEwzKtc+qQkECgI5AVcAdSARW2net30teXrCukZWUr7c8AuDCfl21llHjX+ZSappT9ufr7c6YgbV5elhdAv3kxyZ2k3zhzy/9WZOFW7DbYfHKBF5+bzv7Dzl1ROArYCKgR75jO/IkRaEAogNQugQgZ+h6APj3A3P73e1bS2+PeZDYiuHOj0wJF1/yl5mVzdOvv8+U6bOdsj+rxY1H+tdk3Ij6lAv4J8FjnqdErlUM9wtgs9mZt+QEr72/ncPHysy1MQO4hjwqcfSG1wFgO/p0TgxBnBJKj1hgGfJdf4EC/XyZ987LtGlU3zlRKWU2Xy/xq3cgyvx5PIG7H3mGA0fjHb4vN7OJh/rW4PlRDQkr90+HyWaGXG+TmN0v/Ed+vp2ffz3Gy+/8QdLpdL3D0VMm8DuwDlgJbKEMTWB00dOr8C++wFagZnHeHODrwx/fTaFKREXHRqXY9SV/bq655G/u8tWMeHYyV9IdPwu7S/NKfPBMU2rGBPzzQwnyLBK5FnHXLxQuMyuP/32xl/en7CbjWp7e4RhBAjD9+uuQvqE4njg9lA4vAS+UZIO4Fk1Y/D+DlvL2ssgvF5Ofb+O5dz/mnS+/d3gq32pR/rz3dBN6tI686ed2E+T4iLt+oWROn81g0ptb+Xn+Mb0SChnRFuAtYAFgqEIMWhEdANfnC5wC/Eq64eFfvqN6VIT2EanhokP/F1NSGTBmvMMz+gX4ejDpgYaMHlgbd7ebp/Lne0jkeIu7fkG5bTsvMPbFzWzfLbL73uAgckdgBnIdhFJDnCpc36PAJ0o2/GjsaEb3761xOCr5+brc0P+O/Yfo/dBTnDzr2GXPA7tV5n/PNCUk6OaJkXYJcn1MuFh2B8XSM3JJTs3iUnIWKalZXErJIiUtm6zsPPLy7KSny5nwMrPyyMrOB+RVpAHXV0R4eJiwWt2QkAgOshAc6ElQoIWgQAvBAZ4EB1kwmcruqdFuh29/Osxzr2/h8hXn5atwAfuBx5DnC5QKYqDQtUnIB6QiiecMlqfDYnG5i//SdZvoP3ocVzOuOWwfFcpb+WRCc3q3j/7P72zukONdutb1p6RmceT4ZRJPXiXx1PVXkvzfU2cyyM7Jd3gMoeWtRFbyITrCl6hKvkRFyK+YSD9iIn1LdQdBkmDEoBrEdYrk+de2MmPuUb1DMoo6wFpgEfAIcFLXaDRQeo/isqETsELpxmOH9OOdxx/SMBwVzCbw83OpI/K9aT/w7FsfYrM55vGgySTxSL+avD66Mb7e/729z/Ny7Yl+uXk2/jyaxv7DKew/nMy+QykcOJzCmXNOT2FbIlYvN2pWC6RurWDq1AiidvUg6tUKJjCgdKSq/rcFyxJ4ctJGzp53XCfXBaUBowDXrKp6nYueOoTrFgCK8/p/Ou5xHrnnTg3DUUoCP29wc40Bqbz8fB6b/CZf/OS4736t2AC+nNyK5vVD//M7uySR6yO53JD/1fRc/th9gd//OCe/tp8nM6v0PFINC7HSvHEYzRqH0bxxGPVrB5eakYLLV3J47vUtfPvTYTFJ8GafAmMBXesyK1U6js6yKQY4Bige/D3+63RiKhggKZALJfy5fDWdfqPHsWLD7w5pX5LgicF1eGNMYzw9/vs4xGaGHF/XGPK/mp7Lmo2nWbnuJJu3nePwsdQydfEICrTQ9LZQ2reqSOe2EVSJ8dc7JNVWrT/FA0+t5dwFMRpwg11Ab+SMqy5FdABc17vA00o3bntbA9Z8/r6G4ShkMkGAL65wKJ6/lEy3EaPZdfCwQ9oPDfbi65daE9fy1isz8jwlcr2N/TmdSLrCklVJLF2VyKZt55zyvN5VxET60a5lRdq3qkinNhH4+rjYEM51ySlZPPzsehatSNA7FCM5C3QD9ugdSEkY+2wiFMSKPAElSGkDc95+iT7tWmkXkVIukus/8fRZOg9/hCMnHNPJv6tdFF9ObnVTCt+/SZDrJZFnMebXdfvuC8xZdJx5i4+X9axyxWbxNNOpbQR394glrmMUPreY42F00+cc4cmJm0jPyNU7FKNIA3oBG/QOpLiMeUYRinI/MFXpxhGhIRz/dTpuZp1n3Ht4gI9V3xiK4cDReLoMf5TT57VfG+3t5cYHzzTl/j41bv0GSU7sY7Tn/YeOpDJ38XF+nn+MYycu6x2OS7N4mmnXsiJ9esRyZ9cYl+oMHIlPY8SY1ezad0nvUIwiE7gLFZOznUl0AFzTHqCe0o1fe2Qkz40YrGE4CphM4O8DkrEfZm/ZtY/uo8aQkqb9Ra5mTABz3+9IjRvT+N7AaFn9klOymD7nCN/MOMyf8WWmkIxT+Xi7c0/PyowYWIPGDUP0DqdYcnJtTHh1C1O+2a93KEaRDrQHHJsVTAOiA+B62iCvRVXE4uFB0qKZlA+89UXHaaxe8uQ/A1v9+x/0euAJMq5lat723R1j+Oal1rdc3gdgc7s+2c8A39Bd+y7x1fRD/DT3aKmatW90NaoEMLhvNUYMqEFQoPFTY/809yijJ2zgWqZjjhF/Xx9MppLdMKRevuKQWIrhItASOKJXAMVhgNOLUEKzgXuUbjy8Rxe+nTxOw3AUcHOTl/0Z+PBb/fsf9Lz/ca5laru6x2ySeH1MY54ZXg+pgH9+vodEjo++n83V9Fy+nXmYqd8fID5Bt5OoAHhZ3LinZyyjR9WjTk3F036cYt/BZAY8sJITSdofMyPu6cW0N14ocSfgWmYWSWfOceREIofiT7Dhj11s+GOnM4p1nQCaIHcGDMm4Z2DhViKA46jI4Lj9+8+5rWY17SJSwuDpftdu3U73kWM0v/iXC7Aw8632dGhSocD35HtK5Fj1S+5z/uI1pv14iM++2U9qWpktk25YzW4P4+lH6tOtQ1SBHUi9pV3OZsTja1i+Oknztu8f0IcvXn0eSeU/Pj/fxobtO/lx/hLmLPuNtCtXNYrwP5YC3TFoiWHjnoWFWxmH/AhAkWZ1azFp1FANw1HAywKeHvrGUIi1W7fTY5T2d/4NawSzZlp3GtYILvA9fy/z0+HEvu9gMs+/tpWHn1nP2s1nyMoSy/eM6NSZdGb9Gs/CFQl/ZyQ0GyzZkMXiRr9elbHZYNO2s5q2vXP/Ic5fSqF7u5aqOgEmk0R0pQr06tiGMcMHElouiINHj3P5quarWKoCGcBmrRvWgugAuA4L8CPgrbSBt0Y/QN0qsdpFVFImSV72Z9CBp3Vbd9Bj1OOaP/Pv3iqCxZ90oXxgwcmO8rwkcq3O/1wOHUnlyYmbGPviZvYdSsFmM+SNivAvFy5msnB5AtN/OYK31Y26NY2VdVCSJNo0r0B0pC/LVyeRr+FxtX3fQS6lptGtTQvVIwEA7u5uNGlQl8eG9Sc40J/fd+0lO0fTIkhtgZXIVVsNxThHjFCU4cC3SjcOCw4iceFMPNx1nFLuY5WX/hnQll376DjsIc0v/o/0q8VH45sVfJcmQa5VIs/TuV/FP+PTeOfjXfz86zHy88VF39VFR/gy9tEGDO9fA7PZWKf1dZvPMOCBFZpXFhwzfCAfvvCMpm0CnLuYzOOvvM2sxSu1bPYg0AAwVNIEMQLgOqYBBT88LsLYof3o0LiRhuGUkJubYdP9HjgaT6dhD3NFw+E/SYLJDzXinSfvwFTQXYoEOVYT+U68+CecvMozL/7OmOc2sPdgssum5vXy9qN8hWgqRNckMKQiKReU3VyVDw2nUbOWeFmtmCQT2dlZ2B1U3MmR0q7ksGRVEvOXniCsvJUaVQP1Dulv0RG+9I6LZeXak6RoOK9k65792O122jW9XbM2AXy8rfTt1onYyIqs3LiF3FxNVjWUB65gsEcBxuoqCgVphooDx8PdjYQFPxFeruDnzw4lIU/80zvx0C0knj5Ly373cUrD0shenm788Fob7u4YU+j7crwlp1380zNyeeeTXXw8bR9Z2cZ/vu9hsRJaqQohlaoQGiH/N6RSZcqFR+EXFIq7xz/L4vb+vpQPn+6laD+tOnXjs1kL/v7/7XY7KRcvcPH8OZKOH+PkiXiSjh8jMf4YSfHHuHhe22fajtKqaTjvTG5Ovdo6fedv4cKlTO4esYwde7SdFP/pS+N5ZEg/Tdv8y84Dh+k+cjTnLiZr0dxVoCZwWovGtGCQFCNCER5Ts/Hd7Vvrd/EH8PA05MX/YkoqXe59VNOLf4CvB4s/6XLLKn43ynXSxd9mszNj7lFeeHObYQu4ePsFEVW9IZHVGsivqg0IjayKyeT8Y0aSJIJDQgkOCaVG3fr/+X1q8iUO793NoT27OLxvD4f27SIp/pjDSkIrtWHLWZp3n8vwAdV5cWxjypfTf/QtpJwXy2f1ZOCDK1m59qRm7Y5+6W1CgoO4p1tHzdr8S6PaNdg0+1u6DH+EY4mqY/YF3gCGqY9MG2IEwPjCgQRA8cPzzV9/QrO6tTQLqEQkCQL8MNqapasZGbQf/CDb9x3UrM1AP0+WfdaVO+qUL/R9uVYTeU7I67J1x3nGvrhZ8zsutQLKVaBag1ZUb9iaag1aUSGmpuK2vC2QsGcp40doMwKgxJW0VHb8vpHtm9azY/MGDu3djS3fOKMsfr4ejB/TiEdH1sHdTf/Mmzm5Nu4d/Rvzl5zQrE0Pd3cWTfuQTi2batbmjc6cv0iLfiNIOHVGbVP5yKMAR9VHpZ6xzsrCrUwGXlS6caMaVdnxwxfaRVNS3lbDLfvLy8+n+8gxmpb0DS9nZeUX3ahdufBnr7lWxxf1uZqey+S3tzH1+4OGmNXv7mGheqM2NGjZg1qNOxIaUUV1m37eUKEc+Flhw8qlPNJPvw7Av6VfvcL2TevZsGIp61cs5dxp7e521ahbK5gpb7emUb3CO6jOkJdn44Gn1zJz3jHN2vT39WHtjC9pUKu6Zm3e6NCxE7Tqfx/J6tOCfwE8pEFIqokOgLF5IN/9hytt4JvJz3Jvj66aBVQiZrOc799gh9mjk9/ksx9nadZeZJgPq6Z2o2pk4fXec70k8rwc+1ksX53EmOc3clLnqnx+QaE0aNmdei26U+v2Dnh6KV69ehNfL6hY/noiyeuM1gH4t8P79rB+xRLWLl3I/p3bses489JslnhsZF0mPX07Vi99nwDbbHZGP7eBb2ZoV147PKQc2+b9QKWwwh/BKbVq01a63Puo2kc+2UAsoHo4QS1jnZmFfxsIzFC6cbkAf04u/hmLXkvvfH1Az2WHt/Dx9zMZ89LbmrVXJcKPVVPjiAr3KfR9eRbHrvNPu5zNxDe28fWMQw7bR1E8LFbqNY+jedfB1GnaBbObdlXtfL0gIhR8bvEo2+gdgBudO32SVQvns2DmDxzas8tp+/236AhfPnqjFR1bV9ItBgC7Hca9/DuffLVPszZvq1OT9TO/wurlmOdsE9//lNc+/UptM68AL2gQjiqiA2Bsm4DmSjeecO8gXn90lIbhlIC7+/WkP8axbP1meowaQ36+NhO2Kkf4sf7rHlQoX3hJ43xPiRxvx33VlqxK5KFn1nEpWdvshcVhMpmp27wbzbsNoX6L7jfNzteCxQMqhUCQb8HvcaUOwI2OHNjH4tkz+PWnH0i+oN1E1OKSJBg1pBZvTGyq+2jAhFe38OHUvZq11zeuEz9/9KYmiYL+LS8/nya9h7LzgKqRi+NAFXROEWy8qdnCXxoCryrd2Gwy8d1L4wnwLfzO1GF8feTMfwZx6NgJ4u4bTWaWNuuQK4V6s+bL7kSGFf75/lXVzxGysvMZ/8oWnn35d65dc26VPv/gMNrf/TCjXviGdn0eokJMLcxm7S4i7mb5jj82HKxFFI1MOn6MxbN/UrSfqMpV6d53oKJt1QoOCaVZ244MfvAxqtWuy5XLaZxOTHBqDDv3XuTXpSdoensoYSGFd2QdqUOrSlxMzmTnXm0mrB48ehyQaKtxjgAAk8lEo9o1+Gr2r2oe5wQCy9E5O6DoABjXG8iZoxTp3bYlD/bpqWE4JeDpaaiJf8lpl2k76H7OXbykSXth5bxY+1V3Kkf4Ffo+mxmy/UwOGWfbc+ASPQctYZkDCq4UpnqjNgwY/Q7Dxn1G7SadsPpqX1a6nD9UjZAn+BXnBs5VOwB/MZvNVK5Ri14DhtC1Tz/MZjPxhw+Rq2062gIlp2bxw6w/sVjcuKNRiEPumosiSdClXQSJJ9PZd0iTNfes37aTmpVjqV2tsibt3ahiaAjxSSfZe1jVZP4sYIlGISmi/5oQ4VbKAQPUNDC6f2+NQikhSQKrcWqX22w2hjz5PCdOapN7I9jfk5WfxxU54c9uun7nr/G51G6HD6fupU2v+fwZn6Zt4wWQTCYate3NxGmbefaTVTRq2xuThnf7f/H2gtrREFtBHgEoi2KqVmfcG++zYl88oye+THCIYyaz/VtOro3nXttCz8FLOH9Rn3wRJpPE5++2oXecNvVK7HY7I8ZNZtdB7SYZ3uj5R0aWuDTxv9ylVSxKiQ6AMd2PXPxHkTqVY2h7m+LBA3UsnoZa8//SR1NZtl6b7Jv+Ph4sn9KNOlWKSLMqyRd/u8bfrqvpuQx+eCUTXt1CTq5zEs+06jmC12bs59HXZxFTq7FD9mE2QVQY1IqWOwEC+AUE8sDTE1i+5xiT3v+UkPCKTtnvmk2naR43ly07nD8nAeRVCt983J4u7SM1ae9aZhZ9H33WIeV+q8dG06dLezVNVAR0rc0uOgDG44bKNaKP9dOpY2kygcU4d/9L1m7k1U+nadKWxdPMoo87c1utckW+N8dbwqbxHezR45dpe9d8TZOnFEeVei0IjazqsPZ9rFA7BkIDxYzkW/G0WOjed6BT6xOcPX+Nzn0X8t6U3U7b54083E3M+LwjzRuHadJefNIpRjz7okOWXz48uK/aJtpqEIZiogNgPHcCiru/Ab4+DOnWScNwSsDLYpizeOLpswx7epImKVolCaZNbkXLhkWfkHK9JPI9tP0QlqxKpHWveRw6kqppu8UxZ8rzZGZc0bxdswmiw6FWlDzTXyjY1PfecHoNgrw8G5Pe2MZ9j6/mWqZzJ5gCeFncmDWtM9UqazPHZP7KNXzw9XRN2rpR2ya3qc050EarWJQQHQDjUZX3/75e3fB20PrXQpnNhpn4l5WdQ5+Hn9YiYxcAb4xpzOC4orPX5Xtom+jHbodX3ttO35HLNS+lWlxXUs6z+Ls3NW3T1wvqxtoJ0X7+YKlz8sRxfpzykW77nznvGB36LODMuQyn7zso0MKcb7oSHKTN+Wz82x+xeeceTdr6i8lkom+cqhoETbSKRQnRATCW2qjoEZpMEo/21Wn4X49ORwHGvfWh2jW6fxvZuzrjRvy3KMy/2dzQdK1/Tq6NUU+u4Y0Pd+pesnflzx9y/qQ2KVtDg6BGFHi4G2SoyODenfQsOdnaldBVYs+BS7TsMY/d+7VZRVMSlaP9mP9dN03yFOTm5dF/9Hgupmg7kta+2R1qNo9GRZ0XtUQHwFjGoGIQPa55U2IrKs4arJybG3hol/VNjWXrN/Px9zM1aatri0p8PrFFke+zS5Djo92M/7TL2fQasoSf5hqiXgh5uTnM/nS8qjbc3eQLf1SooeaIGtrW9WtYvfhXvcMA4NwFeV7A0t+cu+wU4Lb65Zn6fltMGuQVOXXuvObzAVo1bojZrPhSakZOC6wL0QEwjkBgsJoGdJv8Z5BlfxeSUxjx7GRNvtz1qgUx6+0OuBXji53rLWk24z/h5FXa3fUr63/XPU34TXat/5X9W1co2tbfG+rEyuv6heKx5efz1oSn9A7jJukZufQbtZyp32tXQbO4+nSP5eVxqu60/7Z4zQamzpyrSVsgFyGqHhOtpgnHzbItgugAGMcIQHHu3OpREXR2QNarIrm7yyMAOrPb7Ywc/xLnLqpPIhLo58m89zvh6130qEaep3aT/vYcuOTU9f0lNfeLSSXepnwgVItw7Lp+i5fynoWX1Zi9koU/T+fowf16h/Ef+fl2npi4kZff3e70fT/1cH369tImqc/Tr7/PsUTtqjRWjVa1bDFKqzhKSnQAjMEEPKqmgUf73qVLBi+8isjT6iRTps9m0eoNqtsxmSSmv96W2EqFJJ+/zuYmkavRc/+tO87Ttf8iLiZnatLev9Vp2oVyFaJVtZF4eCfH9hWvhLJJkhP6xIQ5fsg/vJLyk294hDbrzbX24+fqJ/7dOWgYnhbHJFZ486OdPPPiZqfPT/ns7TbUqh6kup2Ma5kMfXoiefn5GkQFVaNUFVUqPKWoA4kOgDHEoeI5kK/VyvAeXTQMp5gMcvd/5EQiY9/4QJO2XnyoEd1aRhT9Rkm7SX8bt56l19AlDpnp7+5h4Z5HXueJdxfQ77G3VLd3eMeaIt/j6Q61YuSUvs5QKTqGqMpFr9K4lebtdFoyW4i0lGT+3K+uMM4drdry6qdfMWvdNmrWc0xSsE+/3s+oJ9eQl+e8HAXeVjdmTu2En6/6eXNbdu3jjSlfqw/KbqecupGkou82HER0AIxhtJqNh/fojJ+3DkOZBrj7t9lsjJrwsiZFfnq2ieT5UcU7Web4SNg1GNZeseYkdw5dytX0XPWN/UuFmFo8P20T3YY8g2QycVvbPtS6Q9WSJZLPJRb6e6sn1IwuuoCP1vrdV/LcWdFVq9GkdTsHRKPOmaREVfNYTGYzz77+HgCx1WowY9VmHh43SW3a2lv6ae5R7nt8DblO7ARUifHnq/+102Rk6ZWPv2T7PhVzGuw+h3WdAAAgAElEQVR2uJqBr1XVSIvoAJRh1QHFtyGSpNPSP4Pc/U+Z/gsb/lBfV71qpD/fv1q8mcb5npCvwTK2RSsS6DdqOZlZ2ida6dR/DJO/3UZElXo3/bz/Y29jMqnpuRT87/b3kS/+HjocFgNGPkStBo2K/X6zmxsT3/0EswGO4X+TVF6o7xk2kup1/vm7u7m788j4F5g6d6lDagv8sjCeIQ+vcmonoHunKMaNLv7fuyC5eXncN+5FcvMUfAftQPo1yMvDy1NVj1e3BNiiA6C/R1GxgKzjHY2ooW4CijIGuPtPPH2WCe+of1Zq8TTzy7sdCCjGsKLdBLlW9V+bVetOMfSR3zTP6e/p5cODL09nwOPv4eb+379RpSp1aX3nSMXth0bcesJySABUryRn+NODh6cnH02fQ+XqNYt8r5u7Oy/+73ND3v0DRFWuovhu3S8gkMeef+mWv2vSpj2z1m6lwR3N1IR3SwuXJ3DfmNXk5ztvUsDEp26jXQv1NRL2/XmMd6Z+V7KN7HZIz4BceeQuK1vV47ssNRurIToA+vIFhqtpYEz/PhqFUgIGuft/aOJrXM1QX7nszTGNqVeteBOLcr0l7Cpv/jdsOcuAB1aQnaPNBKS/hEZWZeK0TdzRsV+h7+t9/0tYfYsoaFSAes3j/vOz8HJyWl+900CHVqjEjys3MnDUw7i533oFR60Gjfh64SruGqzqa+dQVm8fbm/RWtG2D4+bRGBwwfUqQsIr8vXCVQwc9bDS8Ao0Z9FxHnl2ndMmBppMEtP+146gQPXLkF/++EsOxycU7802G1z95+IPcPWaqvOQ9pWKiqmMFt00jAcAxXV7YyuG8/EzY5w/+9/HWy78o6Pv5i7k3Wk/qG6nS/NKfDy+ebGeJ+Z5SuRZ1H3Wf+y6wF3Dl5JxTdth/4at7+SJ9xYSFFL0bGQPixVPi5V9W5aVaB91m3WlU/8xN/2sUnn5ZRQenp606tyN/iMeoHKNWsRWr0nN+g3p2LM3T05+nYfHTVK1asBZAoKCWfJLyRJaValRi5c/norJXPhp3Ww206pzNyJiYtm4agX5Soa/C7D3YDLJqVl01aiaX1F8fdypEuPPLwvjVbWTn5/PoWPHGda7R+Hn07x8+eL/r9UD89Zu5Pe9B5TufgWwXunGaogOgH4k4Dug6PJyBXj+viG0qF9Hu4iKw91N97S/KWmX6XX/E1zLUjdyVj7QwrIpXYu13t9ukkv8qrnL3XsgmR6Dl3Dlqraz/bsNGcvw8V/g7lH8v0tMrcYkHd3NuaQjxXq/j38wj705B+8bRg4iQyE8uMThOoWX1ZsadevTtE17WnbsSsOmzSkfFq7PUlkFoqtUI+l4PEcP7ivW+63ePnwxbynlSvCMv3qdejRt24G1yxaReU27XP879lwkMyuP9q1ULY0rtupVAjhzPoPd+9SlKj5x6gzRlSrQoFb1W78hOwcyMrjVEMfncxZwOEFxlsR5wDalG6shHgHopxNQQ+nGVosn9/XqpmE4xWSAnP8T3/+MS6nqk+VMm9yK8HLFWz2hNtVv0ul07hy2lLTL2uV1N5ndGDZuCvc88kaJL2ySJDFq0jfUadK5yPf6B4fxxPuLKF8hRt4WiA2HMPXLsYVCvPLJl3TqVfQjvoCgYD74flax5j/8W73b72DGyk3EVlN8Krql96fs4ZOvitd50cLbLzSnaqz6dadjX//gv7UCbNef92dckyf+3cKRpFNqdpugZmM1xAiAfv4HVFO68Yie3ejbsa120RSHmxm8dJuwCsCug4d5aOJrqtP9PtS3Jk8Pq1us9+arHPq/fCWHuIGLSDip3aM+i9WXx96awx0dlNcjd/ew0LTzQLz9gzmfdIRrV2/uVFmsvrTqOYIHX5lB2A2T/6LDobyo5OdwZrOZLr37UjEqmqTj8aRcunjT7z09LcTdM4B3v5lBrfrKZ8T7BQTQve9A9u3Yxpmkwpd5lsRvG05Tp0Yw1as4/mDxcDfR7PYwfpj1J/k25eeGzKxsUq9cpVeHNvLFPjtLnulfSMKgKxnXeObDz9Wck14BnF9pCd2n7ZRZscBRVIzA7JkxjXpVnVxDwsdHnzVe19ntdlr1H8mmHbtVtRNbyZe9s+/GuxgVxuwSZPubFOf6z82zcdfQpazZdFpZA7fgHxzGkx8s/s8SPzXsNhtJR3Zz/tQxcrOzCA6PJLrGbVisNy9Rjggx7rB/affn/r0kxh/lWno64ZUiqFGvAf6B2g3D5Obk8PzD97F07s+atWn1cmPZzz24vUGIZm0W5rUPdvDaBztUtWEymdg++1saRkfKE/6KsGLLdrqMflbp7uzIKeAdkwK0CKIDoI93gaeVbtymUX3WfqFN5rtiM5vAX7eMlQD8MG8xw8aWPB/9jSQJVnzejY5Nird8KNdqIk/hUw+7HR4au5YfZhfvOXtxBIVGMPbD5YRGOr9+iLj4l342m42Xn3yYOd9rkCHvuuAgC2vn30XlaMefP3JybTTrNodDR9SV/C3JOfaJ9z7lw5lzlO7qOKBNgQMFxBwA57MC96lpQJeqfxZ9n/1fSc/g2bf+p7qd4T2rFfvib3OXFF/8Ad76P3tnHWZV1fbh+9R0zzBBzRBDh3RKSwkIgihYmLx2fravor52IQYqKiYGBiZISHd35zAww3THie+PAzrCxN5r7X3OxL6vi+uSmfOsvQZn7/2sJ37PjM2avvyjGzTl4XeXeOXlHxdpvPzrAmazmafenMnVU+/UbM30jCKuuHG+5sWv5eFjM/Pey/2lRwcv27yNuYuXVfk5l8vFT8tWylxqtYyxLIYD4HmuwT36V4hGMdGMHdBXw+0owGIGX3ntbRle+eBT6Ul/MZH+vPZAD2UfNkGphLry4hVJ0qHIssTFt+Shd5cQFZeg2ZpKiQxxn/4N6gYmk4lHXnyD+556XrM19x7M4sZ7/sIpkZ9XSvfO0Uy9vq30Og+99QFFJZU7LSu27uDYqRSZy6ySMZbFKAL0PB8Dwnqcj0yZRP/OHTXcjgL8/bwq/HMqNY3J9z1Gaalcv/LH0/rRta2ypnW7nwmHr9gp4vCxHEZf/TuFhdr0V8cltOKhd5cQFhmnyXpqCAmA5g30n+hnUP3o1LMPTqeTTavlp2wCHDicjc1moW8P/X+P+/aI47t5B8mSGLCVlZtHgJ8vF3equNbm/96aye7DUoWTjwKpMgvIYEQAPMsAQLhyy8/Hh5svu1CJTVdMJpDTuZbmmRkfkF8gVyMzZkA8E4cqK5p0mcHuL/bGKyyyc81tizRr94uIacx9r/9KSLjnj+ABfpDYyOuaTwZe5M7HnuaGu4XLlS7g2dc28udfJzRbryICA6y88Wwf6XVenD2HtKzscr93JPkUPy2VOsCfBCQmEclj3NqeRSqxduXQgdQL93D/la+vV0tF9x85xqxvfpRaI8DPyoxHlOuf2/3F5X7veWwlW3dq09ETXq8BD7+zmMjYeE3WU4PNCi0aeU/b36D6cN/TLzDxhls1WcvpdDHl7iUcOZ6jyXqVMWxQY8aNlOuUyi0o4KVP55T7vac/+FRsiNA//AB4boJSORi3t+doBFwms4B3iv+8m/t/7NW3sVfSg6uE/5vSgcaxQYo+6zKbsAuG/j/4bDdfzNWm6C8kIoYHZ/xJVP0ETdZTg8kEzRt6tePToBphMpl4/NUZXHrFZE3Wy8ou5prbFmk+CKs8nn+iB36+cpnud+fO41Tav+uPtu4/yJd/LJJaFxBuHdAKwwHwHLcBwo/UXu3b0LV1BRKVeuHj49X477qtO/lhwRKpNRrFBvLQFOVZl9IAsZf/ngOZPPrcWiHb8/H1D+Le134htrGwTpQUCTEQ7F29J4Nqhtls5n/vfkSfwVUrRyphy440pr2yQZO1KiO+YTD33Cqnl1FQVMz/Pv7y77/bHQ5uee41HAo0AirhFCDVPqAFhgPgGfyAm2UWuHOi8Mwgcfy8m/uf9tb70op/L97TnQA/ZX6X02rCIRDwKC5xcMPdSygski/6M5st3PL0p8S37CS9lggx4VBPuEfFoDZjsVp5bfbXtGynjQDV9A+2ayqQVREP3H4RcTESLT3ArHm//V3t/8rn37Bxzz7ZbX0AaDsOVADDAfAMkwDhmWlxUZFMGNxfw+0owGZ1S/96iS279zJ/uVyLbK8O0Uwarlxjo1Tw1Pv0yxvYvkuuRfEcV93zGp0uHqPJWmoJ9HcP+DEwqIjAoGDe/e4XYhs0kl7L6XRxy31LyciUG+pVFUGBNp55pLvUGsUlpTz70ecs3bSV/878RHZLJcBM2UW0wHAAPMMdMsa3jhuFj83DCVkvn/6feetDqdO/2Wxi+sO9FLevOWwmnDb14f8Va08xY5Y2Q0+GXnUPg6+Q+lURxmqBxAYuo93PoEqiY+vz3ne/EBQiP3wn+XQ+tz+s/yTcyZe3oFsnuU6aT39dwMRHn5GuSQK+AU7LLqIFhgOgP72ALqLGNquVqZeP0nA7CjCbwVr1iFy92LHvIPMWLZVa4+qRzeimsOcfwC5w+s/JLeGGu5doIm7SodcIJt75svQ6ojSJAx8BB8igbtK8dVuen/mJJuOVf55/lC+/104xszxMJnjpv8o7gcrD7nBwRn4KqQPw3o1+HoYDoD93yxhPGNyPuCgPa7D6+ni19e9/78ySOv3brGaemqp8OprD5s7/q+Wx/60j+bT8HPXI2Hhu+u8nmLxUcBkTAeHBVX/OwKAsA0eM5pb7H9FkrYemrSE1Td95OD27xDB0oHzqQpJPgZ3e3sQ5DAdAX+KAqgd6V8JdV0qZC2Dyavj/4LETzJ0v114zZUwLmjVSPnjE7q/+Nlix9hSfzNmj2u58bD5+3PHCdwSFekdo398HGglXpxjUde547Gn6DhkuvU5mVjEPTVujwY4q56kHu3kzzVUEPO21q5eD4QDoy62AcCN951aJ9GrfRsPtKMDX5lXd15c/+BSHQ7y9xtfHwhO3XqT4806r+48aiksc3PPYCiQbFAC49v/e8VrFv8kETesbSn8G4pjNZl784FMaJjSRXuvbeQf5baGUrG6VdGofxehhCbpeoxJeA/SXQVSBcevrQz3gBuB2mUXuutILrX9eHPqTnpXNFz/9JrXGzeNaKhb9ASgVkPz93+ub2HtQOhdI/7G30OfS66TXEaVBlLvy38BAhtDwCF79eA42H/lnx31PriI3r1SDXVXMk/d3lZ4WKMBu4DlPX7QqDAdAO5oC9wALgWTcQ3+Ey06jwkK5auggjbamEIvFq0N/3v9qLoVF4hr6fr4WHr1J+aAkpxXVlf+79mbw5gfb1W7tAuISWnHV3a9KryNKgJ8x3tdAO9p26sKdj02TXicpOU93gaC2rSIYN1I+YqECB+4Dob79jgIYDoA4FqAP8BKwFzgEvAkMQULx7xw3jx2JnwYetSq8mPsvtdt578u5UmvcPrENDaIDFX9eJPf/yLNrsdvlJEwtVhs3PfkJPn5y4iSimEzQrL4x4c9AW6bcdT89+g2UXueDz3eza2+GBjuqmCce6IrF4rEb4GVgvacupgbDAVCHP+4X/HTcuZyVwEOAphq9FrOZqZeP1nLJqjEBPt5r/ft+/mKSTovP1bZZzdx3TTvFn3eZwaHSTZv3xxEWr0hSubMLGXfrMzRp3VV6HVFiI8DfuzIPBrUQs9nM8zM/ITQ8Qmodu92pe0Fgy2ZhnqoFWAz81xMXEsFwAKomCrgO+Bb33OaFuFv7dBtqPXZAXxLiYvVavnx8fL16JJw++ysp+8kjmtEwRsXp38+kqtWxuMTB48+vE9jZv0ns2Ifhk++XXkcUXxs0MKr+DXQiOq4Bj70yXXqdv1ad5PdF+hYEPnCb8mJhQY7hVoGV1wjXCWPeV/m0Acbgnt7XHQ87Sndc4YWpf14s/tu0cw9rt4ir6ZlMcP+17VUYgEPlxL8Zs3Zw+Jj8CNPDu9bz9fQHGHvrNPwDlbcqakV8LHi+/smzFOTncfTAfjLSz1CQm4vD6cDPz5/g0DAaNWlKTP2G3t5irWXdsiV8+NqLmqz10LQ1DO7XEF8ffSTJu3SsR6+usazZqJso3zt6LawVtfxRoBgL0BcYjful39xbG2nXrAk7vv7Isxe1WCDUe0owdzz1Iu9+8a2w/SU9G/DnzBGKP2/3g9IA5T5daloh7ft9rWl1cmhkHBNue45eI67VRE1NCeHBkFgL330F+Xks/eMXVv+1iI2rlnPy2NFKPx8YFEzH7j3pfvEABl86loRE70xdrE0cO3iAlx9/kOV//q7pui880VN6ml9l/Dz/KFfd+qdu65/lBLAOWHD2T7VpBazLDkAQMAz3Sf9SoFrURF81dBBz/veEZy8a4O+1AsDComLq9xpKVk6u8BoL3hvB0F4NFH++KMyMS0VM58GnVvPuJ/qId8W36syke14nsWMfXdY/h8kE7ZuCn/cCPZpzcO9uZs94jYXzfqAgP094nQ5dezDpltsYcfmVWLzYBVMTKcjPY/aM1/nozZcpKRbv4KmIiHA/dq+6ipAgfX5xnU4XFw38loNHsnVZvwJ2AF8CXwD6j0OshLpWA1AfmAr8DpwB5uLO71eLlz/AXxu3SI/AVY2nuw3K8OOfS6Re/u0TI7ikp/KXv9NmUvXyP3kqn4+/klf8q4hjezfz0u0DmTVtCnnZ2kwULI/YiNrz8k8+fpT7r7+S8X06Me+rz6Re/gDbN67j0alTGNWtDQt+/E6jXdZ+5s35jBGdWvLeS8/q8vIHyMgs4u1Z+innms0m7rpZRfpQG9oDLwLHgfnAcLx0GK8LDkAH4AncbRhJuMcwjgD8vLmpikjJyGTHwSOeu6DN5tWk8Eff/iRlf+/V7VTVLtpV5v5fmrGFomJ9x3a7XC7WLPiSp6/vStIh7R92Vkvt6Pl3uVzMnvE6l/XsyMKff8DplGvHPJ+ko0d48MbJTB0/kpRk+W6P2orT4eCRW6/nidtvIuNMqu7XmzFrO1nZ+jgYAFdPaEFYqFcioGbcUeg/gK3A1Xj4nVwbHYBz+fwXcffnbwOeBbpRQ1Iei9Zv8tzFvHgsPJqUzNJ14j9raJAPVw5rqvjzLhM4VPy4R0/k8tk3ewV2JkZmahJv3Hcp2enaFiU1qOd2Amoymelp3H7FaF7778MUFRboeq3VSxZyRb9urFy8QNfr1FRefPR+fvtOrmtHDdk5JUzXQHyrIgL8rVw1zmtlX+fogDslsAMY6amL1hYHIASYiDuvcgZYATyMxv35nsJjDoDJBDbv5Tw/mfuz1Clu8shmBPor37/ayv8Xp2+mpFTbU2ZVZKUl8907j2q2nq8PRIdptpxXSD5xjOtG9PfoCzkzPY07rryM7z750GPXrAlsXb+Gr2e95/HrvvvJTtIz9BPSu3FSa93WVkkb4DfgJ9wpa12pyQ5ANO78/S+4+/O/ASYD4d7clBYs27yN4hJ99bCBs61/3guKzPllvpT9LZe3UvV5NQ7AsaRcvvrhgNotacK6hV+TkyEuilSWBlE1W/Hv5LGjXDusP0cP6DsvvjycDgfPPnAHX8yc4fFrV1e+ev8dz9coAbl5pcyYJd4qXBXtWkfQ9SJh5XY9uAz3/IBb9bxITXMAOgFPAZuAFNyzlUcBtUrXrKComLU7d+t/IS8W/23ZvZcDR48L23dtE0WnVsoT206L+49S3p61Q1ryVxSnw86u9Qul1/H1gUjPSw1oRsaZVKaOH0HqKe8VSrtcLl55/EF+nzvHa3uoLrhcLlYsknPaZfjg893k5et3MLpxsroDhQcIBd4HvgN06dOu7g5A2Xz+fmAz7nnKnb24J4+weMNmfS9gNns1Mfz1L3Lh3FvG63f6z84p4dNv9qndkqaknjwsvUZNPv07nU4emXo9xw4d9PZWcDqdPHnnLezZtsXbW/Eq6WdSyMvxaLvcv8jKLuazb/W7LyeMbqZbu6EkE4CNQFutF66ODkA47lD+10A6/+TzE725KU+zUKI4ThFePP27XC7m/rFI2D4owMak4c2UG6hU/pv1pb4nDU/gV8NP/x++/iJr/hL/HdGakuJi/u+myRQW5Ht7K17DVA1qqN+etQOHQ58URFCgjQljVDxXPEsLYDXuWTSaUV0cgATc+vqLcIf2vwSuxB0CqVGE+/ozukkrXuk7nBvbdBFeZ+PufWTlyvU3V4qv9wb/bNyxm8MnxMO6lw9OIDhQ+f6dVhMuhc+uUruTmbN3Ce5MO6IbKO9uKI/YiJp7+j926CAfvvqCt7dxAccOHWTmK//z9ja8RnhUPYJCvPtIPnoil5/+0K9N+uoJ1fqcGQL8ijsioAnecgBMQFfc7XnbgCO4J+wNBrz3ZhIkPjiMa1tdxIeDxzL/suv5b/eBDGjQhH4NEoTXtDscLN20VbtNlsVqccv/eolvfpOT3pw4VN3L0aHiN+rbeQc5eUr8lGcymzGb5f5tzWYLLTv1F7a3WqFeDa78f+Hheygurnaj0wH47J03OXbQO8Wh3sZsNtP94gHS61htco94PVsCe3aJpWH9IN3W1wBf3NHxG7RYzJMOgC9uAZ73cGshb8At0KOf0LNOmE0mOkbFclfHnswdOYm5Iydxd8deXBQVh7nMsat1eD1CfMTrExet16kOwIvhf4AfFiwRtg0P8VWl/Afg8FF+FP7gM7niyy79x/HkJ+to2amf8BqdB4wjIqaRsH1MeM09/e/YtIFVi3XXZhfGXlrKh29oM+ymJnLtbXcL24ZFRPLYK2/x3re/SO1h49ZUNm8/I7VGRZhMMH6UXPTNA1iADwHpqXF6OwARwBXAZ7hb9X4H/gOoe4JXA3wtVvrWj+exrv35bfR1zBo8jutadSI+uOKjltlkonO0eCunboWAkh64DLsPHuaIZPjfx6b819ZpRbH07669GWzYIqdsNmzy/TRO7MhD7yzm7pd/pF79JqrsQyNjmXTva8LXN5tqdt//R2++7O0tVMlv383h9MlqM8/Fo3Tt04/Jt96hysZitTJhys38vG4Hk26+jZ4DBtOxW0+pfXwyRz+BrhrgAIDbCZgDiJ800McBaAbcDyzF/dL/FrgWd/6iRhHpF8DYpm14/eIRLB53A29cPJJxzdoQ5R+geI0eEie5vUePcyJFY6lNqxUs3iv9+GPpKil71eF/Faf/jyQ1/1t3GUjTtt3//nvHvqN45sttjLt1Gr7+gVXah0bGcdfLPxIWJe40RoZ6VdtJisy0Myxb8Jtm6/kGhREcE09I/aYERMRikkzNnMNeWsqv33pOCa+68eCzLzP0svGKPttr4BDmrtjEU2+8R3hUvb+/fv2d90nt4bt5h3Qr1O3SMZqERuJdd2azmbaJHikm9APmIdEdoMWjwgx0xy1cMAa3klGNpWloBP3qJ9CvQQJtI6L/FdIXoUeM3PzVRes3c8Po4VJr/Asf75ZY/L50pbBtVJgfg7rHqbJRKv1bWGRnjqTwz/BrHrzgaz6+/oya8hh9Lr2eXz5+jrV/zqG48N81BlabD10Gjuequ18hJCJGag/RNVgGa/6P32EvlXyom0yENWxBvcSL8An8d8Ga02EnO+kAqfs3YS+SkxP+7duvuPm+h6XWqKnYfHx4bfbXfPPx+3z0xsucSrpQz6ND1x7cfP/DDBwxutw1Bo8aS3zzROF6ipy8Eub+cogpV2nfu+9OAzTjtffEarCcTiffvv0SwYGBLFi+mj+WreLXJSsokf3dLp8w3EPtugGqq8ZF325+uPvzR+OuSNRdslAvzCYT7SNjuPjsS79JiPZP0DG/fsGpfLGJd1cPH8IXzz6m3WZCQ7wWAcjJy6de10HCN8LUCa2Y+URfxZ93WqE4RNnP+uX3+7nlvqVC+wJonNiR/87egKkKh7EwL5vdGxdz5uQRnE4HUXEJtOoygJBweRWyAD9opy7jUK24a9I4ls7/VdjebPWhUZdBBEU3rvRzjpIiTmxcRH56svC1ABbtOkJMfTkHv6bjdDjYsGo5Rw7sIzPtDLENGtG2UxdatK16wt7c2bOYdt9twtfu1imaZfOk0+Dlsm1XGr1G/CBs/8YTD3LvDZP//ntKWjrvfTmXtz/7mvQsXbQUvgYmqTVS4wDUw626NwYYCiiPg1czAqw2esU1pl/9BPrUb0yoj76DAZ9d/xc/HxHLWcVEhHNq/twqXyyKsFggVBdBKUX8sGAJ42+/8JSslN/eHsbIvspTKnY/E6UByv7dLpnwM6vWiw/huf6RmfQbc5OwvRYkxNbcCIDT6aRPk2hhoRmTyUzjHsMJqqfshex02Dmy6meKstOErgfw/MxPGH3lNcL2dZ3CgnwGt0kgNztLeI2NCyfQpmWEhrv6h5a9vuLESbFW7OH9evPHJ29f8PX8gkJmfjWXp6e/T16B5kOtpuBWx1VMVcejlsBDwErgFPAx7srDGvfyr+cfyPhmbZne71IWjruBF3sPZWRCC91f/gDdY8VPCSkZmew8pFHfaw0O//v7WhnQVW34X9nLPyk5j9UbxF/+fgHBdB8yUdheCyxmd/6/ppJ8/JiUylxEQhvFL38As8VKw86DMJnEo2H7d+mnTV8X8A8IZNTEyVV/sBK++/mQRru5kKEDxOu3lq3fRFFxyQVfDwzw54Gbr2XXgrlcOvBime2VxwxUFtiX99vfkn9G6e4FXgL64K46rFEkhkVyU5sufHbJBH4bcx2PdO1H77jG+GhUDKSUbtENpTS0NGsH9GL1P8Di1euFbft3jSXAT0XJismdAlDC978eRma+Se+R1+IX4L3ICkB4sFdrO6U5ekh82I/JZCIq8SLVdr5BYQTHJghf1xsDimobV918m1R0s7o6AIVFxayopIurcf1Yfp01na/efJ6gAM3O08HAq2oMyj4yQoFPgD3U0FG6VrOZbjENeaBTX34edQ1fDZvIf9p3p3VEPa+KWEb4+dM8TPngmvPRZDywxbva/8eTT3M0STznOry3uiiKQ4Wv8HAqQXwAACAASURBVP2vcrr7/S+7RcpeC2ry6R/gzKlTwrb+4TFYfcUeoiFxCcLXTT0tV0NgAE1btKJTzz7C9oeP5bB1p3gapzIG9GmgquX4fBatWlflZyaNHs7yb2bRIEazSYRXAQOVfvjcTxcB/IU7h1CjJESCbD5c0rg5z/Uawp9jp/DugNFc1aI9cYHePZGdj0w3wPIt2ykptcttwMun/2WSsw1GqMj9Azhtyn6NjyXlsmmbeKtl8/a9aNisnbC9FtgsEFrjknL/Jj9PrEgW3Cd5Ydtg8aIJmT0b/MPEG+Qc6Lm/6BMFCA6y0atbrLD9coU6Lp3atGLtD5/SsXUL4WudxwwURuzPOQCzcI/arRHEBgRxRWI73u4/mj/H3sDzvS5hWONEgm3VdypwdwkHIK+gUH48sJcdAKU3Q3k0bRhMi3h1R1ynwh937i+H5ML/I64VN9aIyFBqmNt+IcVFhcK2Fok6HhnbogLxPRv8w+BRYwkIFJff/e5nuXu4MmTSAJt27KGgUJmkdcPYGJZ//RFd2rUWvl4Z2uIW4KsSMzAIGKfFVfWkVXg9bm3XjS+GXsEvo6/loc4X0yO2ITZzzUh8XlQvTqr2QCoNYDJ5XR1muUQdw4g+6m5ClxmcFmVvxJ9+Fy+wtFhtdBng/VsnosZJbF2IS+YJ7iXnR2rPBn/j5x/AwJFjhO1PnMzTTRp42EBxB6DUbmftVuWFoiFBgfz+8Qyax4tfswyPoODOMAPeT2CWg81spmdsIx7ucjG/jr6Wz4dO4Ja2XWkZHuXtrQnhb7XRPkpc5GWRTAjdy6f/U6lp7D9yTNh+UHd1MhNKX/5p6UVs2SGeP2zXYyhBYd79ffS1QZC/V7dgYCDNyAlXStkv+EsfaebWLSKoFyl+g6k9+ERHRvD7xzMICapaObQKOgIjq/qQGXeFf7UgxMeX4fGJvNB7KAvH3sCM/qOY0LwdMQHVejqTYmTSABt27yM7T3BKnZdP/ys2bJGy791RneOkNPy/YOlxnE7xU1yPS+QeWloQVjtuDYM6Tu+BlxAeKe5M/7n0QjVCLTCZoFc38YNbZZ0AFZGY0Jj3//eE8DXL8EBVHzDjFvjxGvUDQ7iqRQfeHTCGP8dO4dmeQxjSqBmBNu9OrNMDGQdAajywlx2A9dt3Cts2bxRCbJQ6D9xpVRYBWLg0SWRLAPj4BXDRxeXLnHoSwwEwqA1YbTaGjBFPp23adoaMTH1GSPfqKl4IuGH7LpxOp2q7q0YN47pxo4Sve5b+QKWymGZAczmiyjABbSKiua19d+YMn8i8UVfzQKc+dItpgEVClKMm0CYiWqpQUagOwGIBL9dJbN4pPrmr90XqvW+nglILh8PFouXiDkDbbkPw9ffu29dihuAaXv1vYHCOQRJ1AA6Hi8UrxKeMVoaMA5CbX8D+I2LRiVcevZewEKluNjNVyAObgV0yV1CCj8VCn7jGPNq1P7+NuY5PLxnPjW260DxUvDe+JmI2megSIz42QUgQyMunf5fLxZbd4g5AH5UOgNOKoqKwjVtTpU4MHfpUmV7TndBAr/t2Bgaa0f3igQQGib/w/tSpDuCi9lH4qxEhO4+NO8Q6uKIjI5h273+Er3uWqyv7phlYJnuF8gj18ePShJa81GcYC8fewJv9LuXyZm2op2Asam2me7R4GmDv0eMkpaqsdvXxrgNw6HgSWTni/dKqHQCFBYAyp3+TyUT7XhpOaBQkpG7fSga1DB9fX7r3U6xhcwGLlifp0g7oYzPTpaN4pnyTRAv31EnjqR8jlaVvTyWifmZgkczqZXHn89vzzoDRzL/sep7uMYhBDZsSYPVuFXp1QmYuAMBiVVEAE1i96wCIer8A4SG+tG6iTuRFaQHgqnXiynONW1xEeD1Vktu6EGo4AAa1jP7DLhW2TTlTwKGjukzao1dX8UJAmWegr48P991Q6SFeCRV6VWZgDSBYXg4xAUHc0aEn34646mw+vy/dYxpiNWKT5RIfHCbV1aAqDWCz4G2FmC27xMP/3dpGYTar27+SAkC73cnGbeJ9wx16ez/872MF39pXJ2tQx+k3bITUbACZoV6V0a2TuFTvlt37hAoBz3HrpPH4+0mJ3A2o6BtmoARYLrpyqI8fU1p3oklIDZ1D6gVkugEWrd+kXIDEy/3/AJslHIAOLdSP+XQpeHbs2JNBXn6pwI7ctOk+RNhWK4zwv0FtpF5MHM1atRG2X7spRcPd/EO71uL1avkFhRw9KR5xDAkKZPTgfsL2uLsByn0ynjumC6cBDmSlkVlsSGKqQcYBOJ2ewa7DR5V92MsFgAB7Door7XVIVHfTKS0AXLNR/JRgtfnSpHVXYXutMBwAg9pK197iY3LXrNcnAhDfMJjgIPED1e4DcgPHJo8ZIWMeCzQt7xvnHIDFoiu7gI0p+rRf1Fa6x3hgPLDJBB4ee3w+ufn5JKstWixDR5URAJfCAsA1EmHCZu16YJPQj9eKYEP9z6CW0kXCAdh/OIu0dO31AEwmaNtSfUTyHLsPyjkAg3p1w2qRep6XWwh4zgHYDgg/FdeniFdU10VkxwMrKgS0Wr2d/mfvoaPCeuk2q5lWagsAFd4f6zaLT/9r2UkqFKcJVouR/zeovXTtK36PuVywfos+aYC2rSQcAMkIQHBgIJ3lBgUllvfFcw6AC1giuvI6wwFQjUwaYOnmrZTaqxgPbPPu6R9g32Fx/f+WCaGqZ3G7FPzImVnFJCXnCe4KWlQDByDI+wEIAwPdiIqOJb55ue8rRWzbla7hbv6hnYwDIBkBAOjVqYOMebmzhss+YYXrAE7l53IiT5/2i9qK9HjgHXsq/5CX2/8A9imtVSiHDonqbzYlGgA79og/HMxmC03bdBe214oAwwEwqOVc1L2XsO2uvRka7uQfZAoB9x4Sr4U6R8um8TLmldYAgKQegJEGUEenenFSo4wrlwX2fv8/wF4JB6Bdc5UOgMk9BrgqduwRfzjExrfAtxoIWRnT/wxqO206dha23amTA9C2pXinW25+AWcyMqWun5hQqax/VYSW98Wyj8wTwD7R1defNhwANfhbbbSPFNeYrtQBqAbhf0BqBHDThuokQZW0/4Hc6aBxi07CtloSYDgABrWcVh0uErY9dDSbgsIqUqQChIX6EhYq3o9/NClZ6vqxwVJzAco1Pv/MJNwNsCHlJE49dBhrMd0k0gDrd+0lJ7+COU7V4PQPcEyi97VJA3W/7EoLAGVSAI1biD+UtMJi9rq6s4GB7rRq3xGzYITU4XCx94Dcabsi4lUeTMoi5QCUlBAs1wWgyAFYKLp6bmkxezPFW77qIj0kZIErHQ9cDRyAvIICsnPFi+0S6qtTS3QpUAx0Ol3s2S/+YGic2FHYViv8pQTBDAxqBgGBQTRu1lzYXq80QEJjcQfgiKgDUGKHvEIC/aWKf8rNXZ7vACwFHKJXMOoA1NFWcjzw4g0VtANavZ8COJEs3ooT6G+lXri6OLeSDoBTKQVSocFGzaWqcDXB32j/M6gjtGovkQY4ok9RuscjAKV2yM8DXOQVSgnulSuOcL4DkAVsFL2C4QCow2wy0TlafDzwwnXl1AFYzG7VCi9zMkW81z4+Lkj1j6CkBuDoCfGphEGhkQSFRQnba4Wf4QAY1BHim4m3Ah5LEo8+VkZCI3EH4HiySqmd4hLIzXM36QOZElNVgXI9ovKSLMLdANvSTlPk0L74ojYj0w6458ixC8cDV4PTP8CJU+IRALX5f1AWATh6IkdgN26iGzYTttUSIwVgUFdo1KTczjVFyNzrlREv4QCcPpOm8JMuKCyC82q80rKkfib9HYASh4OtZ8QLv+oiMg4AwJINW/79BYv38/8AySni9SAJ9QUcAAX1QsdOiJ8KYhqKn0a0xFAANKgrSEUAJO71ypCJAKSkKahLcLkgN9/tAJxHWpZUWkOxAyA1HthIA6gjISSMaKnxwOelAapJBEAmBRBXL0C1jZIiwONJ4iG06hIBMDoADOoKjZuI33OpaXL1PhURG63+2XSO1PSMyqXRS+yQnevO+5fDtgOHhK+NO71/AeU5AMXACtGrbDAGA6lGJgqwcF3Z8cCmauMAyIheRIWprHZVWC8gUwNQHRwAixnkOoEMDGoOEfWiCQopV7+mSlwuOH5S+yhAWKgvVqtYe2JJaSmZ2eWE8R1OyMuHvDxwOiu0X7tjt9B1z1Kuxk9FP4mwHsB+YzywarrHNBC2PZ2ewe5zgjsWM16fAHSWcn/RFRIVpi7RrVQEKPm0cGCLiFgpFS5NME7/BnWNuIaNhG1lZn5UhMkEYaHiebjTaWV0SFxOKCh0n/pLSiu1czidbNq7X/i6wI7yvliRAyCsB+B0uYzxwCqRHw98Ng1QTU7/gJQGQESougiAS2HLwJl0ccc0NEJctVErfIz8v0EdIypG/L7LyNR+LDBAVLh4P356ZjY4HO4Cv6wcKCrm7zL/Stiy7wB5BVIH613lfbEiB0ByPLDhAKgh0i+AZqEajAeuRvHhDImClXpqbzBz1TeQ3e4kJ7dEcEcQGhkjbKsV1UTh2cDAY0RFizsA6Rn6OAAREg5ATmqa+8RfXKLkvf83X/4hNaqnEDhY3jcqcgBcwF+iVzMKAdXTXUIVcOmmbe7xwNXIAciSigCoTQFUHQHIyCpGVKnax9cfvwApHW5NqEb/ew0MPEJkdLSwbUZWsYY7+YfICHEHIFsgNWp3OJizYInwNXEf6MsV+KusmkG4DiA5P4ekPH36MGsr3aLF6wByCwpYt3MPCBanaI3T6SQ7V7zgTm0RoJIagHSJcGBIhPhDSEuMCIBBXSOynnjkLU2nCECkRAQgt6CC+S2V8Mfq9aTITRL8o6JvVFZWJFwHAO4oQMOgNjJL1Ck6R9fHZjZTWkkVaGUs2rCZvoMu1nhXYuTmF+BwiP0cgf5WfGwqHRkFDkBGpvhpwOl0sWzeLGH7c1isNsIiY2nWvhf+gSHq7Q0HwKCa43K52Lt9K0cO7qNAIgp4joN7yk1dK0KvGoBwlUXKZcnOU1+I/OacucLXO8tvFX2jMgfgOHAAEFJj2JCSxOXNDAdAKQFWG+0iY9giKKS0eMMWntZ2S8IUlCNioRQ/H4G3nAIHIDNLfE8ZKcf57KXbhO3Px2rzpdvgK7h86jQiYpR3F1STAI+BwQU4HQ6++3QWs15/idMnT3h7O4Cc018ZviLPqLOojQDMX7P+QrE3dZwCKpwdX9UjRTgKsD4lyRgPrJLuMeItL+t27CY3X7zNTUtK7eICHD4CcW4lKYDCIuEZV5pjLy1mzfwvePr6buzdvFSxnREBMKiO5OflcseVl/HcA3dWm5c/QFGxPrL0Pj7inni+isOR0+nisXc+Er7WWX6nknLDqn4S4TqAnJJi9mUq1T42ADk9gFK7naVrK3T0PEpJaeU9rZWhOvyvkJLS6uMAnCM/J4MZD13OycPKwpwKxA4NDDyK0+nk4ZuvZeXiBd7eygUUl4ilIatCJgJgdyh/Ds3+dT5b9h0QvtZZ5lT2zaqetkuQGA+8zugGUEXbyGiCbOLN3otXr9dwN+LIOAAyN1dllBTr8zCQpaggl0+ev6VyidCzVIMhjwYG/+LXb79k2YIKU8xeRS+n30fiGaU0OnrwxEnue/0d4eucZQ/ud3iFVOUAZFFJ/qAqNhgOgCosJrPUeOBFq9ZpuBtxSivQslaCkAOg4MVYaq+eDgDAkd0bOLB9VZWfMxwAg+rG7Bmve3sLFVJSrI8D4CuRArArKI4uLinlyseeISdffcfAebxDFWoDSn4SYQWCrWmnKDbGA6tCZi7A7oOHpabwaYVcDYD6m0tJpUlxSfVLAZRl+6rfq/yMkQIwqE6cSjrOgd07vb2NCtErBSATAVASHb3ntbfZvFc69J8LfFbVh3R1ANzjgYUFBeskMg6Ay+WqFmkAqRoAoVL3qt+M1d0BOHPycJWfMSIABtWJpKNHvL2FStEtBSAhyFFVDcDDMz7g/R9+EV6/DLNwOwGVouRpuxoQjkUYqoDqaBISTj3/QGH76pAGUJLPrgiT0Fuu5nebOOp4pMwmUfvikog4uST+3W0+NmHb2oBTRUGbN9CrCc0sUadc2bNx2oef8vJnX4sv/g+ZwP+UfFDJjyI1HthwANTTQyIKsGi19x0Am1V8bJ2Y116106BXd4FWRCpoAXXWfD+nQgICg4RtSwvFBWdKC8RtA4O8Lw/tTWIbiLctewK97nmZ1IK1nF5eu8PBg9Nn8vQHn8psqyzPAelVfgplDgBIjgfOKtZHkam20k3CAUhOOcPug1WHk/XEKuMACBTrmRREAGTCdp6gbc+hVX6mNstqhIaHC9vmp5/CJaigmZcmfkAJDY8Qtq0NxDdPpEF8gre3USG6dRRJpBPPPxylZWUz4u5HeO2Lb2W3dY7DuIv/FKHUAZAbD5xqTAdUg/R4YC+nAWQiAEK5egUvRhnxDr2JaZxI225Dqv5gLXYAGjcTEhwFwFFaTHbyIdV2TnspWSfEi63imzUXtq0tTLr5dm9voUJ8fKufA1A2ArB4w2Y6XX3rP+PcteE+3FF7RSh9Km4DhMvLjTSAOqL8A2gSKn668HYhYHlhLqWUlFa/yl09MVusXPvg21isVeeTa3MKIL5Zc8wSvzepezfgKFEXaUzdvwl7sXirVZMWrYVtawuTbrmd1h07eXsb5VIdUwA2q5Wk1DNc99QLDLn9QZJSNe3a+hj4WY2B0n8hFxJpAMMBUI9MHcDStRulWvFksdk8HAFQQHWsAbBYbVz/yExadx2k6PO1+P2Pf0AgrTtcJGxfWpjH8Y0LcdpLFH0+89ge0g9tF74eQOeefaTsawM+vr7M+OoHmrWsfs6QbikAie6CBWs30OLy6/j8d6lZe+WxH7hHrZGap6JwO+DJvBxOGuOBVSHTDpiTl8/6bd7rz/X1Ea/oFooAKHgz+vmKOyV6kNCqCw+9s5i+l16v2MZevYuupenRb6CUfUH6KQ6vnEdBRsWtx47SYk7tWEnyduG6ZgBCwsJpU01Pvp4mpn5Dvli4kkm33I5N4t7XmupYA3DwxEkKizUfUlQCXA2ormhV81QUdgDAHQUYZ4wHVkzn6PpYzWbsouOBV62jTxfxE5UMIUHibYzFAt61SYEDEBYq/mAKDqtH5/6XCdufw8cvgIjoRrTqMoDGLdT/v6ntDsDQyybw8fRXpdYozs3kyKqfCYiMIzgmHt+gUExmC/aiAvLTk8k9fRRHqbIoQWUMHnWZVMqithEUHMJjL0/ntoefZMXCPzh++BDpZ1Kk1z128AAbVi4TspUZ21sZxdVPVvwhYKOIoRoH4BhwEBCqfFmfksQ4YzywYgKsNtpFxLA1TXA88Or1PHX3VI13pYzgwADMZjNOAeclr6CUUrsTm8azb6Mi/IRt/QODue7h9zTcjRgKVERrNG07daFZy9Yc2rdHeq2C9FMUpIvdO0oYfeU1uq1dkwmPjGLMVddqtt5n704XdgAiJe75ysjM1mfMsCCvAtNFjdU+ZYWjABtSThrjgVXSPVY8DbBm83Zy8rwzHthsNhPoL3bzuVyQofIGMyl4MUaEiz8MsjNShW21pLZHAACunnqXt7dQJa3ad6Rrn37e3kadQCaKIOP0V0ZGVrVpa58DPCyzgMccgOySIvZlGeOB1SBTB2B3OFi+frOGu1FHaLC4SEq6WgdAgV8ZGeEnLKVbXJhHcaF3nKmy1AUH4LLJ1xFTX/z33hPc+uBjgoqVBmpJTxF3AGSc/srIzKoWEYA/gSmAVFxQrQOwGInxwOtPG90AamgXGU2g1Hhg7+kByNQBpGWq9LAV9MfZrGaCA8X/LXMyvR8FkBiyWGPw8fXl3qee8/Y2KqRTj94MGT3O29uoM6SnSjgAOtUApGV4PQIwDxiHu/hPCrUOQBYgfKw02gHVYTGZ6VxPZjyw9/QAwkNDhG3Ts9XdYEoiACCXE8zJkC9okqVEfMZSjeLSKyZLdwTogdVm44nX3jZO/x4kLVV8mJxeKQAvRwDeA8YjMZ+nLCKVVsZ4YA/SPaaBsO2uA4c4leqdtEtsvUhh2zSVOTaTS9kDOS4mQGQ7AGSmet95Lakjt47JZOJ/731MeGSUt7fyL+57+gVatG3v7W3UKVKSxVVkY6PF7/fKyFAbodQGFzANuB2JKPz5eNQBKHE42JZmjAdWQ49Y8YEb3hwPHBMl7gCkq/WwFRaXxjcSr0tISVIvNas1Dkft7wQ4R0z9hjz//mwsErLSWjL0svFce9vd3t5GnSI3O4vMdPEDjMz9XhH5BXaKir1SjOMALICmYQ0RB2A1UCh6QSMNoI6aOh5YJgKQkq7+10tJJ0B8Q/EHQmrSQWFbLakrUQCAvoOH8dw7s7wecu/S+2Kenznb6/uoaxw/LO50h4f5EhKsvShRapomkXcRrMATwHbgYq0WFXEAijDGA3sUmW4AbzkAMhGAo8m5qm1MCgoBGzcUHzmbeqKaOAB1pA7gHKMmXs2Tr73jNdGdbn378/acH/H10yefbFAxxw6LD2pK0OH0D3AsSXx8tEYkAktx9/5XPUCkCkTVVoTTAPsy08hWObSjriPjAJxMSWXPwSMa7kYZsRIOwJGTIg5A1Z9JaCxemFgdUgAAhdWiA8mzXHHDLbw++2sCAsUdOBFGjr+KmXN/Iygk1KPXNXBzQiICkNBI/F6vjONJ6p9NOmAG7sb9Hq4nu5AIwg6A0+ViY4oxHlgN3WIayI0H9kI7YP0Y8d/Lo8nqvWyTgrSczKkgJ+M0RQXev/mL5FVsaySDR43lm7/WeaQIz9fXj8dfncFLsz7Hx1efVjKDqpFJAcQ30sdZPHbC+8+AMvQD1gMdRBcQdQCkxgNvMBwAVdTzDyQhJFzYfrEX2gETGoq3L2bnlZCZo70YUMO4QOGpgC6XixMH5KbHaUFBHYwAnCMhsQXf/LWOh194ncAgfUK8PfoN5NvlG7jqpv/osr6Bcvbt3CZs2zRenwhANXMAABKA5UBfEWNRB8AJLBG0ZV3KCVHTOocJsFlM9G3QWHiNv9ZuwO7wbOVqVHiYlBiQ2jSAyVG1B2C1mmmZKO5InTgg/kDSiqI67ACAuxf/mv/cxR9b9nHbw09qFp7v1KM3M+b8yKx5f9K0RStN1jQQp6S4WGomRLvW4inIyjhWPVIA5xMKLACGqTWUmbiyWNQwKS+H5HxjPHBFmEwmfK1mgvwshAVaCfa3cnFDcQcgJy+fDdt3abhDZTRpJK5hoDYNoKQGAKB9qwiB3bg5tn+LsK1W2B1gr0OdABURHlWP2x/5Lwt3HuaZGR/So/8g1eH6+OaJ3Hjv//Hjmm18Nn8ZA4aP0mm3BmrZv2sH9lKxileTCdq0FHf0K6MaFAFWRADwIyo7BGSabKXHA49takwHPIfZZMJmNeFjNWMzmzg/6d8zroHUeOCFK9fSq5NwqkiIpo0asG3PfiFbtREAs1NZlURbCQfg+D7vOwAAecUQVj3a471OUHAI466ZwrhrplBcVMjW9Ws5uGcXR/bvJTM9jZzsLAD8/PwJCgklvllzEpq3oFPP3tV+5kBdZu/2rcK28Q2DCQnSvgWwpNTJqRTvzwSpBH/gJ9y1AYpOfDKPkSPAIaCZiPG604YDYLGY8LGY8bGasJgrf4EF2nzoWC+GTSliI04XrVrHf++6VchWFJkIwK5DmeoMXC5MThOuKmJa7SVCg8lH92AvLcEqMZ9BC/ILIUw8u1Jr8fXzp0e/gdVSRthAHXu2izvbMk5+ZRw4lIVDQaqxPMxmMz42K0XFulfxRgDzgT7A8Sr3JXkx4SjAxtS6Nx7YhHsoTaCvhbBAG6H+Vvx9zFW+/M/Rp754GmDd1p3kFXhWxKJ5vLiK4fYDGaptlNQByDwc7KUlHK8GaYB8o4vWoJazfaN455KMk18ZO/eqfyadIzGhMRmbl/HHJ29zz5TJtGyaoN3GLqQhMBeo8qQi6wAI1wFkFRdxICtd8vLVH5OJf/L5QTaC/Sz42swofOf/iz4NxF+oJaWlHh8P3KZ5U2HbXYcysavUvTUrqHOMiwkgKlJc1GXfluXCtlpRIKzDaWBQ/cnNzmL/rh3C9u1a6xMB2LlH3AFom9gUfz9fhvfrzZtPPsjehT+wcd6XXDvuUiwW2ddwuXQDXqzqQ1o4AMLq5LW1G8BsMuFrMxPibyU80EagnwUfq1mqlx/gonqxUuOBPa0K2LaFUHYIgKJiBwePqysUVeIAAPToHCOwIzf7twiLYGpGib1uSQIb1C02rVmJU7DWCeTu78rYtU/cASjvMNSlXWs+e/VZ9i78kZsmjsVs1twRuBcYXdkHZK+YgTEeGBNgtZgI8LUQGmAlLNBKoK8Fq0Vb7XCr2UyPOPG8uqcdgKjwMKIjxb1xtWkAJSkAgF5dY0W2A8CB7atwOr0yDORf5HlNktzAQF82rRZ3suMbBtMgTp8CGRkHoLLDUPP4Rsx64b8s/3qWVNS0HEzAJ0CFYzW1cDnExwOfOU2Jh/vTtcJk+iefHxpoJcTfip9NeT5flD71xdMAO/cf4vQZz6Zd2iaKRwG271d3wymNAPTqJn5CKMzP4cR+7+sB5FTrYmQDA3FkHACZe7sysnNKSBJQKD2Hkudgny4XseXXOTx9z1Qt0wKRwAsVfdOrDkCxw16jxgP/k8+3Eh5QNp/vuSlhMg6Aezywp9MA4h7tjoNqOwGU6QF07lAPXx/x4TK7NwprYGlGjlEHYFALyc3OYvc28ULbnl3Eo3uVsXNvhtKp4xdgtVho0URZAbePzcZTd09l3vtvEBQQIHbBC7kR6FHeN7RwAFZRi8cDW8wm/C7I51/Yp+8pmodHEh0gMx7Ys7LAHVomCttu2Klebdpsr/ou9fWx0LmD+KyC7at/F7bViqJiKDXqAAxqGSsXL8AhoXTVp7s+DsDWnWnCtolNGuPro65269KBF7P8m1k0iIkWvm4ZE5L53QAAIABJREFUzMA7lPO+18IBKAJWihpXNwfg3/l8G6EBVgJ0yOeLYkIuCuDpOoCuHcS1Hk6lFXBYpfSmWeGzQyZUeHDHGvJzxPOBWpFj1AEY1DKWL/hD2DY0xIfWLfRRAFyzQTxSfVHrlkJ2ndq0Ys33n9JUQk+lDF2Ased/UatEg3A74N7MM+SUeFfg/Fx/vlt611Ymn+/VbVVIbwkHIOl0CvsOH9VuM1XQrkVz/P3EJ6qt2pqi6vNKHYBBF4urwDkddnauXSBsrxXZ1VaV1MBAPU6Hg5WL5gvbD+zbALNONVhrN6l7DpWlx0XthG0bxcXw52fvEVtPE22DJzgvdq3VK26hqKHT5WJjquenA5pN4Gs7m88PshJ8rlWvehz0K0VGDwBg4UrPRQFsVisdW7cQtl+1VZ3nbVbYCdC3RxxBgTaRLQGwbbX4SUUrsvIQzksaGFQ3tq5fQ1aGeJHy0P5yz8WKOHoil+TT4lW33Tq0lbp+s8YN+eXD6arTCOXQCRhS9gtaOQBbAeH/c+tPeyYNUDafHxZoI9D3bD7fWwl9QWICgmgeJt5e5/E0QHvxNIDaCAAuZd0APjYz/XuLjyzeuXYB9lLdZT0rxe6APEMV0KCWsHT+r1L2lwzQxwGQCf/brFY6tZGfLtm1fRtee+x+6XWAh8r+RSsHQGo8sG51AKZ/8vlhgdZql8+XQSYKsHTdRo+OB5bxgHcfziIzR12KyFyq7Fg8VOKBkZ+Twa71woEvzciqltNJDQzU4XK5WPDTXGH7tq0idOv/lwn/t28plwItyx3XTuSyIQNklxkE/N2SoGWWW7gd8ERetmbjgU0m8Dmbzw8P+Cef78lWPU8gUweQnZvHxu27NdxN5chMIXQ6XazZnqrKRqkewNCBcieGdQu/kbLXAsMBMKgNbF6zkuTjx4Tth0ney5Wxar14BKCnxhNY3572sGx7oBmYVPYvWiE5Hli8DsByVno3yM/dqhdUg/L5ovSMa4hFQjpy4aq1Gu6mchITGlM/RrztbukGdRMQzQrHiMc3DKZV8zCBHbnZuuJnigu9q8hTWAIF3q2hNTCQ5o/v5ZzpS3TK/2dmFbP3gEo9kjJ0k+iCKo+GsTE8fsdNsstcfe4/tHQADp/9I4TaNIDFbMLfx0Kov5XQs9K77nx+3SDo7HhgUTxdB9CvW2dh2/mr1f1umJwuTE5laYCxI8WFiooL89m64mdhe63I0CZ4ZmDgFRx2Owt/+VHYPirST7f+/8UrknAqfJaUR+/OHTXcjZt7pkwmJkqqK6A90Aa0dQBAIgqwISWp0vHAJsB2Xj7f38eMpRbk80WR0QNYu2WHR8cDX9ytk7DtjgMZHD+trufNojAKMH6UnPb22gVzpOy1IN1wAAxqMCsXLyDjjLo0X1nGjWyK1apPz/aff4kPrGsUF0OLJvEa7saNv58v90yZVPUHK2cwVCMHoLzxwGXz+WFBNoJraT5flD71lclLlkdJaSkrNnhutn3/Hl2k7P9crS5FZFZYoN+2VQStE8XFQ3asW0DaqaPC9lpQXAJ5hjSwQQ1l7uxZUvYTRovPG6kMlwsWLhMvUB/Uq7uGu/k3t18zUba4cABo7wAsQWI88PqUpL9H6Qb7n5fP13CTtYVO0bEE2MR72T2ZBmjTvCn1IsRftH+sUueJm+0uUBi5u1wiCuByOlnxyyfC9lphpAEMaiKnT55g+UJxTY2YegH07qZP+H/77jRSzohHSQf31s8BCA0OYtSgfjJL9ANMWjsA6YDwsXJL2sm/R+na6nBoXylWs5kesTVjPLDJZOKSvj2F7RetPUmpXblvaVKoBwBwxRi5E8SKXz7GYVeYc9CJ9GyQGKFuYOAV5n76EU6JluTxo5rqlgb+c6lce/qg3t002kn5XH3ZCBnzKKCNHokT4TTAxpTkGjse2FvItAPu2HfQo+OBh/XrJWybk1/Kmm0q2wEV6gG0aBZG+zbiRTXZ6afZ4uViwFKHWxnQwKCm4LDb+fFzuejZBEnnvTL+/Ou4sG2rZglaDfKpkEv69MRHIgIMtKpWDkCh3c7mVHUtX3Wdvg3E6wBcLhdL1nhuOuDwfr0xS7Qu/rxMXZ+wRaEDAHD9lWIDO87x1/czFX3O5XRy8vAuNv71PZuW/sCxfVtwOrQZ65eapckyBgaqSD11kpWL5vPnT3NZt2wJ+XnKxCkW/zaP1NPJwtdt2SyMnl3EO6EqIyu7mHWbxQsT9Qz/nyPA309WZriFVavNlGEV7gmBfkLGJ0/QM058UEtdI/HseODUArF+9EWr1jF5jFQoSTHRkRF0btuKjTvERIi++/MIr9zXQ7G+g9kOJpcLlwKDyZcn8uQL6yksEnsZ7928lKN7N5HQqvxiR3tpMUu+n8nCb6aTkfLveobQyFgGjJvK8KsfwMfXX+j6ADn5UFQCftKS4QYGVbNu+V+8+8I0tqxbjatMB5fVZmP4uInc+uCjNEms2LGePeM1qevfMFleYrcifl5wFLuKlOP5DO0rHu1UQ9+uF7Fq01ZR80Q9IgCFSIwHXpUsHnapi5iQSwN4Wg9geL/ewrbHT+exZrs6WU6Lwm6AsFBfxo5sIrCrf/jji1fL/frmZT/xxKT2fPPWgxe8/MGdQpg3axrP3tij3O+r4YwRBTDQGZfLxZvTHueWscPYvHbVv17+APbSUn799ksu79OJlx97gNzsC38pN65azo5NG4T34Otj4erx4kPGqmLuL4eEbQP8/aTqndTQqlmCjHlzvQbeCqcBdqalkl1sSJupQUYP4MQpz44HHjmwr5T9NwvUaU0pdQAAbpgkd6LYvPRHUpP+eXAkHdrJq3cN5Z1Hr+BM8pEq7ZOP7OHVu4dSVCCu73smCxxGMaCBjnzw6vN89ObLF7z4z8deWsrn773FpV1a890nH/6r2O/j6eU7y0oZPSyByAihIHOVpGcUsXSVeGrikj49NdP/r4rEBPEUMBChlwOwWNTQ4XKx9pRnpgPWFmQiAACLVnmuDqBHx3ZSssBzFx5RpcxlLnVhUvjxPt3jaNlMXBrY6XSwYM7r5GWn88WrdzHt+q7s2fSXqjVSThzk+/ceF96D3WFEAQz04+CeXbz38nOqbDLT03jm/tuZOKA7G1Yu48DunaxcNF9qH1MknfXKmDf/iFT4/7JLBmi3mSpoVC9KxjxYLwdgM5Amarw6WS4MWteIDQyiWZh4j/3i1Z5LA5jNZsYNHShsn3ymgJVb1KUBzCXKPACTCW66prXItv5m1W+f8ejE1vz1w0ycTrGOlpW/ziYvS/j24XSGiyoOZwYGQsye8ToOu1idzL6d27lx9BCmXj6yyuhBZSQ2DWVgH/H256r47mfx8L/FYmbUoIs13E0lOBwEyd3oQXo5AE5gqajxypNGHYBaZFQB/1q7EYcH48aXDxssZa9nGuD6K1sRGiJeRVdaUkRBrvjwEICS4kL2bl4qbl9qItOYEmigMS6XS0q05xxnUuQ6ve6+pYNug95SzhSwcp34/np16iAleKYYpxNy8wn2Fy8aRscIAEjUARzNyeKkwlYSAzcydQBZObls2L5Lw91UTr/unYkKFw+1f/vnYYpLlJ+uLaUulB6Jg4Ns3HS1XBRAC5KP7pWyP5Wh0UYMDM6SlZ5GZtoZr+4hKtKPyeMTdVv/h18P43CIn6ovGzJAu81UhNMJOXngdOKQU/9yVEsHAIxuALX0kBwPvMiDaQCrxcKYIf2F7dOyivhxyVFVNmqiALff0A4fm563RtXIKgvmFxrCQAbaUupltUuAqde1xd9Pj+51N7O/2SdsazKZGD9cLrpZJQ4H5OT+LfuZkyc10C1Hz6fcIaDq0ucKWHXSqANQQ7CPDx2ixEUxFnuwEBDgqlHDpOxn/ajuRrWqaCypHxvIFWOaq9yRtkTFJUivkeTdw5pBLSMqOhZfP6mQsxT+flamXiclfFMpG7emsmO3uDJqny4dadJIv9oESkvPnvz/iVBk50t5+bl6H3OEowBrTp1QOsvF4Cx9GoinAVZv3kZ+gedGyg3u3Z2GseIOy5L1yRw4nq3482a7C5OKaNk9t+qXZ6wKk8lEy05Sgz4AKCiCTCMKYKARZrOZbn3kfy9FuXpCC6Ii9Wn9A/j4K7m029WXjdRoJ+fjgqIiyMu/IJV55ORpmYV1jQCAhAOQXljI3gzxSui6iEwdQElpKSs2em48sNlsZtLo4cL2Lhd8/NN+VTbWIuUuZbvWEYwcov0sbyW07TGU6IbaaJwnG1EAAw258ub/eOW6PjYz99/WUbf1c/NKpcR/fGw2Jo68RMMdncXpdEt8FhSVO910/3Gplvk0vR0AqfHAq4xuAFXUpPHAANeMlfOYZ/+8X9WEQEuJ8hHBAE/e39XjUQBf/0Am3fu6ZuvlFxmjgg20Y8DwUQwcMdrj1712YksSGgXrtv638w6Sly9e4zCifx8iwkI13JELioohOxcqabvceUg4yw6wX28HIA0QFipeZegBqMJmttC9howHBujQKpGOrcXlPE+nFfLLMuVOosnpTgUopUPbSMaOaCqyNSF8/AK444XviG2srcTp8VSXMSrYQDNe/PAzOnbzjNQtgJ+vhUfu7qzrNT7+ao+Uvexh5l+UlEJWLhQUVtm9tGzzNpkr7fNEqbNwGmDD6ZPGeGCVyKQBtu89QGq6Z/vHrhs3Ssp++lc7VX1eTTEgwBMPdMFs1j8MEN+qM09+tJa23bUPI5aUmkiRkyYwMPibgMAgPvl1MTfe8yBWuXG0irhxcmsaxAXqtv6mbWfYskM83RwWEsyoQbK1ES4oKXGf+PPyUeKxJ59JZ+9RqSh59XYACu12thjjgVXRR3I88OLVnu0GuH78aPx8xYV3lm86zYZdyhPdlhJ1xYCtE8O5QseZ40GhkUy693WemLWa+k300x9IToNSbaYOGxhg8/Hhvqdf4KfV2+g/7FLdruPvZ9U19w8w/YPtUvbXjB0p/gyzO6CgADJzIK/A3eankJ+Xrxa75j/s8oQDsAL3eGAhjDSAOlqER1LPP0DY3tMOQGRYKOOHD5Fa47XPdqj6vLVYXX/J4/d10VwXwGrzYfjVD/Di3P0MmXgXZrNF0/XPx+GEk0ZBoIHGxDdP5O2vf+Kdb+YR31x7gZ7bb2hH/Vj9Tv9HT+Ty0x9SeXSmThqv8JMu941YXOp+2Wdlu3v6i0oUC5WV5fPf/1RtU4YDwElPOABFgLCrYugBqEN2PPDClWu124xClN9A5fP9oqMcTVauHGlR6QA0bxLKf6a0U7utCmnTbTBPzd7IFXe8iH9giGbrVsWZLMjzXKenQR2i39CR/LR6Gw+/8DpBIdoUw0VH+fN/d16kyVoV8daH26UG//Tr2ol28Y2huOTff4qK3a17BYXukH5OHmRmQ3YO5Oe7w/0qhpqdz/7jSazZsVvYHvgLwFNyZ8JpgB1pKcZ4YJXIOADHk09zQC6vpJqLu3WibaJ4mN3ucPLml8qljE1O9U7AY/d2pl6kvAhK666DeGD6fF3D/RXhAo6eEjpsGBhUidVm45r/3MXz732syXrTHu5OSLB4erAqMrOK+fxbceU/gP+MvRTyCy78U1Dobt0rKnYX9dntqjqQquKVz7+RGqjE2Ym91d4BcLhcrDttjAdWg4wgEHgnCnDrpMul7D/6cR+ZOcodRTWaAAAhwT489X9d1W7rAvZsXMK6hV9LryNKQTFGQaCBbhTk5/Hafx+WXqdj2yiuvULbbpjzeW/2LvILxAtjoiPCuHyghyb/leH46VQ++22BzBIOPBwB2AwIl5cbaQB1xAUG0zRUfCKVp9sBAaaMH0NIkHiuL6+glHe/Vd7KY3aoawkEmHJVKzq1l5q/DcDnr9xJ+ulj0uuIcvIMlBgFgQY68Oz9d3Ls0EHpdV6d1lvX7pvCIjszP1XXQXQ+N44Zga+P/l0Q5/P4ux9RIlfRuxA4A55zAP72OEQwBgOpRyYKsHTdJo+OBwYICQrk5ivHSa3x2mc7yM5TPvXHqrI01Ww28cITPaXFgQrzspn1zA04nd5pcXU44UiyVy5tUIv5/fuv+fXbL6XXuWJMM/p0j9VgRxXzyZy9pKUL16ZjMZuZernnBZGWbd7Gl/Ol5uwBfH7uPzw58kx410eys0g2xgOrQkYPIDM7h41yBSZC3H39JKwW8Wr4zJxiXv9ceUeApcSlOgrQr1d9rpkgH5rcv3UFf3z+ivQ6omTnu4sCDQy0IPn4UZ574C7pdcJCfXn5qV4a7Khi8gvsvPK2sD4dABMG9ychTl8n5XzyC4v4zwtvyOb+c4Gfzv2lRjgAYLQDqqVnXCOp8cCLPTge+BzxDeKkx2m++cVO0rPU1AKov8aLT/YiOkq+IPCnD59m1/qF0uuIcuy0u2DZwECG4qIi7p9yFbnZ8h7l84/3IKaeeBuzEt6bvZOUM1JjdHnouqs02o1ybn/pTVnhH4Cvgb9/eE86AAeBo6LGqw0HQBXu8cDRwvaLPDwe+Bz333SNlH1OfimvfKpc2MNS4sLsUOdRh4f58uq03mq3dgFOp4MPnrqWtFNHpdcSur4LDidrWpxsUAd5/qG72bVlk/Q6F/eM4/orW2mwo4rJyS3hjZlS8rlc0qMLnVtpr3lQGe//8Auf/SbV9w/uVPy/wo6edABAIgqwOtkYD6wWmXbA1Zu3UVAoniMTpXvHdgzs2U1qjbe/3kVKuvKGd7UdAQATRjdj9LAE1Xbnk5edzswnJ2Mv9U6ra24hnBYfgW5Qx5k7exY/fP6J9Dq+PhbeeuFi3Ydvvfn+djJVRAjLw9On/3nLVnHHS9O1WOob3AJAf1NjHIC0wgL2GeOBVSEjC1xcUsKK5au9oh/7xJ03S9nnF9p58WPlXr6lBEwqowAArz/Th5Ag+T7lI7s3MOfN+6XXESXpjCEQZKCenZs38uIj92my1uP3d6FlszBN1qqItPQi3vlYnWro+XRp3YIh3btotKOq+XPtRiY9/hwO+WleTuD587/oaQdAbjywkQZQRefoWAKsEuOBV6+H3Dy3elVRsccUZAb16kafLnIKYO9+u5uDJxTOwXWBTSDY0SAukFefkU8FACz98QOWzH1Xk7XU4nLBoZNuWXIDAyWknk7mvusmUlwsHyXs1TWW+6bqq/cP8Oq7W8nNEx/5C549/X81fzGj73+MQm2E8L4ELlBL87QDcAYQTsCsOmm0A6rBZrbQLba+sP2i9Zvd/+FwupWtsrLdKlceeFM8eectUvYlpU4eeE15IaNILQDANRNaMPGy5qrtymPOm/ezZcXPmqylluJSdz2AgUFV5OflcsfEMZzWQJ8lJNiHj6YPxGLRN/Z/4HA2M2fL9f23bhLPeOmpf1XjcDr57/ufcO1Tz8v2+58jC/i/8r7haQcApMYDJ1Pqpd7pmopMGmDbgUOcySxT2evCXTaek+seW1lYpGhspQjD+vWie0c5/f2flx5j4dqTyj7sAqtgYfBbz/elcYMgMeMynCsKPLJ7g/RaImTlwSmjHsCgEpwOB4/cch17d8gV0p3jzef6ktAoWJO1KuOhZ9ZQUir3rHpm6hSpziolJKWeYcjtD/LsrM9xSswKOI8ngJTyvlGjHIACeymbU09ruZdaj4wegMvlYvGGzeV/0+FwOwBZue40QUmJ5uXkT919q/Qa972yFrtCUSNLqQtzqfofIiTYh4/fGqTJKaakqIAZD48nI8U70a6kVLcjYGBQHi88fC9L5/+qyVqXX9qUq8ZpEz2rjD8WH2fBErn7qVPLRF1P/6V2O6998S1trriBpZvkNArOYwMws6JvesMBWAkIJzWMNIA6WkZEESUxHvjvNECFuNyFgufGWxYUqpppXRkjB/SlX/fOUmvsOpTJ+3P3Kv68rVDMi+ndLZYHbtNmcll2+ineuH8UeVmeL3p1AYeS3RNKDQzK8u6Lz/D1RxW+S1QR3zCYd1/WP5xeXOLgoWnCw2j/5tn/3IBJhxYFu8PB578vpMOkm3lw+kxyC+T0Cc4jB5iMu/2vXLzhABQgMR7Y0ANQh+x44EXrVfT3ulzuYsHsXHfhoAbOwIsP3S1lD/DUu5vIyFbmc5rt6icFnuPJB7oypF9DIdvzST6yh1fvHkZ+jvAIDWEcDtifpJkfZ1AL+GLmDN576VlN1vLztfDlzCG6Tvo7x1sf7uDQUYXFwBXQu0NbLu3bU6MduTmRkspLn86h1YTrue6pF7QQ+CmPW3Hr71SINxwAkEgDbE9LJbfEOJ6oQcYBOHYqhQMnBKYxOpxlnIFc938L5LR6derA2EsGqr9+GdKzi3lkuvK8umgUwGIxMXvGIOIbapPTPHFwO28+MIaiAs/LYBcVuzsDjNHBBj9+MZuXH3tAs/Vef7YPnTvU02y9ikg+nc8rb2+RXue5226SXqO4pJRV23by7KzP6X/rvSSMmcQjb3/IoSTdKm9n4u77rxSdZRcqpDsgrDU7c8ilXBIvPj++rpGcl8vF34iLdbz78L3cNmGM/EZMgNUKPj7gY0Op6sfug4fpMHKi1IAikwmWfHgpA7rGKfp8aYAJu5/Y7bFxayqXTPiF4hJtjtCtuwzk7lfn4eMrLz+slsgQ+P/27js6qmp74Ph30hsQQu+9I1IFRJoCKk3AhxUVQRQs8Kw/ERXbQ0XsBbA9RUBBBATpEGro0jshvZKQnskkU+7vjxEfKqTce6dmf9bKwgVzzt2JmbnnnrJ3iwZOv6xwE78tXcSMKROw6bTZd+L97fj0beeU0L1v8iZWro3V1Ee1sFAm31nxz778QiP5RiMZ2bmcS0gkLjVNz019ZdkMDAPKfFJ21QDAF/uRQFU1ax9o34nXeg/QNSBvN2jZAmJV5uq+8+Z+LHv3NX0DwgD+fvavQH8wlD4ZNemlN/l6yQpNV2zVuBpHfx5NcKBfucIzVfNBUTlH9s2i0zw1fae6xlfRpmt/ps5eQVCI43dM/139mtDQ8Q9sws2sXfYjL02ZgNWiTzKw7p1rs2nZCAID1Bf8Kq8Va2O4f7Lmqnme6HdgIPaiP2Vy/P+Jq1OwzwK0U9O40FzCA+0dnzjCm1zIyeZY5lVPgpQpNfMSzz9wNz56b4Kx2ewbCE0l9j8VxT4QuEod8F6dr+Orn5ZTrGH5Jyu3GJuicEvP8j3SGqwK1kB133PXTrVITivkyAl9NvJdSo3n/NFddBswGv+AIF36LK98o32cFur8CQjhIj99M4/Xpk3GptNGkNo1g1mzeBgR4Y7/3c3KNjFm/HoKjc7PYupiF4BbgHJvHHLVAACgJvZpigrLNpm4q017qgQE6hyS9yqxWlkTe77sF16FqaSE4X1706BWTZ2jusLlwUBxMZSY7UNEHwP8ce42NCQYfz8/Nu7aq+kye49lMLxfI+qVo+KYjw0UPwOKynfJkIGNOHDoIrEJ2jYhXZaVnsjJ/ZvoNmA0AUGOrZj2d7mFEBwAwfKW83rffjyH92Y8p7Xs7J+Cg/z4dcFQ2rVWNeFbYU+8uIN9hy465Vpu5BQwGKjQpgJXbQIEjeWBd6eo2JhWifWu3xBfDU/wFToNoJXVCkVF/9tAaCwCs5mpD91Lm+ZNNXVtsdqYMHMHZkv51jT9jTbV+Q38/XxYNG+Qrh988WcPM/vJQeReStWtz8uKCvOIObmP2NMHyb741/eXotiPB2ZLjgCXMRUZOXP8KIf2RpGSEOeQa3z2n5l8+Np03W7+Pj72jbE3dFVfmbQiNkQm8NOKUje+e6N9QH+gwkfkXDkAOAfEq20s+QAqpmpAINfVrKO6vVMHAFeyWu1b0vML8S8o4INnHtfc5dFzWeUuFmSwqj8VAPYkQSu+v526tfV7Yk+OOcl/JvUlJfaULv2d2LeROU8N4alba/GfSTfx1sTePDeqGdPHtmHTkk+wmO3LLooC0UmSKMjZjh3cx5P3jKJ3k5qM7dedh24fwK3Xt2Jwx+bMm/0WpiLtZ8ctZjOvPPkI8+f8o16MJu+80kuXqpnlkZdfwpM67rvxECuxr/mrWmt05QAApDywU/VpoP44YNTRExhNrilZ+ycFhvbszoi+vTV39cb8w+w7Xr5pQj+Tgo+GpdDGDcJY9u2thIaUY/NhOV1Ki2fWY/04fTBSdR82q4Xv35nMh08P4/TvW1H+ttP7YnIMP338LLMevYlLafaxuqLA+STIK9QUvigHRVH47D8zeeDWfmzfsAaL+a+FbNKSE/n87dcZ1ft6Ys6VP9nV3xXk5TLlrhGsXPS91pD/YsrDHXly4nW69lmaF17fQ3JqpfnFtAAvAGMA1bU8XT0A2KK2YUaRkXPZkri8IrTkAyguMbPriLZSmnr57IVphIVo25Fmsdq4b/pW8grLVx3Mv1DbMaiunWqxaO5gAvz1e8sVFeTy4TPD2bVG3Qf39+9OYceqb8p8XfzZw7w/7TYKcu3vN0WxJwrKcX56gkrl81mvMX/OrDKP4CXHxzF+2M2kq1gWTU1K4IHb+rN3m+qP4qsaM6w5s1/VPlAvr+VrYliw9KzTrudiicAA4D00JmB35SZAgIvAc6g8jti0ajhdapfvXLeA2iGhfHviMBaVZ3rr1YxgcM/uOkdVcdXCQgkODGTDXm1Fc7LzSki/VMQdA5uU+VqDzf5LavNXv4+iRbNqtGkVzq/rYnVLsKPYbBzZuQpzsYm23QZgKOM45WW/b1vOL3NfLvd1CvOyKMjJoEs/+5loRYGsfPfdGGiz2Tj++wH279zKiUMHyUhLoUat2gQGOfcEhVrHDu7n5Scmlnst3mQ0cvbEMUbcM67cKWuP7N/DY6OHkhQXoyXUf7jt5sb8MHcQ/n7Oeb6Mic9jzEPrdcu74cZswDfAv7AvoWvm6hmAi8AxtY0lLXDFBPj60qOu+qwu1ywM5AJT7xlDt3atNffz31/PsWRD+T4A/Yq0LQUAjB7anHlz+uNzlaOOWqxb+B4fPj2sXPUDSoqL+Onjq1YHLVXUuh/ISv/fe06wmVnTAAAgAElEQVRRIDoFMtSll3AIm9XKj1/PZXCHZtw/uA8vTX6Y16Y9xpP3jKJfq/q8+OhDpCSq3nrkNN98NLvCyXf27djKhhU/l+u1P349lwkjBpGRru9m0v431mfRvEG6znSVxmyxMWFaJHkFXp8d9ijQF5hEBY75lcXVAwDQsA9gX1qylAeuIC3VAY+ci/5reWAX8vXxYf70Z3Qpz/n4rCgS08q3dhhQoD0j2v13tubDN/uUNxFiuZ06sIXXH+5J7OmDpb5u/aL3VVUbVGw2Du9Y9be/hNhUSHN+yYJ/KCzI54m772DW81O5mPbP01AWs5k1Py/mrv43sH/nNucHWE7FJhM7N61T1faDmdMpNl17SdhUZOSlyQ8z6/mpmHVOqd6zWx1+/uZWgoP02+tSlpnv7me/dx/5iwMmA93QUEPnWjx6AGA0mzks5YErRMs+AJtNIfKg9tzaeunWrjXP3D9Wcz9ZucXc9cKWctULN1jB36h9/n7SA+2ZNUPfAiMAWekJvDN5ANt//foa/57IuoXvqe4/Je7qJw8S0iE2zXW1A2w2Gy9OepBdWzaU+drc7Cym3jeG6DP6nKLQW/yF86pvzqlJCXz78Zxr9BvNuCF9Wb1koZbwrqpzx5qs/P52wkL9de/7WjZuTeTjL1VPILu7c8DDQGtgPqVU9NPCHQYAO9BSHliWASqkXY1a1AhWv4Gu7PLAzvXG5Idp36zsNfyy7D12kX+/t6dcr/UrVvDRIcnYtEc78cmsm3RfDrCYi1nw7hQ+nz72z417ly374iVKTOqPjVkt1940mZEN55NV1XzSbO2yHytUp76wIJ+ZTz2q23l3PWl9Mv/mo/f+scyx6qcfuKt/D86e0P+G2e36WqxZPIxqVR1f3e+y5NRCJj2zzduKVRUBP2FPkNce+A4o3y5lldxhAGAEyvfJexVRyTIAqAgD0LuehvLA+1yUD+AaggIC+P71F/Hz1b6fde7S03y3qhx7axT7UoBBh/ooj4xrzxez++Hrq39ZjkPbVzLzga6cOmDf4R19bDf7N5dZIKxU1WrULfXfc/LhTDyYnbwy9/1nH1a4zbGD+zh6QFtmSUeoVbf0n3FZik1FfPy6fYNnbnYWz46/hxlTJmAs1D+Bw8A+DVi/ZATVw523E7TIZOHuSRvJuKT69Js7yQVWAROBusC9wFoc9MT/d64+BXBZQ+BmNQ0zioyM79CZQB1uAJVFvrmYLQnqqmTlFBQw7vZBRFSrqnNU6tWvVROr1cb2Q+VL7lOaDbuTGHpT2amCDYq2WgFXur5DTVq3COe3jfG6VwwzGfPZu2ERRcY8tq/8ipxMbeVHhz00ndoNS6/EWWKBS7lQJcRe9NHRLqYm88HM6ara1qpTl579tJWb1ltolar8tnQReTnZqvuIPnOS4JBQXn58IscOqi68Wqrbb2nMkq9vJSTYeWv+AJOf286mbR754FcMnAF2Aj8AM4B/A4uBw2iYCVfLuf/nrm0z8JaahlabjX2pSQxq0lznkLxXn/qNNbXfvP8QLRu5V43YlyeOY/XOPRw+q67ewWWmYit3PruFg4tHUaOMpxpfsz1JkNqywVf614gWhAT7MW7KZkzF+g7+FUVh448fae6ndoPmtO9xS7lea7bAmQRoXBtqOzgFfHKC+l39SXHaysU6yl0PP8b7r/6f6vaKomhqX5Z/jWjBNx8PdNpRv8s+mn+MH5dre4+X4negfMcoypYPFPzxZy72zXzxOOnJvrzcZQBwEMgBwtU0jkpJlAFABTQIq0LTquHE5anb0b/lwCEm3zlC56i08ffzY+GbL9HjwcmaMxbGpeRz74uRrP38Vvx8S/+A8y9SsPmBzU/7IGDooCas+XEYdz2ykUtZJs396W3kxFfw8Sn/TJvNBnFpYCyGJnXQ/dTDZQV5uarb5mto60h3T3yMH+Z+wsXUZFeH8g9TJ3Vi1oyeuu9dKcvm7Um88o5jZjP+0An7E/kuR17EnbjDHgCwj4q2qm0s+QAqTkta4C0HDmFVmUzIkdo3a8JHzz6pS1+b9iYz+a2osl+oQEABGHSauu/dvS47Vo2idQtVY2GHad6hJ71uvV9V24vZcCrOXvVZlE9wSChPv/YfV4fxF76+Bj54ow/vvNLL6Tf/uMR8xk+NxGp16K4/f2AZUN+RF3En7jIAAA3HAaNzskhzwAYXb6ZlGSA7L1/zVLujTBo1jLsGDdClr29WnC1X0SCDTcG/UNGYlPN/mjWuytYVd3BTT/fIcmkwGLjv6Q/LnWHuagpNcDLWflJAlM+wsffRtVcfV4cBQGiIH0u+GsLk8R2cfu3snGLGPLSOrGynzIrVwb4+79wRjou40wBAUzJqmQWoGM3lgfe513HAK30541ma1dfn5vnSpwdYuKbs8qK+Zm1VA/+uenggqxYO5V8jSt9w5wy9bxtHs/Y9NPdjtdlzBcSk2P9blM5gMPDcW+/ho0OyKy3q1Qlh07KRDB2k/bhtRRWZLIyduIEz0U5NQHYz9ox7Xs+dBgBnAdU1fiUfQMVUDQikY031NbpdVh64HKqFhbL4rRkE+Gvf4qIoMOmNnew6XHbCKT+Tgm+xfoOAoEBfvv/sFt577Uanb7a6LDA4jDunqNqfe02ZuXA8RpGKguVwXbcejLhnnMuuf2OPukStGUPnjjWdfm2LxcaDT2xh9wGXJHubTSVYCnCnAQBIeWCn0rIMEHX0BEXFLi4PXIpe17Xng6cf16UvU7GVUf/exLn4sjeMBRTqkyToMoMBnpjQkd8WD6N2TW0VENUYPn464TX1/xwsMRs4k2CfEZDZgNI9PXMWYVWcf+x2wn3tWPvTcOrWLv1IrCMoCkydsYs1m1xWt6Ea8KmrLu4s7jYAUL0McNFYyHkpD1whWtICm0pK2HXkhI7R6O+JsaN4eMRtuvR1KbeYQY+tJS6l7Bq4AfmKLkmCrtS3Vz12rh5N10619O24HIqLHLe/JiNbZgPKEhd9jpoakwNVREiwH99+fDOfvdPXaUV9/u7N9w/y3Y9nXHLtK4wBnFfT2AXccQCg+kFelgEqpludegT7qZ8md+dlgMs+/79pdG7dUpe+EtMKGTJ5PWmZpWcgMyiKvWiQzlNSjRqEsfmXkUy4r52+HZfil7kzeH50C1Z8OZO8bMcUXbk8G3Au0Z5ESNhrG2xevYL7B9/E+GE3E3del+qvZWrdIpxtK0dxz2h93jNqfPXDKd75xG32GLnXUQydudsAIB04rrZxVLLqLQSVUoCvL93rqJ/e9YQBQHBgIMvfe52IqlV06e98Qi6DJ6/lUk7pyx8+Fggo0O9kwGVBgb589k5ffpw/mIjqzqltX5iXxW/fzeL/xrRk4ZwnSYk97ZDr5BTAsWhIznBdUSFXMxYW8PN/v2Jkz448/eBdDsvidzUP39eWqDVj6NguwmnX/LuFy87x9CvlOH7rPAOBwa4OwlHcbQAAGssDW9zwfLo769NA/T6AI+eiycxxz0QqV2pWvx5L3n5Vl3oBACeis7n18XXkllGD3NesEKBD5cCrueP2ZhzaMpYhA9Uv41RUSXERW5fP55X7O/HGhJ5s//VrSor1zcduUyA5E07GUamWBWLPn+XD119icMfmvPHM48RHO++YbbWqAXz/2S18/k4/QkNclxtu8fLzTHl+u27psG/sej0De2k/vQI8p0cn7sirBgBGs5kjGVIeuCL6aCwPvPXgER2jcZxBN3Rj3vSndevv91OZ3P74egqMpRfr8i1WdD0eeKXaNYNZ/t/bmDWjl9PXauPPHGLBu1N4YXQLln0xnZRYfUvrGk32VMJnE6DIffeaalKQn8evixfwwK39GHlDR7796D1N+f/VGNinAb9vHsvYka49bvrLbzFMfm67bol+mjasz/K5c/jpk7dpUEf9aac/DAba6BCW23HHAcAOQHXOsF2yDFAhbSNqEhGkfnf5pn0HdYzGsSbeMZRp99ypW397jl1k6JMbyCssfRDgV6Tgp+PxwCv5+Bj492Od2PXbGLp31vxBV2H5ORmsWziHV+6/npkPdmXdwve4lKbfzu3cQjgeC7Gp3rE/oNhkYvPqFTzz0N0MaNWAl5+YyJH9qouhqlYlzJ8P3ujD6kVDqV831OnXv9KSldGMf2oLFos+s7dVw0L57euPqVOzBrVrRPDde69rSmKFPSnQZF2CczPuWELPDAwCmqppbFFs3NXa+dmqPJXBYODEpQzVJyiy8wqYdq9+N1VHG9yrOwdPn+V8oj451hNSC9iyL4U7BzUjOOja06e+ZlD8QHFA2V+A2rWCefCuNoRXC2TPgTTMZucvheVlXeTUgS1sXvopJw9sxpifQ5VqNQmrVkNz30YTpGdDcQmEBILfFZ9cCTHRrPn5R1X9NmnRimFj79UcX2kKC/LZtu43vv14DjOnPcbqnxYSc/Y0VqtrRjS339KYFd/fzs19G2q9MWq29NdoHnl6q25P/r6+PqyY9wE3dr3+z79r3rghsYkpHD2taSNlG+ADwKvWmN013eHLwJtqGvr6+HBo3KOE+QfoHJL3WnL2JC/tUp+I8cLKRTRv4B5pa8sj32ik7yPTOHr+gm59dmodwca5t1OnRumzKSVVDFj9Hfu2i0vMZ+pLO9m8Pcmh1ymvOo1acn2fYXTqM4xWnfrgp/G9aTBArXCoVwMC/WHnpnU8ftdIVX31HXw7XyxdpSmeq0mMjWHHxrVs37CGg1E7MJe4vhBC7ZrBzHn9RrfILgmwekMc90/ZrNuTP8C8t2bw2FUeSDKysmkxYAT5hUYt3d8KbNTSgbtxxxkAsC8BPKKmoaIodK1dj+bVHFyD1IuEBwXx3Un1a/kdmjelW7vWOkbkWIH+/tzRvw/Lt+4iJ1+fM+7pl4pYvSOBUQObUjXs2jc43xLHzgQAhFcL5N4xrWjepCoHDl+koIwlCkcrzMviwol97F73Axt/+ogzB7eSmRoHQNWIOvj6+Ve8T5O9yFBxCWQkR7NhuWtnAOLOn2Pzbyv5Ye4nvDv9GebP+Q+7Nm8gKS4Gm9W1FWB9fQ08fG87lnw1hG7XOz+PxNWcPJPFqIfWUVyi38/m1ace5blJD17130KDgzEWmdhxQNPxwkJgjZYO3I27zgD4AZnYszFV2EMdrufVXv31jcjL3fzzAuJVlgceO6g/S9+eqXNEjncuIYmbHplKRrZ+ecab1q/Cli+H0rxhKccODVBcxaBLCeGyFBSamfP5ET756himYrcqRQ6An38gTdp0oUmbLjRu3YXGrTvToHmHCs0SHNuzjo+fdd4MQFpyIqePHub0sSOcOXaE478fIPOie24+7te7PrNf7U2nDtqXYfQ0ctxaNu/Qb4bqkbtH89WsV0p9TU5ePo363E6BUfUsQCrQAN0P97qO6858lM6CvTzwKDWNo5IlIVBF9anfSPUAIPLAYWw2xeklQrVq3bghaz56m5unPEOBUZ/jbHEp+dz40CpWfzKEHh2u8bSlQGC+QnEY2By8HBAW6s9rL/Rg/L1teek/e1m5Ntah16soi7mYCyf2cuHE3j//ztfPnwbNO1C3cRtqN2xBnYYtqN2wJbUbtqBqRB2nxFVsKiIxNoaEmGgSYi6QEGv/89yJY2RfynRKDFo0aViFWS/3ZPTQ5q4O5R/ik/LZslO/m//IQf2Z++ZLZb4uvGoV7r/jdub/+IvaS9UD2gKOSYThAu78if0E8JnaxrvvnUCdkDAdw/Fu6+OieWLLWtXtDy6Y51HLAFfauPcgI555iRKzfpuyQoL8WPzOQO4YUEoFNQMUhxkcPgi40o49Kbzyzn4OHHZMVj9HCwgMpmpEbarVqEfV6rUJr1WPwrwc9m9eoqq/Ji1b0W/IULIyMshMTyUzPY2szAyPuMlfTXi1QJ6efD1PPXIdQYHuucL7w8/neOzZbbr0NbBXD9Z88wnBQYHlev3hU2foOuI+LZecCHyrpQN34p6/IXZ5wJNqG7erUZN2Ee6x3uUJagaH8M3xQ6rntpo3qMdNna/TNSZnadGwPh1bNOOXyB3YdEpBZ7bY+HljLNXCAujV6drH8/zMYHPwnoArNWlUhYfvbUvvHnU5cz6H1HRNm6Kczmq1YCzIJftiEmkJZ4k7/TvJMSdV95eblcWxA/s4f+o4yfFxZF/KxFTkWT8TsM/0PPVIJxbPG8zNfRvg56LqkeWxPjKB7btTNPfTu0sn1v73U0KDy3+MuV6tmixcuYbs3Dy1l80AVqtt7G7ceQBwCftoS9U+gFD/AIY0dY/drp4gyM+PyMQ40o1q068ZeHDYEF1jcqZ2TRvTpkkjVmzdhaLTIEBRYP3uJHLySxjcuwE+1zhy5VdiHwAoTnw3NmtclQn3taN3j7qcPJNNeobn3fQEhIb4MWlcexbPG8zwW5u67VP/lQ4dy9C8/t+lfVs2LviCqmEVn+WNT0llz+Fjai/tC8xT29jduO8w0U7KAzuRlqyAu44cd+vywOVx9+CBfPvqC7rvZfh40QnufGYz+aXsxg8otDksWVBpbr6pAVFrRrNw7iC32SEuylY9PJAXnuzCqV33Muf1G6nlglLRarVtqe2EVodWLdjw/eeEq6zv0f+Gblou3xL3XjqvEHcfAKg+nJ5uLCRaygNXSJ/66usCmEpKiDrq3uWBy+PBYUOYN/0Z3ROk/Lotnl4P/MrZuGvUTlDAv1DBz+T8QYCPj4Exw5qzc/VoNv8ykjHDmuPrpCUJUTFNGlbhzek3cDrqXl57oYdH3fgvu6lXPapVVZcL4ro2LYlcNJ9aEeoHEb26aFqqDAWcn3LTQdx9vigDeBaVI65m1arTubbz6mh7utohoXxz/DAWRV1ijvq1ajJI2+jaLXRr25pGdWqzZtde3ZYDADKyTSxYfZ62zcJp1yz8qq/xNYPBBrYA19yAGzUIY8zw5tw5ogUlZivnonMw65ioRajTo0tt3n21N5/M6kufG+oR6AFT/dfi7+9DSYmNHXsqtg+gU9tWbFk4n9o1tFUrDA0J5qsly7UkBVoOuEeWLY3c/beoALgTUHX2x8/Hh5EtvLKGg0P4+fiwPy2ZhHx1Ff5MJSU8Onq4zlG5Rpc2rWjZqAGrduzWbWMgQLHZxtKNMZhKrAzsUf+q+wJ8rPYvq7/BZZONNSOCGDaoCZMf7kDTRlVISTOSdlH2CThT1bAA7v9Xa76Y3Y8Xp3alfevqHnfU9lp6dqvDtqhMklLL91nTuX0btiycT83qVx84V9TKjVtJSFGdu2EtXnIU0N2XAEBLeeBUKQ9cUVr2ARw+e55L6nfXup37bruFpe/MJMBf33QZigLvfHuU26asJzPHdNXX+JYoBObbMOg4+FCjalgAE+5rx+61Y4haM4bHH+5IeLXyHbkS6nS5riafvdOXCwfH8dk7fbm+Q01Xh6S7YN/2rPv6e2658YYyX3tbvxuJXDifGuGq9oNfVZPamva7eM35cnefAQB7jPeraWi2WenbsDH1w9RtFqmMgvz8+PGMurV8RYHu7drQoXlTfYNyoXZNG9OtbWtWbN2FReeUrjHJ+Sxee4HObWrQrME/f0cNNnvqYJs/KG7w5FevTghDBjZi8viOdGhTHatNISEpH4tOhVwqsw5tI5gyvgOfvt2X55/oQpfrajm9xLNzGPCzdifAdiNBgUGMGzWUpg3rE5uUTHpm1l9eeX271sx+cRrvvjCVkOAg/UIoLGLz7n0cPHVWbQ+bAM8pg1oK13+qlC0M+5FAVbtGpnbpybSuPfWNyIvZFIUbFn9NtkldZrxHRw9n/kvP6ByV60UdPcHIZ2aQlZeve98+Pgaee/A63nyi+9U/9A1QEmrA6qJ9AaUxFllYH5nAomXn2LIjiRIXVCH0VE0bVWHooCaMG9uazh297yn/HxR/AqwD8VWunp0wOf0isYkp+PgYaNqgPvXrOOBUSpEJikw8//E85ixcqraXF4D3dIzKZdzvE+XqtgP91DTsXqc+S4b/S+dwvNvUyHWsiT2vqm2LhvWJXrFQ54jcw+nYeG6b+n8kpDkmi17HltVZ/PZArmt1lU1OBjAHG7AEue9bNjevhMhdSWzcmsjGbYkel2TI0QIDfLmpZz0GD2jIkIGNadtSn/VsT2BQqhFgvRUfRdsGPk1MJntdaeDZj+bywaKf1fb0LPbSwB7PXWsB/N0WVA4ADmekUWAukfLAFXBj/UaqBwAXklKITUmlWX3PKQ9cXu2aNWHvfz9n6LTpHDkXrXv/J6Kz6TluFW9P7c7U+zryl/2BCvgbFXwsYA41oLjhOKBa1QBGD23+Z/7546cusXF7Ipu2JXHg8EWKTPqlWvYUrVuEM6BPfW4d2Jh+vesTGuIpH7n68VWa4G+5GQMu3Dvyx5P/ZRrLAnvNRic3/Bi5qt7AbrWNvxo8gpsbN9MxHO+WmJ/HgKXfqW7/5YxnmTRqmH4BuZmc/AJGPfcK2w8dddg1hvVtxBcz+tC47j/3Gym+UBLmg80TdvD8wWKxcfx0FrsPpHH4WAY79qaSlKJPKWZ34efnw3XtIujdvS433lCXvj3reeQ5/dJkZZvIzS+hZkQwVcLKKuNswM92Pf7WnrjsVqMAhUYoKfnLX9/z0pss2bRVba/3AOqKT7gZTxkAaCoPPL5DZ17ppWoCodIa+PP3JOSpOw5416ABLHn7VZ0jci8lZguPv/sR3/yqvoBSWaqE+jPrqR48fle7fx7/MkBJiAFroKe8hf/pfEwux05d4sTpS5w4k8XJM1nEJeq/x8IRqlYJoEObCDq0jaBTe/ufnTvWJDjI+57wL2WZ+Gj+MX757cJf/v+0bRnOPWNa8cSE6/4xs2FQAvG3DsJXUX+qSDOrDQoK4Sqbd3s9/AT7Tqg+yTcM+1FAj+dJnx4rgTvUNGxVvQbrx6g6SFBpvRwVqfo0QM3waqRvWO41Z5ZL8/7Cpfzfp19ideBx096davPVzL50aPHP7GeWQAPmUO/5OecVlHDyTBbnY3JJSMonLiGfuET7V9pFIzab804cVA0LoEnjKjRpWIWmjarQtHEVmjepSrvW1WnS0PtPFlmtCl8vPMXM2QfIyy+55usa1g9jyVdD6HKdfSOjj1KfAOstGJRQZ4X6T8UlYCyyH026iohb7iBb/YbensB+tY3diSd9cjwJfKqmoQGIuncidUJc+AvpYdbFRvNkpPpB7u8/zKdr21Y6RuS+ftu5h/te/g/5Rsdtegvw92H6xM68NLHzP04K2HzBHOqDzfsePv+iuMRKarqRjMwisrJNXMopJivbRFZ2MZlZJoqLLRQa7fsM8gvNWC02rDYFU7GV0GD7DycszB8/Xx/8/HwIC/UnLNSfGhFB1IoIIqJ6EBHVA6kREUTdWiFUD6+8+Q4OH8/kqek7OXQso1yvDwv1Z/vK0VzXchD+tm647NZis0FhEZivXXcjJeMSDYaO1XKVCCBbSwfuwpMGAG3RkH1pTv8hjG7ZVsdwvFtOsYkei75SnQXv3ace5YUH79E5Kvd14kIsY56fyflEx2YIbd2kGu8/25Ph/f5Zt8Ec4t6nBIT7y8sv4fU5B/lywUmsFczv0KFVE46u+QVfXxfkL7DZwFQMphIoowzcjxsiue/lt9Re6SIqM9O6I0/KNHEGDfmXo5ITdQzF+4UHBtGhhvpzuJv3/65jNO6vY4tmHFgwlzv693Hodc7F5zJi6kZue3w9p2Nz/vJv/kaFwDwbBidOkwvvYLUqfLPoNNf1W8Lc/56o8M0f4OT5eH5et8kB0ZXCarNP9efm2wcA5agBG3nwsJYrqs4e5I48aQAAGqoD7k6RAUBF3aipPPAJTCXXXjf0RtXCQlnx3hu8/cQkfH0c+9basDuJTv9azrTZe8jK/V8ZZh8LBOYq+LqgtLDwTFujkuk99Beemr6TjEvqEoBd9st61R/R5acAJWbIL4S8PPuNv5wzlVabjXVR+7Rc/ZSWxu7G0wYAqusCpBsLiM7JKvuF4k99GqgvD1xUXOwV5YErymAw8OL4e9n42XvUjnBsoheL1cYni0/SeuRSPv3x5J9Z+AwKBBQqBBQoGCQxn7iG0+eyGTtxA8PuXcOJ0/p8Nh5Rn163FIp9J7+p2H7Tz8m17+43m8vzwP8XkQcOk5yRqSWY7VoauxtPGwBsocL/y/9HlgEqpnud+gT5qt9ZVtmWAa50c48uHFn0FYN7Or488qXcYqa+u4fWI5fy9fKzf5bv9S1RCMpV8CvfzKioJGIT8njk31vpMWQZazbF69p3fkGh/cy9mq/iP75MxfZp/YJC+9R+Vq79T+Mfm/s0FMhasGajlm9PAVQnD3BHnjYASAVOqm0clZKgYyjeL9DXl2511Gf027zvkI7ReJ56NWuw/pPZzJ76mO4VBa8mPrWASW/spN3oZSxYfR6rTQFFwb/QRmCeDR99axkJD5OabmTajF10HrCUxcvPO+RIZZ2IcCgwqvsq/OPLWGQfBJSYr3qGX6341HQtyX/APv2vuoawO/K0AQBoLA/syPPa3kjLMsChs+ccUjzHk/j4GHj+gbuJ+uZTWjZq4JRrXkjM46FXttPxzl9YsiEGm03BxwqBuTb8jYrMBlQycYn5TJuxi/Z9fuSrH079OUPkCH2u7+iwvrWaveAnzBZN6ahV33vcVaUaABSYSziSka5nLF6vj4aNgDabQuSByj0LcFn3dm04tHA+j44ejsHgnKN6Z2JzuOf/Imk7ahlzl56mqNiCn0khKNeGb4mMArzdmegcJj29jU79l/DVD6coLnHsFJDBYGD88Nsceg21ziUk8c0qzcn7ftQjFnfiiQOA7cC1szyUQU4DVEz7GrUID1Rfi3uLDAD+VCUkhPkvPcP6T96lUZ3aTrvu+YRcHp8VReNbf2Lm3N/JyCwioEAhMM9eXEh4l+27U7h70ka6D/qZRb+cw+LAJ/4r3XfrLdzQwT1zrTw5+2OKS1TfNgDOAZqOD7gjDyon8qcSYDDQRE1jqznsQG0AAA46SURBVGLjX63b6xuRFzMYDJzIvMh5lScocgoKmXr3GJ2j8mwtGtZnwsjbuZidw+Gz+lcVvBajycL239P47KdTJKYV0rphVeqGBOJjBZufwbPSgom/MBVbWbjsHI8+u40P5x3l3IUcLXvlKuyGDm1Z9u5rTtnrUlE/rN3E+wuXau3mI2CHDuG4FU8cAAA0AgaqaXjRWMjEjl3w9/XUb9358oqLiUyMVdU2Ky+f8SNuJbzKP6vaVWZBAQHc0b8PPTu2Y9fR4+QWFDrt2harwu+nM/li6Sm2Hkgl0MdA+zpV8ff9I52wk5YohHbRsbl8MO8ojzy9lZ9XXeBiprZz/GqMH34bS9+ZSWiw+plCRzkbn8gdz71MiVnTVJcFeARQVx3NjXnqXdAMTFTT0KYodKtTn2bVHHtG25tUCwzku5PqS992bN6Urm1b6xiR92jVqAGTRg3HbLGw/+QZ1amX1YpPLWD5lji+WHKatNRCmlQLoW5EMIrMCLgtU7GVZatjeO613Ux/ay97DqRjLHL+Wk6rRg1Z8vYrPHP/WPz93O/JP99o5LapL5KUXr56BqVYDPxXh5DcjqcOAFKBfwOqqnXUCAqmX0NVKwiVUrXAIFZEnyGvpLjsF19FSFAQ/7qlv85ReY8Afz8G9+zOqP43ceRcNEkXNX9gVZip2Mq+4xnMW3qaTTuSwGijWb0wgsL8ZEbADSgK7D6QxvtfHOGxZ7ezZGU08UmuOWETGODPyxMeYNFbM2jd2IXlfktRYrYw8pkZ7D2hOXGfDbgXezl6r+PJ7+xfgZFqGrauXoN1Uh64QmZERfKTyvLAtaqHk7b+l0pRHlgrm03hq5W/8fLcb8nMce2Mo5+vD7f0rM+dw5szfHgzwitxdTxXOXE6iyUro1m6KprE5AJXh8Pgnt347IVptG7c0NWhXFOJ2cJ9L7/FL5G6LNkvAzSVDnRnnvyJPBX4WE1DA7D73onUlvLA5bY29jxPRa5T3f7Qwvl0aVM5ygPrITsvnze+XsDnP/+q9eyyLgL8fRh0Y0PuvKMFQ4c0oVrVAFeH5JVsNoUDhy+yemMcqzfEcT7GPZadWzduyJx/T2FE396uDqVU+UYjY56fqVcWUjPQBQ3J59ydJw8A2qPhf8z7/YcwSsoDl5vW8sCzpz7G8w/crXNU3u9MXALPfjSXtdoKmOjKz9eHG7rUZsjNjbh1YCM6ta8pqwQa5BeY2bEnhfWRCazZFE/aRaOrQ/pTeJUwXpn4AE/dPdot1/mvFJ2YzNgXX+fIOd1O1rwHvKBXZ+7I09+2SYCq9GpjWrXjvX6DdQ7Hu41c+RMnL11U1XZIr+5s+HS2zhFVHuv37Gf6Z1/r+eGmmzq1QhgyoCGDBzRiYJ8G1Ihwv93g7sRqVTh8PIPNO5KI3JnMvt/THZqdT40Afz8eHT2cmZMeomZ4NVeHU6afNkby2KwPyCvUbfCUiP0h0/XrLg7k6QOA74EH1TSsGxpG1D0TdA7Hu717IIovj6mbWgsJCiRryyoCA/x1jqrysNkUlm7eyqvzvuN8YpKrw7kqgwHatAinV/e69O5Rl17d6tCqufvfQBypyGTh4JEMovansudgOvsOppNX4J6lsn19fBg3dDCvPfoQTevVdXU4ZYpJTmXanM/4bdcevbu+E1iud6fuxtMHAA8AC9Q23nDnOFqGR+gYjnfblZzAQ+tXqm6/5Yv3ublHFx0jqpzMFgvfrlrHG18vICXjkqvDKVOtGsH06l6Hnl3rcF27CDq0jaB+Xe/cf2O22Dh1NovDxzI5fCKTw8czOXYy889Sze7KYDAwesBNvDllAu2buf8JqdTMS8xZuJS5y1ZRVKzudFIpvsF+7t/refoAoD72ZQBV38fM3v15sP31+kbkxUxWC11/mE+xygpd08ffx6wnKsX7yimKiov55td1zF7wE4np6pZmXKV6eCCd2tegQ5sIOra1DwqaN6nqMcsHFouNmPg8zpzP4eyFHE6fy+JsdA6nzmY7POe+nnx8DIzqfxMzJoyja1v33qSrKAq7j53k+9828MPaTZhKHDKLchzoCTg/o5ILePoAAOAE0EFNw0FNmjN/0HCdw/FuD6xbobqeQo/2bdj//VydIxIlZgsL1mzgne9/5EJSiqvD0SQs1J8mjarQpGEVmjaqQtPG9j/r1g6hZo1galQPokqYY5eRbDaFzCwTmZeKSMsoIjW9kPjEAhKT84lPzCc+qYCklAK3W7evCF8fH+4eMpCXHr6fDs2bujqca8orNLL90FEiDxxi9c49jv79LgBuAE478iLuxBsGAB8B09Q0rBIQwO/3P4qvjyfWRHKNeUcP8t7B3ara+vr48OaUCfjIlnGHsFitLNm0jePRMa4OxaEC/H2IqB5ERPUgalQPJKJ6EP5+PlStYj+aGBzkS1Cgfcd6eLj976xWhfz8/xWDKSwyU1RkIb/ATE5uMfmFZgoKzWRlF5OZVYTV6r3VEgMD/Hlg6BBaNqzv6lD+osRsId9oJDu/gLiUNM4lJJKYnoHinOyYFmAMsNoZF3MX3vBJPAJYpbbxshFj6VK7no7heLdjGemMXrXE1WEIIYReFGAS9rX/SsUbHn23oaE8cFSylAeuiI41a1M9KNjVYQghhF5mUAlv/uAdA4B8NNRpjlK5nl3ZnLqUwSeH9zHq1yXkmCrF/hghhHdTgJeBt10diKu4d2qn8tsC3KSm4eGLaRjNZkL85Xz6layKwuGLqUQmxLIh7gJxeTmuDkkIIfRiBR4HvnR1IK7kLQOATcBMNQ3NNiv705IZ0KipvhF5oLySYrYnxrMpIYYdSXHkO+aYjRBCuJIRe4U/1XvHvIW3DAD2AXlAVTWNd6ckVtoBQHJBPjuT4tmSGMvOpATMNs85wyyEEBV0BrgL+3n/Ss9bBgAWYAeg6lB/ZdsHcD77EpGJcWxJiOFQeiree+BJCCH+9AMwBSh0dSDuwlsGAACbUTkAOJuVSUaRkVrBITqH5B5KrFb2piaxKT6GLQmxpBu9ur6FEEJcKRV4GpDzy3/jbQMAVRRgT0oiI1u00TEc18opNrE7JZHIhFg2J8TIer4QorKxAV9jL+mb6+JY3JI3DQBOASnY6wNU2K7kBI8fACTk5bI5IYbNCbEcTEvG6pwMWkII4U4UYA32I35HXRyLW/OmAYCC/TjgA2oa7/LQhEDnsy+xNjaayMRYTmR6VkEYIYTQkQ1YC7wOHHRxLB7BmwYAYF8GUDUASDcWEJObTfNq1XUOSV8mq4XdyYlsSYhlS0IMGUVGV4ckhBCulAAsAr4Dzrk2FM/ijQMA1aKSE91yAJBlKiIyIZYtCbHsSk7AaFGd+VgIIbxBPPb8L4uB7dif/kUFedsAIAX7XoD2ahpHpSTyQPtO+kakUmxujn09Pz6GwxdTZT1fCFFZGYGz2D/btwFbgQuuDMhbeNsAAOyzAKoGAHtTE7HabC4pD2xTFA5fTPvzph+Tm+30GHR2FPsbtdjVgQghPEIx9touedh37V/CPqWfCJKuxBG8cQCwBZiqpmF+SQnHMi/SpXZdnUO6OpPVwu/pqWxJiGFdbDQXjR6dn8IK7MVeT3sFshYnhBBuzRsHAFuxlwdWVd1nd0qiQwcA2aYitiXFEZkQx7akOIxmj17PL8T+8/4Ze15tqRgkhBAewhsHAPnAAeBGNY2jUhJ5onMPXQNKzM9lS0IskQmx7E1Lxmrz6P0qCcB64DdgAyAZhoQQwgN54wAA7PsAVA0ADqWnai4PbFUUTl/KYEtCLGtjzxOdk6W6LzdxCvvU/m9AFLIeJ4QQHs+bBwCvqmlotlk5kJ5C/4ZNKtSuyGKxp95NjGVLvMefz7+8nv8zsBz7JhwhhBBexFsHAHvQWB64PAOALFMR2y+v5yfGefr5/GzsA6ffgF+R3NlCCOHVvHUAYAF2AsPUNI5KTrjmv11ez18be94bSunGY1/Hl/V8IYSoZLx1AAD244CqBgBnrigPbFUUDl9MJTIhlk3ecT7/FPap/dXAIWQ9XwghhJfpiP3mpurrwfbXKyNbtFGqBQaq7sNNvoqwV8Z6DJWVEoUQQghPYsCeGtjVN2BXfF0ClgIPonIfhBBCCOHJfsD1N2NnfcUAHwODUJkESQghhPAW43H9jdlRX1bsNa9fA7rp8+MSQgghvEMDXH+j1vOrCHsJzGnIer4QQghRqtO4/sat5SsTWACMBaro/LMRQghRSXnzMcDLNgFtXR1EBcVgP5u/Gnv9a4tLoxFCCCE80B24/im+rK8r1/PbO+SnIIQQQlQyVbBnuHP1Tf7vX0bsT/iPAvUc9t0LIYQQldhuXH/DV4AM/reeH+bQ71gIIYQQvIHrbvoXsJ/PvwnwcfQ3KoQQQoj/6YfzbvgWYBfwf3je5kMhhBDCq/gDaTjupp+HPfXuOCDCSd+TEEIIIcrhLfS96ScCXwC3AYFO/D6EEEIIUQGhQDTabvqHse8n6Ia92JAQQgghPEBLIIny3/BLsCcSegpo4oJ4hRBCCKGTWsBiwMzVb/o5wI/APUC4i2IUQgghHKoyT2M3wJ4lsCVQFfua/i5gB/bBgRBCCCGEEEIIIYQQQgghhBBCCCGEEEIIIYQQQgghhBBCCCGEEEIIIYQQQgghhBBCCCGEEEIIIYQQQgghhBBCCCGEEEIIIYQQQgghhBBCCCGEEEIIIYQQQgghhBBCCCGEEEIIIYQQQgghhBBCCCGEEEIIIYQQQgghhBBCCCGEEEIIIYQQQgghhBBCCCGEEEIIIYQQQgghhBBCCCGEEEIIIYQQQgghhBBCCCGEEEIIIYQQQgghhBBCCCGEEEIIIYQQQgghhBBCCCGEEEIIIYQQQgghhBBCCCGEEEI4yv8DdZTkk1TaIO0AAAAASUVORK5CYII=;" vertex="1" parent="1">
          <mxGeometry x="430" y="374" width="82" height="82" as="geometry" />
        </mxCell>
        <mxCell id="gQ4Pl1D-QI35R4eoKrXc-22" value="&lt;font color=&quot;#000000&quot; style=&quot;font-size: 30px;&quot;&gt;&lt;b&gt;DRAM&lt;/b&gt;&lt;/font&gt;" style="text;html=1;align=center;verticalAlign=middle;resizable=0;points=[];autosize=1;strokeColor=none;fillColor=none;fontFamily=Courier New;fontColor=#FFFFFF;rounded=1;shadow=0;glass=0;comic=0;" vertex="1" parent="1">
          <mxGeometry x="610" y="300" width="100" height="50" as="geometry" />
        </mxCell>
        <mxCell id="gQ4Pl1D-QI35R4eoKrXc-26" value="Valid" style="rounded=1;whiteSpace=wrap;html=1;strokeColor=none;shadow=1;glass=0;comic=0;gradientColor=none;fontFamily=Courier New;fontColor=#FFFFFF;fillColor=#81b29a;fontStyle=1" vertex="1" parent="1">
          <mxGeometry x="140" y="760" width="40" height="30" as="geometry" />
        </mxCell>
        <mxCell id="gQ4Pl1D-QI35R4eoKrXc-27" value="Data" style="rounded=1;whiteSpace=wrap;html=1;fillColor=#77aac2;strokeColor=none;shadow=1;glass=0;comic=0;gradientColor=none;fontFamily=Courier New;fontColor=#FFFFFF;fontStyle=1" vertex="1" parent="1">
          <mxGeometry x="10" y="690" width="90" height="30" as="geometry" />
        </mxCell>
        <mxCell id="gQ4Pl1D-QI35R4eoKrXc-34" value="Byte Offset" style="rounded=1;whiteSpace=wrap;html=1;fillColor=#696773;strokeColor=none;shadow=1;glass=0;comic=0;gradientColor=none;fontFamily=Courier New;fontColor=#FFFFFF;" vertex="1" parent="1">
          <mxGeometry x="130" y="665" width="90" height="30" as="geometry" />
        </mxCell>
        <mxCell id="gQ4Pl1D-QI35R4eoKrXc-35" value="Tag" style="rounded=1;whiteSpace=wrap;html=1;strokeColor=none;shadow=1;glass=0;comic=0;gradientColor=none;fontFamily=Courier New;fontColor=#FFFFFF;fillColor=#e07a5f;fontStyle=1" vertex="1" parent="1">
          <mxGeometry x="140" y="750" width="90" height="30" as="geometry" />
        </mxCell>
        <mxCell id="gQ4Pl1D-QI35R4eoKrXc-36" value="&lt;font style=&quot;font-size: 20px;&quot; color=&quot;#000000&quot;&gt;Adjust&lt;/font&gt;" style="text;html=1;align=center;verticalAlign=middle;resizable=0;points=[];autosize=1;strokeColor=none;fillColor=none;fontSize=12;fontFamily=Courier New;fontColor=#FFFFFF;rounded=1;shadow=0;glass=0;comic=0;" vertex="1" parent="1">
          <mxGeometry x="950" y="320" width="100" height="40" as="geometry" />
        </mxCell>
        <mxCell id="gQ4Pl1D-QI35R4eoKrXc-37" style="edgeStyle=orthogonalEdgeStyle;rounded=1;orthogonalLoop=1;jettySize=auto;html=1;fontSize=11;strokeColor=#696773;strokeWidth=2;dashed=1;" edge="1" parent="1">
          <mxGeometry relative="1" as="geometry">
            <mxPoint x="120" y="415" as="sourcePoint" />
            <mxPoint x="200" y="415" as="targetPoint" />
          </mxGeometry>
        </mxCell>
        <mxCell id="gQ4Pl1D-QI35R4eoKrXc-39" value="&lt;font style=&quot;font-size: 20px;&quot; color=&quot;#000000&quot;&gt;Request&lt;/font&gt;" style="text;html=1;align=center;verticalAlign=middle;resizable=0;points=[];autosize=1;strokeColor=none;fillColor=none;fontSize=12;fontFamily=Courier New;fontColor=#FFFFFF;rounded=1;shadow=0;glass=0;comic=0;" vertex="1" parent="1">
          <mxGeometry x="15" y="395" width="110" height="40" as="geometry" />
        </mxCell>
      </root>
    </mxGraphModel>
  </diagram>
</mxfile>
